font.ufo
<glyph name="quotedbl" format="1">
  <advance width="459"/>
  <unicode hex="0022"/>
  <outline>
    <contour>
      <point x="195" y="623" type="line"/>
      <point x="205" y="846" type="line"/>
      <point x="52" y="846" type="line"/>
      <point x="62" y="623" type="line"/>
    </contour>
    <contour>
      <point x="397" y="623" type="line"/>
      <point x="407" y="846" type="line"/>
      <point x="254" y="846" type="line"/>
      <point x="264" y="623" type="line"/>
    </contour>
  </outline>
</glyph>
<glyph name="dollar" format="1">
  <advance width="576"/>
  <unicode hex="0024"/>
  <outline>
    <contour>
      <point x="177" y="91" type="curve"/>
      <point x="177" y="211"/>
      <point x="177" y="99"/>
      <point x="177" y="219" type="curve"/>
      <point x="63" y="219"/>
      <point x="177" y="219"/>
      <point x="63" y="219" type="curve"/>
      <point x="63" y="99"/>
      <point x="63" y="211"/>
      <point x="63" y="91" type="curve"/>
      <point x="177" y="91"/>
      <point x="63" y="91"/>
    </contour>
    <contour>
      <point x="378" y="636" type="curve"/>
      <point x="378" y="516"/>
      <point x="378" y="628"/>
      <point x="378" y="508" type="curve"/>
      <point x="492" y="508"/>
      <point x="378" y="508"/>
      <point x="492" y="508" type="curve"/>
      <point x="492" y="628"/>
      <point x="492" y="516"/>
      <point x="492" y="636" type="curve"/>
      <point x="378" y="636"/>
      <point x="492" y="636"/>
    </contour>
    <contour>
      <point x="347" y="-41" type="curve"/>
      <point x="347" y="-11"/>
      <point x="347" y="68"/>
      <point x="347" y="98" type="curve"/>
      <point x="199" y="98"/>
      <point x="347" y="98"/>
      <point x="199" y="98" type="curve"/>
      <point x="199" y="68"/>
      <point x="199" y="-11"/>
      <point x="199" y="-41" type="curve"/>
      <point x="347" y="-41"/>
      <point x="199" y="-41"/>
    </contour>
    <contour>
      <point x="357" y="631" type="curve"/>
      <point x="357" y="661"/>
      <point x="357" y="743"/>
      <point x="357" y="773" type="curve"/>
      <point x="210" y="773"/>
      <point x="357" y="773"/>
      <point x="210" y="773" type="curve"/>
      <point x="210" y="743"/>
      <point x="210" y="661"/>
      <point x="210" y="631" type="curve"/>
      <point x="357" y="631"/>
      <point x="210" y="631"/>
    </contour>
    <contour>
      <point x="63" y="91" type="curve"/>
      <point x="120" y="63"/>
      <point x="188" y="42"/>
      <point x="266" y="42" type="curve"/>
      <point x="418" y="42"/>
      <point x="539" y="99"/>
      <point x="539" y="222" type="curve"/>
      <point x="539" y="327"/>
      <point x="440" y="377"/>
      <point x="329" y="424" type="curve"/>
      <point x="265" y="451"/>
      <point x="204" y="467"/>
      <point x="204" y="519" type="curve"/>
      <point x="204" y="557"/>
      <point x="238" y="576"/>
      <point x="285" y="576" type="curve"/>
      <point x="337" y="576"/>
      <point x="373" y="564"/>
      <point x="419" y="541" type="curve"/>
      <point x="492" y="636"/>
      <point x="419" y="541"/>
      <point x="492" y="636" type="curve"/>
      <point x="426" y="670"/>
      <point x="370" y="688"/>
      <point x="291" y="688" type="curve"/>
      <point x="157" y="688"/>
      <point x="56" y="631"/>
      <point x="56" y="519" type="curve"/>
      <point x="56" y="417"/>
      <point x="135" y="367"/>
      <point x="242" y="322" type="curve"/>
      <point x="313" y="294"/>
      <point x="391" y="276"/>
      <point x="391" y="216" type="curve"/>
      <point x="391" y="169"/>
      <point x="340" y="154"/>
      <point x="280" y="154" type="curve"/>
      <point x="226" y="154"/>
      <point x="181" y="174"/>
      <point x="143" y="191" type="curve"/>
      <point x="63" y="91"/>
      <point x="143" y="192"/>
    </contour>
  </outline>
</glyph>
<glyph name="quotesingle" format="1">
  <advance width="257"/>
  <unicode hex="0027"/>
  <outline>
    <contour>
      <point x="195" y="623" type="line"/>
      <point x="205" y="846" type="line"/>
      <point x="52" y="846" type="line"/>
      <point x="62" y="623" type="line"/>
    </contour>
  </outline>
</glyph>
<glyph name="hyphen" format="1">
  <advance width="394"/>
  <unicode hex="002D"/>
  <outline>
    <contour>
      <point x="66" y="222" type="curve"/>
      <point x="153" y="222"/>
      <point x="240" y="222"/>
      <point x="327" y="222" type="curve"/>
      <point x="327" y="345"/>
      <point x="327" y="222"/>
      <point x="327" y="345" type="curve"/>
      <point x="240" y="345"/>
      <point x="153" y="345"/>
      <point x="66" y="345" type="curve"/>
      <point x="66" y="222"/>
      <point x="66" y="345"/>
    </contour>
  </outline>
</glyph>
<glyph name="period" format="1">
  <advance width="278"/>
  <unicode hex="002E"/>
  <outline>
    <contour>
      <point x="219" y="63" type="curve"/>
      <point x="219" y="112"/>
      <point x="184" y="136"/>
      <point x="138" y="136" type="curve"/>
      <point x="91" y="136"/>
      <point x="60" y="110"/>
      <point x="60" y="63" type="curve"/>
      <point x="219" y="63"/>
      <point x="60" y="63"/>
      <point x="219" y="63" type="curve"/>
      <point x="219" y="13"/>
      <point x="185" y="-9"/>
      <point x="138" y="-9" type="curve"/>
      <point x="90" y="-9"/>
      <point x="60" y="15"/>
      <point x="60" y="63" type="curve"/>
      <point x="219" y="63"/>
      <point x="60" y="63"/>
    </contour>
  </outline>
</glyph>
<glyph name="one" format="1">
  <advance width="464"/>
  <unicode hex="0031"/>
  <outline>
    <contour>
      <point x="271" y="0" type="curve"/>
      <point x="321" y="0"/>
      <point x="372" y="0"/>
      <point x="423" y="0" type="curve"/>
      <point x="423" y="113"/>
      <point x="423" y="0"/>
      <point x="423" y="113" type="curve"/>
      <point x="271" y="113"/>
      <point x="423" y="113"/>
      <point x="271" y="113" type="curve"/>
      <point x="271" y="0"/>
      <point x="271" y="113"/>
    </contour>
    <contour>
      <point x="271" y="113" type="curve"/>
      <point x="118" y="113"/>
      <point x="271" y="113"/>
      <point x="118" y="113" type="curve"/>
      <point x="118" y="0"/>
      <point x="118" y="113"/>
      <point x="118" y="0" type="curve"/>
      <point x="169" y="0"/>
      <point x="220" y="0"/>
      <point x="271" y="0" type="curve"/>
      <point x="271" y="113"/>
      <point x="271" y="0"/>
    </contour>
    <contour>
      <point x="97" y="472" type="curve"/>
      <point x="303" y="647"/>
      <point x="97" y="472"/>
      <point x="303" y="647" type="curve"/>
      <point x="195" y="722"/>
      <point x="303" y="647"/>
      <point x="195" y="722" type="curve"/>
      <point x="17" y="567"/>
      <point x="195" y="722"/>
      <point x="17" y="567" type="curve"/>
      <point x="97" y="472"/>
      <point x="17" y="567"/>
    </contour>
    <contour>
      <point x="343" y="0" type="curve"/>
      <point x="343" y="241"/>
      <point x="343" y="481"/>
      <point x="343" y="722" type="curve"/>
      <point x="195" y="722"/>
      <point x="343" y="722"/>
      <point x="195" y="722" type="curve"/>
      <point x="195" y="481"/>
      <point x="195" y="241"/>
      <point x="195" y="0" type="curve"/>
      <point x="343" y="0"/>
      <point x="195" y="0"/>
    </contour>
  </outline>
</glyph>
<glyph name="three" format="1">
  <advance width="547"/>
  <unicode hex="0033"/>
  <outline>
    <contour>
      <point x="41" y="58" type="curve"/>
      <point x="95" y="20"/>
      <point x="153" y="-5"/>
      <point x="231" y="-5" type="curve"/>
      <point x="389" y="-5"/>
      <point x="495" y="61"/>
      <point x="495" y="214" type="curve"/>
      <point x="495" y="346"/>
      <point x="359" y="411"/>
      <point x="157" y="411" type="curve"/>
      <point x="157" y="316"/>
      <point x="157" y="411"/>
      <point x="157" y="316" type="curve"/>
      <point x="264" y="316"/>
      <point x="354" y="279"/>
      <point x="354" y="209" type="curve"/>
      <point x="354" y="140"/>
      <point x="301" y="113"/>
      <point x="236" y="113" type="curve"/>
      <point x="196" y="113"/>
      <point x="156" y="124"/>
      <point x="116" y="146" type="curve"/>
      <point x="41" y="58"/>
      <point x="116" y="146"/>
    </contour>
    <contour>
      <point x="128" y="559" type="curve"/>
      <point x="149" y="582"/>
      <point x="186" y="610"/>
      <point x="228" y="610" type="curve"/>
      <point x="287" y="610"/>
      <point x="325" y="584"/>
      <point x="325" y="524" type="curve"/>
      <point x="325" y="462"/>
      <point x="251" y="429"/>
      <point x="157" y="429" type="curve"/>
      <point x="157" y="334"/>
      <point x="157" y="429"/>
      <point x="157" y="334" type="curve"/>
      <point x="332" y="334"/>
      <point x="465" y="398"/>
      <point x="465" y="528" type="curve"/>
      <point x="465" y="661"/>
      <point x="374" y="727"/>
      <point x="240" y="727" type="curve"/>
      <point x="154" y="727"/>
      <point x="77" y="685"/>
      <point x="40" y="636" type="curve"/>
      <point x="128" y="559"/>
      <point x="40" y="636"/>
    </contour>
  </outline>
</glyph>
<glyph name="five" format="1">
  <advance width="543"/>
  <unicode hex="0035"/>
  <outline>
    <contour>
      <point x="63" y="722" type="curve"/>
      <point x="63" y="626"/>
      <point x="63" y="517"/>
      <point x="63" y="376" type="curve"/>
      <point x="204" y="335"/>
      <point x="63" y="376"/>
      <point x="204" y="335" type="curve"/>
      <point x="204" y="422"/>
      <point x="204" y="523"/>
      <point x="204" y="610" type="curve"/>
      <point x="63" y="722"/>
      <point x="204" y="610"/>
    </contour>
    <contour>
      <point x="204" y="335" type="curve"/>
      <point x="217" y="353"/>
      <point x="238" y="364"/>
      <point x="261" y="364" type="curve"/>
      <point x="324" y="364"/>
      <point x="349" y="315"/>
      <point x="349" y="244" type="curve"/>
      <point x="349" y="170"/>
      <point x="305" y="112"/>
      <point x="234" y="112" type="curve"/>
      <point x="190" y="112"/>
      <point x="157" y="122"/>
      <point x="115" y="144" type="curve"/>
      <point x="45" y="43"/>
      <point x="115" y="144"/>
      <point x="45" y="43" type="curve"/>
      <point x="105" y="10"/>
      <point x="158" y="-5"/>
      <point x="227" y="-5" type="curve"/>
      <point x="380" y="-5"/>
      <point x="496" y="93"/>
      <point x="496" y="242" type="curve"/>
      <point x="496" y="386"/>
      <point x="414" y="484"/>
      <point x="278" y="484" type="curve"/>
      <point x="206" y="484"/>
      <point x="131" y="462"/>
      <point x="63" y="376" type="curve"/>
      <point x="204" y="335"/>
      <point x="63" y="376"/>
    </contour>
    <contour>
      <point x="465" y="722" type="curve"/>
      <point x="336" y="722"/>
      <point x="185" y="722"/>
      <point x="63" y="722" type="curve"/>
      <point x="204" y="610"/>
      <point x="63" y="722"/>
      <point x="204" y="610" type="curve"/>
      <point x="279" y="610"/>
      <point x="382" y="610"/>
      <point x="465" y="610" type="curve"/>
      <point x="465" y="722"/>
      <point x="465" y="610"/>
    </contour>
  </outline>
</glyph>
<glyph name="equal" format="1">
  <advance width="706"/>
  <unicode hex="003D"/>
  <outline>
    <contour>
      <point x="72" y="158" type="curve"/>
      <point x="259" y="158"/>
      <point x="447" y="158"/>
      <point x="634" y="158" type="curve"/>
      <point x="634" y="277"/>
      <point x="634" y="158"/>
      <point x="634" y="277" type="curve"/>
      <point x="447" y="277"/>
      <point x="259" y="277"/>
      <point x="72" y="277" type="curve"/>
      <point x="72" y="158"/>
      <point x="72" y="277"/>
    </contour>
    <contour>
      <point x="72" y="380" type="curve"/>
      <point x="259" y="380"/>
      <point x="447" y="380"/>
      <point x="634" y="380" type="curve"/>
      <point x="634" y="499"/>
      <point x="634" y="380"/>
      <point x="634" y="499" type="curve"/>
      <point x="447" y="499"/>
      <point x="259" y="499"/>
      <point x="72" y="499" type="curve"/>
      <point x="72" y="380"/>
      <point x="72" y="499"/>
    </contour>
  </outline>
</glyph>
<glyph name="F" format="1">
  <advance width="593"/>
  <unicode hex="0046"/>
  <outline>
    <contour>
      <point x="210" y="0" type="curve"/>
      <point x="259" y="0"/>
      <point x="210" y="0"/>
      <point x="355" y="0" type="curve"/>
      <point x="355" y="112"/>
      <point x="355" y="0"/>
      <point x="355" y="112" type="curve"/>
      <point x="210" y="112"/>
      <point x="355" y="112"/>
      <point x="210" y="112" type="curve"/>
      <point x="210" y="0"/>
      <point x="210" y="112"/>
    </contour>
    <contour>
      <point x="210" y="722" type="curve"/>
      <point x="163" y="722"/>
      <point x="114" y="722"/>
      <point x="66" y="722" type="curve"/>
      <point x="66" y="610"/>
      <point x="66" y="722"/>
      <point x="66" y="610" type="curve"/>
      <point x="210" y="610"/>
      <point x="66" y="610"/>
      <point x="210" y="610" type="curve"/>
      <point x="210" y="722"/>
      <point x="210" y="610"/>
    </contour>
    <contour>
      <point x="210" y="112" type="curve"/>
      <point x="66" y="112"/>
      <point x="210" y="112"/>
      <point x="66" y="112" type="curve"/>
      <point x="66" y="0"/>
      <point x="66" y="112"/>
      <point x="66" y="0" type="curve"/>
      <point x="114" y="0"/>
      <point x="163" y="0"/>
      <point x="210" y="0" type="curve"/>
      <point x="210" y="112"/>
      <point x="210" y="0"/>
    </contour>
    <contour>
      <point x="453" y="666" type="curve"/>
      <point x="453" y="546"/>
      <point x="453" y="666"/>
      <point x="453" y="546" type="curve"/>
      <point x="568" y="546"/>
      <point x="453" y="546"/>
      <point x="568" y="546" type="curve"/>
      <point x="568" y="666"/>
      <point x="568" y="546"/>
      <point x="568" y="666" type="curve"/>
      <point x="453" y="666"/>
      <point x="568" y="666"/>
    </contour>
    <contour>
      <point x="214" y="316" type="curve"/>
      <point x="310" y="316"/>
      <point x="406" y="316"/>
      <point x="503" y="316" type="curve"/>
      <point x="503" y="429"/>
      <point x="503" y="316"/>
      <point x="503" y="429" type="curve"/>
      <point x="406" y="429"/>
      <point x="310" y="429"/>
      <point x="214" y="429" type="curve"/>
      <point x="214" y="316"/>
      <point x="214" y="429"/>
    </contour>
    <contour>
      <point x="285" y="0" type="curve"/>
      <point x="285" y="722" type="line"/>
      <point x="137" y="722"/>
      <point x="285" y="722"/>
      <point x="137" y="722" type="curve"/>
      <point x="137" y="481"/>
      <point x="137" y="241"/>
      <point x="137" y="0" type="curve"/>
      <point x="285" y="0"/>
      <point x="137" y="0"/>
    </contour>
    <contour>
      <point x="201" y="610" type="curve"/>
      <point x="323" y="610"/>
      <point x="445" y="610"/>
      <point x="568" y="610" type="curve"/>
      <point x="568" y="722"/>
      <point x="568" y="610"/>
      <point x="568" y="722" type="curve"/>
      <point x="445" y="722"/>
      <point x="323" y="722"/>
      <point x="201" y="722" type="curve"/>
      <point x="201" y="610"/>
      <point x="201" y="722"/>
    </contour>
  </outline>
</glyph>
<glyph name="G" format="1">
  <advance width="764"/>
  <unicode hex="0047"/>
  <outline>
    <contour>
      <point x="405" y="780" type="move" name="top"/>
    </contour>
    <contour>
      <point x="459" y="4" type="move" name="bottom"/>
    </contour>
    <contour>
      <point x="573" y="645" type="curve"/>
      <point x="573" y="511"/>
      <point x="573" y="635"/>
      <point x="573" y="500" type="curve"/>
      <point x="687" y="500"/>
      <point x="573" y="500"/>
      <point x="687" y="500" type="curve"/>
      <point x="687" y="635"/>
      <point x="687" y="511"/>
      <point x="687" y="645" type="curve"/>
      <point x="573" y="645"/>
      <point x="687" y="645"/>
    </contour>
    <contour>
      <point x="663" y="371" type="curve"/>
      <point x="598" y="371"/>
      <point x="532" y="371"/>
      <point x="466" y="371" type="curve"/>
      <point x="466" y="259"/>
      <point x="466" y="371"/>
      <point x="466" y="259" type="curve"/>
      <point x="532" y="259"/>
      <point x="598" y="259"/>
      <point x="663" y="259" type="curve"/>
      <point x="663" y="371"/>
      <point x="663" y="259"/>
    </contour>
    <contour>
      <point x="702" y="79" type="curve"/>
      <point x="702" y="176"/>
      <point x="702" y="274"/>
      <point x="702" y="371" type="curve"/>
      <point x="568" y="371"/>
      <point x="702" y="371"/>
      <point x="568" y="371" type="curve"/>
      <point x="568" y="274"/>
      <point x="568" y="176"/>
      <point x="568" y="79" type="curve"/>
      <point x="702" y="79"/>
      <point x="568" y="79"/>
    </contour>
    <contour>
      <point x="687" y="645" type="curve"/>
      <point x="598" y="703"/>
      <point x="514" y="727"/>
      <point x="408" y="727" type="curve"/>
      <point x="181" y="727"/>
      <point x="50" y="591"/>
      <point x="50" y="360" type="curve"/>
      <point x="50" y="127"/>
      <point x="188" y="-5"/>
      <point x="418" y="-5" type="curve"/>
      <point x="531" y="-5"/>
      <point x="603" y="24"/>
      <point x="702" y="79" type="curve"/>
      <point x="628" y="163"/>
      <point x="702" y="79"/>
      <point x="628" y="163" type="curve"/>
      <point x="557" y="124"/>
      <point x="500" y="113"/>
      <point x="418" y="113" type="curve"/>
      <point x="268" y="113"/>
      <point x="198" y="213"/>
      <point x="198" y="371" type="curve"/>
      <point x="198" y="517"/>
      <point x="268" y="610"/>
      <point x="408" y="610" type="curve"/>
      <point x="486" y="610"/>
      <point x="547" y="591"/>
      <point x="613" y="550" type="curve"/>
      <point x="687" y="645"/>
      <point x="613" y="550"/>
    </contour>
  </outline>
</glyph>
<glyph name="H" format="1">
  <advance width="815"/>
  <unicode hex="0048"/>
  <outline>
    <contour>
      <point x="631" y="610" type="curve"/>
      <point x="783" y="610"/>
      <point x="623" y="610"/>
      <point x="775" y="610" type="curve"/>
      <point x="775" y="722"/>
      <point x="775" y="610"/>
      <point x="775" y="722" type="curve"/>
      <point x="724" y="722"/>
      <point x="681" y="722"/>
      <point x="631" y="722" type="curve"/>
      <point x="631" y="610"/>
      <point x="631" y="722"/>
    </contour>
    <contour>
      <point x="631" y="0" type="curve"/>
      <point x="681" y="0"/>
      <point x="724" y="0"/>
      <point x="775" y="0" type="curve"/>
      <point x="775" y="112"/>
      <point x="775" y="0"/>
      <point x="775" y="112" type="curve"/>
      <point x="623" y="112"/>
      <point x="783" y="112"/>
      <point x="631" y="112" type="curve"/>
      <point x="631" y="0"/>
      <point x="631" y="112"/>
    </contour>
    <contour>
      <point x="631" y="112" type="curve"/>
      <point x="479" y="112"/>
      <point x="639" y="112"/>
      <point x="487" y="112" type="curve"/>
      <point x="487" y="0"/>
      <point x="487" y="112"/>
      <point x="487" y="0" type="curve"/>
      <point x="537" y="0"/>
      <point x="580" y="0"/>
      <point x="631" y="0" type="curve"/>
      <point x="631" y="112"/>
      <point x="631" y="0"/>
    </contour>
    <contour>
      <point x="631" y="722" type="curve"/>
      <point x="580" y="722"/>
      <point x="537" y="722"/>
      <point x="487" y="722" type="curve"/>
      <point x="487" y="610"/>
      <point x="487" y="722"/>
      <point x="487" y="610" type="curve"/>
      <point x="639" y="610"/>
      <point x="479" y="610"/>
      <point x="631" y="610" type="curve"/>
      <point x="631" y="722"/>
      <point x="631" y="610"/>
    </contour>
    <contour>
      <point x="185" y="610" type="curve"/>
      <point x="337" y="610"/>
      <point x="177" y="610"/>
      <point x="329" y="610" type="curve"/>
      <point x="329" y="722"/>
      <point x="329" y="610"/>
      <point x="329" y="722" type="curve"/>
      <point x="279" y="722"/>
      <point x="236" y="722"/>
      <point x="185" y="722" type="curve"/>
      <point x="185" y="610"/>
      <point x="185" y="722"/>
    </contour>
    <contour>
      <point x="185" y="722" type="curve"/>
      <point x="135" y="722"/>
      <point x="91" y="722"/>
      <point x="40" y="722" type="curve"/>
      <point x="40" y="610"/>
      <point x="40" y="722"/>
      <point x="40" y="610" type="curve"/>
      <point x="192" y="610"/>
      <point x="32" y="610"/>
      <point x="185" y="610" type="curve"/>
      <point x="185" y="722"/>
      <point x="185" y="610"/>
    </contour>
    <contour>
      <point x="185" y="0" type="curve"/>
      <point x="236" y="0"/>
      <point x="177" y="0"/>
      <point x="329" y="0" type="curve"/>
      <point x="329" y="112"/>
      <point x="329" y="0"/>
      <point x="329" y="112" type="curve"/>
      <point x="177" y="112"/>
      <point x="337" y="112"/>
      <point x="185" y="112" type="curve"/>
      <point x="185" y="0"/>
      <point x="185" y="112"/>
    </contour>
    <contour>
      <point x="185" y="112" type="curve"/>
      <point x="32" y="112"/>
      <point x="192" y="112"/>
      <point x="40" y="112" type="curve"/>
      <point x="40" y="0"/>
      <point x="40" y="112"/>
      <point x="40" y="0" type="curve"/>
      <point x="91" y="0"/>
      <point x="135" y="0"/>
      <point x="185" y="0" type="curve"/>
      <point x="185" y="112"/>
      <point x="185" y="0"/>
    </contour>
    <contour>
      <point x="259" y="0" type="curve"/>
      <point x="259" y="722" type="line"/>
      <point x="111" y="722"/>
      <point x="259" y="722"/>
      <point x="111" y="722" type="curve"/>
      <point x="111" y="481"/>
      <point x="111" y="241"/>
      <point x="111" y="0" type="curve"/>
      <point x="259" y="0"/>
      <point x="111" y="0"/>
    </contour>
    <contour>
      <point x="628" y="419" type="curve"/>
      <point x="480" y="419"/>
      <point x="332" y="419"/>
      <point x="185" y="419" type="curve"/>
      <point x="185" y="306"/>
      <point x="185" y="419"/>
      <point x="185" y="306" type="curve"/>
      <point x="332" y="306"/>
      <point x="480" y="306"/>
      <point x="628" y="306" type="curve"/>
      <point x="628" y="419"/>
      <point x="628" y="306"/>
    </contour>
    <contour>
      <point x="704" y="48" type="curve"/>
      <point x="704" y="256"/>
      <point x="704" y="466"/>
      <point x="704" y="674" type="curve"/>
      <point x="556" y="674"/>
      <point x="704" y="674"/>
      <point x="556" y="674" type="curve"/>
      <point x="556" y="48" type="line"/>
      <point x="704" y="48"/>
      <point x="556" y="48"/>
    </contour>
  </outline>
</glyph>
<glyph name="M" format="1">
  <advance width="923"/>
  <unicode hex="004D"/>
  <outline>
    <contour>
      <point x="767" y="0" type="curve"/>
      <point x="816" y="0"/>
      <point x="857" y="0"/>
      <point x="905" y="0" type="curve"/>
      <point x="905" y="112"/>
      <point x="905" y="0"/>
      <point x="905" y="112" type="curve"/>
      <point x="759" y="112"/>
      <point x="912" y="112"/>
      <point x="767" y="112" type="curve"/>
      <point x="767" y="0"/>
      <point x="767" y="112"/>
    </contour>
    <contour>
      <point x="767" y="112" type="curve"/>
      <point x="630" y="112"/>
      <point x="775" y="112"/>
      <point x="638" y="112" type="curve"/>
      <point x="638" y="0"/>
      <point x="638" y="112"/>
      <point x="638" y="0" type="curve"/>
      <point x="684" y="0"/>
      <point x="722" y="0"/>
      <point x="767" y="0" type="curve"/>
      <point x="767" y="112"/>
      <point x="767" y="0"/>
    </contour>
    <contour>
      <point x="157" y="112" type="curve"/>
      <point x="11" y="112"/>
      <point x="165" y="112"/>
      <point x="19" y="112" type="curve"/>
      <point x="19" y="0"/>
      <point x="19" y="112"/>
      <point x="19" y="0" type="curve"/>
      <point x="68" y="0"/>
      <point x="109" y="0"/>
      <point x="157" y="0" type="curve"/>
      <point x="157" y="112"/>
      <point x="157" y="0"/>
    </contour>
    <contour>
      <point x="206" y="722" type="curve"/>
      <point x="158" y="722"/>
      <point x="117" y="722"/>
      <point x="69" y="722" type="curve"/>
      <point x="69" y="610"/>
      <point x="69" y="722"/>
      <point x="69" y="610" type="curve"/>
      <point x="214" y="610"/>
      <point x="61" y="610"/>
      <point x="206" y="610" type="curve"/>
      <point x="206" y="722"/>
      <point x="206" y="610"/>
    </contour>
    <contour>
      <point x="716" y="610" type="curve"/>
      <point x="861" y="610"/>
      <point x="708" y="610"/>
      <point x="853" y="610" type="curve"/>
      <point x="853" y="722"/>
      <point x="853" y="610"/>
      <point x="853" y="722" type="curve"/>
      <point x="805" y="722"/>
      <point x="764" y="722"/>
      <point x="716" y="722" type="curve"/>
      <point x="716" y="610"/>
      <point x="716" y="722"/>
    </contour>
    <contour>
      <point x="157" y="0" type="curve"/>
      <point x="202" y="0"/>
      <point x="149" y="0"/>
      <point x="286" y="0" type="curve"/>
      <point x="286" y="112"/>
      <point x="286" y="0"/>
      <point x="286" y="112" type="curve"/>
      <point x="149" y="112"/>
      <point x="294" y="112"/>
      <point x="157" y="112" type="curve"/>
      <point x="157" y="0"/>
      <point x="157" y="112"/>
    </contour>
    <contour>
      <point x="850" y="0" type="curve"/>
      <point x="831" y="241"/>
      <point x="807" y="481"/>
      <point x="789" y="722" type="curve"/>
      <point x="654" y="722"/>
      <point x="789" y="722"/>
      <point x="654" y="722" type="curve"/>
      <point x="672" y="481"/>
      <point x="684" y="241"/>
      <point x="702" y="0" type="curve"/>
      <point x="850" y="0"/>
      <point x="702" y="0"/>
    </contour>
    <contour>
      <point x="219" y="0" type="curve"/>
      <point x="235" y="241"/>
      <point x="252" y="481"/>
      <point x="269" y="722" type="curve"/>
      <point x="139" y="722"/>
      <point x="269" y="722"/>
      <point x="139" y="722" type="curve"/>
      <point x="121" y="481"/>
      <point x="104" y="241"/>
      <point x="86" y="0" type="curve"/>
      <point x="219" y="0"/>
      <point x="86" y="0"/>
    </contour>
    <contour>
      <point x="523" y="0" type="curve"/>
      <point x="440" y="241"/>
      <point x="355" y="481"/>
      <point x="271" y="722" type="curve"/>
      <point x="141" y="722"/>
      <point x="271" y="722"/>
      <point x="141" y="722" type="curve"/>
      <point x="225" y="481"/>
      <point x="308" y="241"/>
      <point x="392" y="0" type="curve"/>
      <point x="523" y="0"/>
      <point x="392" y="0"/>
    </contour>
    <contour>
      <point x="532" y="0" type="curve"/>
      <point x="614" y="241"/>
      <point x="696" y="481"/>
      <point x="778" y="722" type="curve"/>
      <point x="648" y="722"/>
      <point x="778" y="722"/>
      <point x="648" y="722" type="curve"/>
      <point x="565" y="481"/>
      <point x="482" y="241"/>
      <point x="399" y="0" type="curve"/>
      <point x="532" y="0"/>
      <point x="399" y="0"/>
    </contour>
  </outline>
</glyph>
<glyph name="Q" format="1">
  <advance width="748"/>
  <unicode hex="0051"/>
  <outline>
    <contour>
      <point x="324" y="27" type="curve"/>
      <point x="425" y="-149"/>
      <point x="548" y="-210"/>
      <point x="740" y="-210" type="curve"/>
      <point x="740" y="-93"/>
      <point x="740" y="-210"/>
      <point x="740" y="-93" type="curve"/>
      <point x="605" y="-93"/>
      <point x="525" y="-42"/>
      <point x="451" y="83" type="curve"/>
      <point x="324" y="27"/>
      <point x="451" y="83"/>
    </contour>
    <contour>
      <point x="197" y="360" type="curve"/>
      <point x="197" y="500"/>
      <point x="249" y="604"/>
      <point x="377" y="604" type="curve"/>
      <point x="507" y="604"/>
      <point x="563" y="502"/>
      <point x="563" y="360" type="curve"/>
      <point x="563" y="219"/>
      <point x="514" y="112"/>
      <point x="385" y="112" type="curve"/>
      <point x="253" y="113"/>
      <point x="197" y="217"/>
      <point x="197" y="360" type="curve"/>
      <point x="49" y="360"/>
      <point x="197" y="360"/>
      <point x="49" y="360" type="curve"/>
      <point x="49" y="142"/>
      <point x="170" y="-5"/>
      <point x="378" y="-5" type="curve"/>
      <point x="590" y="-5"/>
      <point x="711" y="145"/>
      <point x="711" y="366" type="curve"/>
      <point x="711" y="583"/>
      <point x="595" y="732"/>
      <point x="387" y="732" type="curve"/>
      <point x="173" y="732"/>
      <point x="49" y="581"/>
      <point x="49" y="360" type="curve"/>
      <point x="197" y="360"/>
      <point x="49" y="360"/>
    </contour>
  </outline>
</glyph>
<glyph name="R" format="1">
  <advance width="722"/>
  <unicode hex="0052"/>
  <outline>
    <contour>
      <point x="335" y="780" type="move" name="top"/>
    </contour>
    <contour>
      <point x="454" y="0" type="move" name="bottom"/>
    </contour>
    <contour>
      <point x="594" y="0" type="curve"/>
      <point x="631" y="0"/>
      <point x="669" y="0"/>
      <point x="708" y="0" type="curve"/>
      <point x="708" y="112"/>
      <point x="708" y="0"/>
      <point x="708" y="112" type="curve"/>
      <point x="594" y="112"/>
      <point x="708" y="112"/>
      <point x="594" y="112" type="curve"/>
      <point x="594" y="0"/>
      <point x="594" y="112"/>
    </contour>
    <contour>
      <point x="209" y="722" type="curve"/>
      <point x="160" y="722"/>
      <point x="113" y="722"/>
      <point x="66" y="722" type="curve"/>
      <point x="66" y="610"/>
      <point x="66" y="722"/>
      <point x="66" y="610" type="curve"/>
      <point x="209" y="610"/>
      <point x="66" y="610"/>
      <point x="209" y="610" type="curve"/>
      <point x="209" y="722"/>
      <point x="209" y="610"/>
    </contour>
    <contour>
      <point x="209" y="112" type="curve"/>
      <point x="66" y="112"/>
      <point x="209" y="112"/>
      <point x="66" y="112" type="curve"/>
      <point x="66" y="0"/>
      <point x="66" y="112"/>
      <point x="66" y="0" type="curve"/>
      <point x="113" y="0"/>
      <point x="160" y="0"/>
      <point x="209" y="0" type="curve"/>
      <point x="209" y="112"/>
      <point x="209" y="0"/>
    </contour>
    <contour>
      <point x="209" y="0" type="curve"/>
      <point x="255" y="0"/>
      <point x="209" y="0"/>
      <point x="349" y="0" type="curve"/>
      <point x="349" y="112"/>
      <point x="349" y="0"/>
      <point x="349" y="112" type="curve"/>
      <point x="209" y="112"/>
      <point x="349" y="112"/>
      <point x="209" y="112" type="curve"/>
      <point x="209" y="0"/>
      <point x="209" y="112"/>
    </contour>
    <contour>
      <point x="314" y="354" type="curve"/>
      <point x="391" y="236"/>
      <point x="467" y="118"/>
      <point x="544" y="0" type="curve"/>
      <point x="695" y="0"/>
      <point x="544" y="9"/>
      <point x="695" y="9" type="curve"/>
      <point x="622" y="124"/>
      <point x="549" y="239"/>
      <point x="475" y="354" type="curve"/>
      <point x="314" y="354"/>
      <point x="475" y="354"/>
    </contour>
    <contour>
      <point x="283" y="0" type="curve"/>
      <point x="283" y="241"/>
      <point x="283" y="481"/>
      <point x="283" y="722" type="curve"/>
      <point x="136" y="722"/>
      <point x="283" y="722"/>
      <point x="136" y="722" type="curve"/>
      <point x="136" y="481"/>
      <point x="136" y="241"/>
      <point x="136" y="0" type="curve"/>
      <point x="283" y="0"/>
      <point x="136" y="0"/>
    </contour>
    <contour>
      <point x="211" y="296" type="curve"/>
      <point x="264" y="296"/>
      <point x="318" y="296"/>
      <point x="370" y="296" type="curve"/>
      <point x="522" y="296"/>
      <point x="623" y="367"/>
      <point x="623" y="519" type="curve"/>
      <point x="623" y="656"/>
      <point x="526" y="722"/>
      <point x="382" y="722" type="curve"/>
      <point x="325" y="722"/>
      <point x="269" y="722"/>
      <point x="211" y="722" type="curve"/>
      <point x="211" y="610"/>
      <point x="211" y="722"/>
      <point x="211" y="610" type="curve"/>
      <point x="259" y="610"/>
      <point x="308" y="610"/>
      <point x="355" y="610" type="curve"/>
      <point x="429" y="610"/>
      <point x="475" y="577"/>
      <point x="475" y="507" type="curve"/>
      <point x="475" y="443"/>
      <point x="438" y="409"/>
      <point x="372" y="409" type="curve"/>
      <point x="318" y="409"/>
      <point x="264" y="409"/>
      <point x="211" y="409" type="curve"/>
      <point x="211" y="296"/>
      <point x="211" y="409"/>
    </contour>
  </outline>
</glyph>
<glyph name="V" format="1">
  <advance width="738"/>
  <unicode hex="0056"/>
  <outline>
    <contour>
      <point x="595" y="722" type="curve"/>
      <point x="545" y="722"/>
      <point x="495" y="722"/>
      <point x="445" y="722" type="curve"/>
      <point x="445" y="610"/>
      <point x="445" y="722"/>
      <point x="445" y="610" type="curve"/>
      <point x="595" y="610"/>
      <point x="445" y="610"/>
      <point x="595" y="610" type="curve"/>
      <point x="595" y="722"/>
      <point x="595" y="610"/>
    </contour>
    <contour>
      <point x="128" y="722" type="curve"/>
      <point x="87" y="722"/>
      <point x="45" y="722"/>
      <point x="3" y="722" type="curve"/>
      <point x="3" y="610"/>
      <point x="3" y="722"/>
      <point x="3" y="610" type="curve"/>
      <point x="128" y="610"/>
      <point x="3" y="610"/>
      <point x="128" y="610" type="curve"/>
      <point x="128" y="722"/>
      <point x="128" y="610"/>
    </contour>
    <contour>
      <point x="608" y="610" type="curve"/>
      <point x="732" y="610"/>
      <point x="608" y="610"/>
      <point x="732" y="610" type="curve"/>
      <point x="732" y="722"/>
      <point x="732" y="610"/>
      <point x="732" y="722" type="curve"/>
      <point x="692" y="722"/>
      <point x="649" y="722"/>
      <point x="608" y="722" type="curve"/>
      <point x="608" y="610"/>
      <point x="608" y="722"/>
    </contour>
    <contour>
      <point x="141" y="610" type="curve"/>
      <point x="291" y="610"/>
      <point x="141" y="610"/>
      <point x="291" y="610" type="curve"/>
      <point x="291" y="722"/>
      <point x="291" y="610"/>
      <point x="291" y="722" type="curve"/>
      <point x="241" y="722"/>
      <point x="191" y="722"/>
      <point x="141" y="722" type="curve"/>
      <point x="141" y="610"/>
      <point x="141" y="722"/>
    </contour>
    <contour>
      <point x="547" y="722" type="curve"/>
      <point x="466" y="480"/>
      <point x="388" y="242"/>
      <point x="309" y="0" type="curve"/>
      <point x="460" y="0"/>
      <point x="298" y="0"/>
      <point x="448" y="0" type="curve"/>
      <point x="531" y="241"/>
      <point x="613" y="481"/>
      <point x="697" y="722" type="curve"/>
      <point x="547" y="722"/>
      <point x="697" y="722"/>
    </contour>
    <contour>
      <point x="40" y="722" type="curve"/>
      <point x="123" y="481"/>
      <point x="208" y="241"/>
      <point x="292" y="0" type="curve"/>
      <point x="442" y="0"/>
      <point x="282" y="0"/>
      <point x="433" y="0" type="curve"/>
      <point x="353" y="242"/>
      <point x="273" y="482"/>
      <point x="190" y="722" type="curve"/>
      <point x="40" y="722"/>
      <point x="190" y="722"/>
    </contour>
  </outline>
</glyph>
<glyph name="W" format="1">
  <advance width="927"/>
  <unicode hex="0057"/>
  <outline>
    <contour>
      <point x="149" y="610" type="curve"/>
      <point x="268" y="610"/>
      <point x="149" y="610"/>
      <point x="268" y="610" type="curve"/>
      <point x="268" y="722"/>
      <point x="268" y="610"/>
      <point x="268" y="722" type="curve"/>
      <point x="229" y="722"/>
      <point x="189" y="722"/>
      <point x="149" y="722" type="curve"/>
      <point x="149" y="610"/>
      <point x="149" y="722"/>
    </contour>
    <contour>
      <point x="141" y="722" type="curve"/>
      <point x="98" y="722"/>
      <point x="55" y="722"/>
      <point x="12" y="722" type="curve"/>
      <point x="12" y="610"/>
      <point x="12" y="722"/>
      <point x="12" y="610" type="curve"/>
      <point x="141" y="610"/>
      <point x="12" y="610"/>
      <point x="141" y="610" type="curve"/>
      <point x="141" y="722"/>
      <point x="141" y="610"/>
    </contour>
    <contour>
      <point x="786" y="722" type="curve"/>
      <point x="746" y="722"/>
      <point x="706" y="722"/>
      <point x="667" y="722" type="curve"/>
      <point x="667" y="610"/>
      <point x="667" y="722"/>
      <point x="667" y="610" type="curve"/>
      <point x="786" y="610"/>
      <point x="667" y="610"/>
      <point x="786" y="610" type="curve"/>
      <point x="786" y="722"/>
      <point x="786" y="610"/>
    </contour>
    <contour>
      <point x="790" y="610" type="curve"/>
      <point x="919" y="610"/>
      <point x="790" y="610"/>
      <point x="919" y="610" type="curve"/>
      <point x="919" y="722"/>
      <point x="919" y="610"/>
      <point x="919" y="722" type="curve"/>
      <point x="877" y="722"/>
      <point x="833" y="722"/>
      <point x="790" y="722" type="curve"/>
      <point x="790" y="610"/>
      <point x="790" y="722"/>
    </contour>
    <contour>
      <point x="353" y="0" type="curve"/>
      <point x="413" y="241"/>
      <point x="472" y="481"/>
      <point x="532" y="722" type="curve"/>
      <point x="401" y="722"/>
      <point x="533" y="722"/>
      <point x="402" y="722" type="curve"/>
      <point x="347" y="481"/>
      <point x="294" y="242"/>
      <point x="238" y="0" type="curve"/>
      <point x="364" y="0"/>
      <point x="227" y="0"/>
    </contour>
    <contour>
      <point x="411" y="722" type="curve"/>
      <point x="465" y="481"/>
      <point x="516" y="241"/>
      <point x="571" y="0" type="curve"/>
      <point x="697" y="0"/>
      <point x="556" y="0"/>
      <point x="683" y="0" type="curve"/>
      <point x="634" y="244"/>
      <point x="589" y="481"/>
      <point x="539" y="722" type="curve"/>
      <point x="409" y="722"/>
      <point x="541" y="722"/>
    </contour>
    <contour>
      <point x="58" y="722" type="curve"/>
      <point x="113" y="481"/>
      <point x="167" y="241"/>
      <point x="221" y="0" type="curve"/>
      <point x="348" y="0"/>
      <point x="219" y="0"/>
      <point x="346" y="0" type="curve"/>
      <point x="293" y="241"/>
      <point x="243" y="481"/>
      <point x="191" y="722" type="curve"/>
      <point x="58" y="722"/>
      <point x="191" y="722"/>
    </contour>
    <contour>
      <point x="740" y="722" type="curve"/>
      <point x="686" y="481"/>
      <point x="634" y="241"/>
      <point x="580" y="0" type="curve"/>
      <point x="707" y="0"/>
      <point x="576" y="0"/>
      <point x="703" y="0" type="curve"/>
      <point x="759" y="241"/>
      <point x="816" y="481"/>
      <point x="873" y="722" type="curve"/>
      <point x="740" y="722"/>
      <point x="873" y="722"/>
    </contour>
  </outline>
</glyph>
<glyph name="bracketleft" format="1">
  <advance width="323"/>
  <unicode hex="005B"/>
  <outline>
    <contour>
      <point x="276" y="769" type="curve"/>
      <point x="230" y="769"/>
      <point x="185" y="769"/>
      <point x="140" y="769" type="curve"/>
      <point x="122" y="769"/>
      <point x="88" y="769"/>
      <point x="72" y="769" type="curve"/>
      <point x="72" y="752"/>
      <point x="72" y="730"/>
      <point x="72" y="713" type="curve"/>
      <point x="72" y="456"/>
      <point x="72" y="199"/>
      <point x="72" y="-58" type="curve"/>
      <point x="72" y="-76"/>
      <point x="72" y="-91"/>
      <point x="72" y="-113" type="curve"/>
      <point x="87" y="-113"/>
      <point x="120" y="-113"/>
      <point x="139" y="-113" type="curve"/>
      <point x="184" y="-113"/>
      <point x="230" y="-113"/>
      <point x="276" y="-113" type="curve"/>
      <point x="276" y="11"/>
      <point x="276" y="-113"/>
      <point x="276" y="11" type="curve"/>
      <point x="230" y="11"/>
      <point x="184" y="11"/>
      <point x="139" y="11" type="curve"/>
      <point x="219" y="11"/>
      <point x="139" y="11"/>
      <point x="219" y="11" type="curve"/>
      <point x="219" y="-58"/>
      <point x="219" y="11"/>
      <point x="219" y="-58" type="curve"/>
      <point x="219" y="199"/>
      <point x="219" y="456"/>
      <point x="219" y="713" type="curve"/>
      <point x="219" y="646"/>
      <point x="219" y="713"/>
      <point x="219" y="646" type="curve"/>
      <point x="140" y="646"/>
      <point x="219" y="646"/>
      <point x="140" y="646" type="curve"/>
      <point x="185" y="646"/>
      <point x="230" y="646"/>
      <point x="276" y="646" type="curve"/>
      <point x="276" y="769"/>
      <point x="276" y="646"/>
    </contour>
  </outline>
</glyph>
<glyph name="backslash" format="1">
  <advance width="556"/>
  <unicode hex="005C"/>
  <outline>
    <contour>
      <point x="531" y="-68" type="curve"/>
      <point x="414" y="236"/>
      <point x="297" y="540"/>
      <point x="180" y="844" type="curve"/>
      <point x="26" y="844"/>
      <point x="180" y="844"/>
      <point x="26" y="844" type="curve"/>
      <point x="143" y="540"/>
      <point x="260" y="236"/>
      <point x="377" y="-68" type="curve"/>
      <point x="531" y="-68"/>
      <point x="377" y="-68"/>
    </contour>
  </outline>
</glyph>
<glyph name="bracketright" format="1">
  <advance width="324"/>
  <unicode hex="005D"/>
  <outline>
    <contour>
      <point x="48" y="646" type="curve"/>
      <point x="93" y="646"/>
      <point x="138" y="646"/>
      <point x="184" y="646" type="curve"/>
      <point x="171" y="657"/>
      <point x="151" y="660"/>
      <point x="138" y="672" type="curve"/>
      <point x="126" y="684"/>
      <point x="117" y="700"/>
      <point x="104" y="713" type="curve"/>
      <point x="104" y="456"/>
      <point x="104" y="199"/>
      <point x="104" y="-58" type="curve"/>
      <point x="117" y="-44"/>
      <point x="129" y="-31"/>
      <point x="142" y="-18" type="curve"/>
      <point x="155" y="-6"/>
      <point x="173" y="-1"/>
      <point x="185" y="11" type="curve"/>
      <point x="139" y="11"/>
      <point x="93" y="11"/>
      <point x="48" y="11" type="curve"/>
      <point x="47" y="-113"/>
      <point x="48" y="11"/>
      <point x="47" y="-113" type="curve"/>
      <point x="93" y="-113"/>
      <point x="139" y="-113"/>
      <point x="185" y="-113" type="curve"/>
      <point x="252" y="-113"/>
      <point x="185" y="-113"/>
      <point x="252" y="-113" type="curve"/>
      <point x="252" y="-58"/>
      <point x="252" y="-113"/>
      <point x="252" y="-58" type="curve"/>
      <point x="252" y="199"/>
      <point x="252" y="456"/>
      <point x="252" y="713" type="curve"/>
      <point x="252" y="769"/>
      <point x="252" y="713"/>
      <point x="252" y="769" type="curve"/>
      <point x="184" y="769"/>
      <point x="252" y="769"/>
      <point x="184" y="769" type="curve"/>
      <point x="138" y="769"/>
      <point x="93" y="769"/>
      <point x="48" y="769" type="curve"/>
      <point x="48" y="646"/>
      <point x="48" y="769"/>
    </contour>
  </outline>
</glyph>
<glyph name="f" format="1">
  <advance width="461"/>
  <unicode hex="0066"/>
  <outline>
    <contour>
      <point x="322" y="768" type="curve"/>
      <point x="322" y="645"/>
      <point x="322" y="768"/>
      <point x="322" y="645" type="curve"/>
      <point x="436" y="645"/>
      <point x="322" y="645"/>
      <point x="436" y="645" type="curve"/>
      <point x="436" y="768"/>
      <point x="436" y="645"/>
      <point x="436" y="768" type="curve"/>
      <point x="322" y="768"/>
      <point x="436" y="768"/>
    </contour>
    <contour>
      <point x="185" y="-1" type="curve"/>
      <point x="235" y="-1"/>
      <point x="277" y="0"/>
      <point x="328" y="0" type="curve"/>
      <point x="328" y="113"/>
      <point x="328" y="0"/>
      <point x="328" y="113" type="curve"/>
      <point x="177" y="112"/>
      <point x="336" y="113"/>
      <point x="185" y="112" type="curve"/>
      <point x="185" y="-1"/>
      <point x="185" y="112"/>
    </contour>
    <contour>
      <point x="185" y="112" type="curve"/>
      <point x="34" y="113"/>
      <point x="193" y="112"/>
      <point x="42" y="113" type="curve"/>
      <point x="42" y="0"/>
      <point x="42" y="113"/>
      <point x="42" y="0" type="curve"/>
      <point x="93" y="0"/>
      <point x="135" y="-1"/>
      <point x="185" y="-1" type="curve"/>
      <point x="185" y="112"/>
      <point x="185" y="-1"/>
    </contour>
    <contour>
      <point x="25" y="421" type="curve"/>
      <point x="394" y="421" type="line"/>
      <point x="394" y="533"/>
      <point x="394" y="421"/>
      <point x="394" y="533" type="curve"/>
      <point x="25" y="533" type="line"/>
      <point x="25" y="421"/>
      <point x="25" y="533"/>
    </contour>
    <contour>
      <point x="259" y="0" type="curve"/>
      <point x="259" y="603" type="line"/>
      <point x="258" y="654"/>
      <point x="268" y="696"/>
      <point x="315" y="696" type="curve"/>
      <point x="337" y="696"/>
      <point x="357" y="688"/>
      <point x="377" y="678" type="curve"/>
      <point x="436" y="768"/>
      <point x="377" y="678"/>
      <point x="436" y="768" type="curve"/>
      <point x="400" y="788"/>
      <point x="358" y="804"/>
      <point x="315" y="804" type="curve"/>
      <point x="189" y="804"/>
      <point x="110" y="727"/>
      <point x="111" y="603" type="curve"/>
      <point x="111" y="0" type="line"/>
      <point x="259" y="0"/>
      <point x="111" y="0"/>
    </contour>
  </outline>
</glyph>
<glyph name="p" format="1">
  <advance width="639"/>
  <unicode hex="0070"/>
  <outline>
    <contour>
      <point x="150" y="-187" type="curve"/>
      <point x="-2" y="-187"/>
      <point x="158" y="-187"/>
      <point x="6" y="-187" type="curve"/>
      <point x="6" y="-300"/>
      <point x="6" y="-187"/>
      <point x="6" y="-300" type="curve"/>
      <point x="57" y="-300"/>
      <point x="99" y="-300"/>
      <point x="150" y="-300" type="curve"/>
      <point x="150" y="-187"/>
      <point x="150" y="-300"/>
    </contour>
    <contour>
      <point x="150" y="-300" type="curve"/>
      <point x="199" y="-300"/>
      <point x="238" y="-300"/>
      <point x="286" y="-300" type="curve"/>
      <point x="286" y="-187"/>
      <point x="286" y="-300"/>
      <point x="286" y="-187" type="curve"/>
      <point x="142" y="-187"/>
      <point x="294" y="-187"/>
      <point x="150" y="-187" type="curve"/>
      <point x="150" y="-300"/>
      <point x="150" y="-187"/>
    </contour>
    <contour>
      <point x="151" y="533" type="curve"/>
      <point x="101" y="533"/>
      <point x="58" y="533"/>
      <point x="8" y="533" type="curve"/>
      <point x="7" y="421"/>
      <point x="8" y="533"/>
      <point x="7" y="421" type="curve"/>
      <point x="159" y="421"/>
      <point x="-1" y="421"/>
      <point x="151" y="421" type="curve"/>
      <point x="151" y="533"/>
      <point x="151" y="421"/>
    </contour>
    <contour>
      <point x="188" y="292" type="curve"/>
      <point x="218" y="363"/>
      <point x="268" y="425"/>
      <point x="337" y="425" type="curve"/>
      <point x="427" y="425"/>
      <point x="453" y="352"/>
      <point x="453" y="262" type="curve"/>
      <point x="454" y="174"/>
      <point x="425" y="107"/>
      <point x="337" y="107" type="curve"/>
      <point x="279" y="107"/>
      <point x="232" y="131"/>
      <point x="191" y="172" type="curve"/>
      <point x="146" y="122"/>
      <point x="180" y="156"/>
      <point x="135" y="106" type="curve"/>
      <point x="196" y="35"/>
      <point x="268" y="-5"/>
      <point x="365" y="-5" type="curve"/>
      <point x="524" y="-5"/>
      <point x="601" y="111"/>
      <point x="600" y="268" type="curve"/>
      <point x="600" y="421"/>
      <point x="528" y="539"/>
      <point x="369" y="539" type="curve"/>
      <point x="267" y="539"/>
      <point x="193" y="469"/>
      <point x="143" y="380" type="curve"/>
      <point x="177" y="305"/>
      <point x="154" y="367"/>
    </contour>
    <contour>
      <point x="225" y="-300" type="curve"/>
      <point x="225" y="-22"/>
      <point x="225" y="255"/>
      <point x="225" y="533" type="curve"/>
      <point x="77" y="533"/>
      <point x="225" y="533"/>
      <point x="77" y="533" type="curve"/>
      <point x="77" y="255"/>
      <point x="77" y="-22"/>
      <point x="77" y="-300" type="curve"/>
      <point x="225" y="-300"/>
      <point x="77" y="-300"/>
    </contour>
  </outline>
</glyph>
<glyph name="t" format="1">
  <advance width="379"/>
  <unicode hex="0074"/>
  <outline>
    <contour>
      <point x="289" y="8" type="move" name="bottom"/>
    </contour>
    <contour>
      <point x="13" y="420" type="curve"/>
      <point x="350" y="420" type="line"/>
      <point x="350" y="533"/>
      <point x="350" y="420"/>
      <point x="350" y="533" type="curve"/>
      <point x="13" y="533" type="line"/>
      <point x="13" y="420"/>
      <point x="13" y="533"/>
    </contour>
    <contour>
      <point x="316" y="127" type="curve"/>
      <point x="298" y="116"/>
      <point x="285" y="112"/>
      <point x="266" y="112" type="curve"/>
      <point x="231" y="112"/>
      <point x="224" y="138"/>
      <point x="224" y="176" type="curve"/>
      <point x="224" y="684" type="line"/>
      <point x="119" y="618"/>
      <point x="182" y="661"/>
      <point x="77" y="595" type="curve"/>
      <point x="77" y="171" type="line"/>
      <point x="77" y="56"/>
      <point x="137" y="-6"/>
      <point x="246" y="-6" type="curve"/>
      <point x="296" y="-6"/>
      <point x="330" y="9"/>
      <point x="369" y="30" type="curve"/>
      <point x="316" y="127"/>
      <point x="369" y="30"/>
    </contour>
  </outline>
</glyph>
<glyph name="v" format="1">
  <advance width="631"/>
  <unicode hex="0076"/>
  <outline>
    <contour>
      <point x="135" y="533" type="curve"/>
      <point x="96" y="533"/>
      <point x="59" y="533"/>
      <point x="21" y="533" type="curve"/>
      <point x="21" y="421"/>
      <point x="21" y="533"/>
      <point x="21" y="421" type="curve"/>
      <point x="135" y="421"/>
      <point x="21" y="421"/>
      <point x="135" y="421" type="curve"/>
      <point x="135" y="533"/>
      <point x="135" y="421"/>
    </contour>
    <contour>
      <point x="135" y="421" type="curve"/>
      <point x="279" y="421"/>
      <point x="135" y="421"/>
      <point x="279" y="421" type="curve"/>
      <point x="279" y="533"/>
      <point x="279" y="421"/>
      <point x="279" y="533" type="curve"/>
      <point x="231" y="533"/>
      <point x="183" y="533"/>
      <point x="135" y="533" type="curve"/>
      <point x="135" y="421"/>
      <point x="135" y="533"/>
    </contour>
    <contour>
      <point x="505" y="533" type="curve"/>
      <point x="457" y="533"/>
      <point x="409" y="533"/>
      <point x="361" y="533" type="curve"/>
      <point x="361" y="421"/>
      <point x="361" y="533"/>
      <point x="361" y="421" type="curve"/>
      <point x="505" y="421"/>
      <point x="361" y="421"/>
      <point x="505" y="421" type="curve"/>
      <point x="505" y="533"/>
      <point x="505" y="421"/>
    </contour>
    <contour>
      <point x="505" y="421" type="curve"/>
      <point x="622" y="421"/>
      <point x="505" y="421"/>
      <point x="622" y="421" type="curve"/>
      <point x="622" y="533"/>
      <point x="622" y="421"/>
      <point x="622" y="533" type="curve"/>
      <point x="583" y="533"/>
      <point x="544" y="533"/>
      <point x="505" y="533" type="curve"/>
      <point x="505" y="421"/>
      <point x="505" y="533"/>
    </contour>
    <contour>
      <point x="45" y="533" type="curve"/>
      <point x="108" y="355"/>
      <point x="170" y="178"/>
      <point x="232" y="0" type="curve"/>
      <point x="372" y="0"/>
      <point x="232" y="0"/>
      <point x="372" y="0" type="curve"/>
      <point x="311" y="177"/>
      <point x="256" y="356"/>
      <point x="195" y="533" type="curve"/>
      <point x="45" y="533"/>
      <point x="195" y="533"/>
    </contour>
    <contour>
      <point x="446" y="533" type="curve"/>
      <point x="258" y="0" type="line"/>
      <point x="399" y="0"/>
      <point x="258" y="0"/>
      <point x="399" y="0" type="curve"/>
      <point x="464" y="178"/>
      <point x="529" y="355"/>
      <point x="594" y="533" type="curve"/>
      <point x="446" y="533"/>
      <point x="594" y="533"/>
    </contour>
  </outline>
</glyph>
<glyph name="x" format="1">
  <advance width="609"/>
  <unicode hex="0078"/>
  <outline>
    <contour>
      <point x="117" y="112" type="curve"/>
      <point x="22" y="112"/>
      <point x="120" y="112"/>
      <point x="25" y="112" type="curve"/>
      <point x="25" y="0"/>
      <point x="25" y="112"/>
      <point x="25" y="0" type="curve"/>
      <point x="57" y="0"/>
      <point x="85" y="0"/>
      <point x="117" y="0" type="curve"/>
      <point x="117" y="112"/>
      <point x="117" y="0"/>
    </contour>
    <contour>
      <point x="516" y="112" type="curve"/>
      <point x="344" y="112"/>
      <point x="508" y="112"/>
      <point x="337" y="112" type="curve"/>
      <point x="337" y="0"/>
      <point x="337" y="112"/>
      <point x="337" y="0" type="curve"/>
      <point x="393" y="0"/>
      <point x="458" y="0"/>
      <point x="516" y="0" type="curve"/>
      <point x="516" y="112"/>
      <point x="516" y="0"/>
    </contour>
    <contour>
      <point x="501" y="0" type="curve"/>
      <point x="533" y="0"/>
      <point x="568" y="0"/>
      <point x="599" y="0" type="curve"/>
      <point x="599" y="112"/>
      <point x="599" y="0"/>
      <point x="599" y="112" type="curve"/>
      <point x="505" y="112"/>
      <point x="595" y="112"/>
      <point x="501" y="112" type="curve"/>
      <point x="501" y="0"/>
      <point x="501" y="112"/>
    </contour>
    <contour>
      <point x="102" y="0" type="curve"/>
      <point x="161" y="0"/>
      <point x="108" y="0"/>
      <point x="281" y="0" type="curve"/>
      <point x="281" y="112"/>
      <point x="281" y="0"/>
      <point x="281" y="112" type="curve"/>
      <point x="108" y="112"/>
      <point x="276" y="112"/>
      <point x="102" y="112" type="curve"/>
      <point x="102" y="0"/>
      <point x="102" y="112"/>
    </contour>
    <contour>
      <point x="482" y="421" type="curve"/>
      <point x="583" y="421"/>
      <point x="490" y="421"/>
      <point x="591" y="421" type="curve"/>
      <point x="591" y="533"/>
      <point x="591" y="421"/>
      <point x="591" y="533" type="curve"/>
      <point x="557" y="533"/>
      <point x="515" y="533"/>
      <point x="482" y="533" type="curve"/>
      <point x="482" y="421"/>
      <point x="482" y="533"/>
    </contour>
    <contour>
      <point x="163" y="533" type="curve"/>
      <point x="125" y="533"/>
      <point x="88" y="533"/>
      <point x="51" y="533" type="curve"/>
      <point x="51" y="421"/>
      <point x="51" y="533"/>
      <point x="51" y="421" type="curve"/>
      <point x="162" y="421"/>
      <point x="52" y="421"/>
      <point x="163" y="421" type="curve"/>
      <point x="163" y="533"/>
      <point x="163" y="421"/>
    </contour>
    <contour>
      <point x="133" y="421" type="curve"/>
      <point x="293" y="421"/>
      <point x="128" y="421"/>
      <point x="288" y="421" type="curve"/>
      <point x="288" y="533"/>
      <point x="288" y="421"/>
      <point x="288" y="533" type="curve"/>
      <point x="236" y="533"/>
      <point x="186" y="533"/>
      <point x="133" y="533" type="curve"/>
      <point x="133" y="421"/>
      <point x="133" y="533"/>
    </contour>
    <contour>
      <point x="504" y="533" type="curve"/>
      <point x="450" y="533"/>
      <point x="400" y="533"/>
      <point x="347" y="533" type="curve"/>
      <point x="347" y="421"/>
      <point x="347" y="533"/>
      <point x="347" y="421" type="curve"/>
      <point x="508" y="421"/>
      <point x="343" y="421"/>
      <point x="504" y="421" type="curve"/>
      <point x="504" y="533"/>
      <point x="504" y="421"/>
    </contour>
    <contour>
      <point x="567" y="45" type="curve"/>
      <point x="174" y="533" type="line"/>
      <point x="67" y="533"/>
      <point x="172" y="482"/>
      <point x="65" y="482" type="curve"/>
      <point x="449" y="0" type="line"/>
      <point x="565" y="0"/>
      <point x="451" y="45"/>
    </contour>
    <contour>
      <point x="464" y="533" type="curve"/>
      <point x="54" y="51" type="line"/>
      <point x="166" y="51"/>
      <point x="57" y="0"/>
      <point x="169" y="0" type="curve"/>
      <point x="572" y="485" type="line"/>
      <point x="463" y="485"/>
      <point x="573" y="533"/>
    </contour>
  </outline>
</glyph>
<glyph name="exclamdown" format="1">
  <advance width="277"/>
  <unicode hex="00A1"/>
  <outline>
    <contour>
      <point x="71" y="302" type="line"/>
      <point x="57" y="-191" type="line"/>
      <point x="220" y="-192" type="line"/>
      <point x="208" y="301" type="line"/>
    </contour>
    <contour>
      <point x="61" y="468" type="curve"/>
      <point x="61" y="419"/>
      <point x="95" y="395"/>
      <point x="141" y="394" type="curve"/>
      <point x="188" y="394"/>
      <point x="219" y="420"/>
      <point x="219" y="467" type="curve"/>
      <point x="61" y="468"/>
      <point x="219" y="467"/>
      <point x="61" y="468" type="curve"/>
      <point x="61" y="518"/>
      <point x="95" y="540"/>
      <point x="142" y="539" type="curve"/>
      <point x="190" y="539"/>
      <point x="220" y="515"/>
      <point x="219" y="467" type="curve"/>
      <point x="61" y="468"/>
      <point x="219" y="467"/>
    </contour>
  </outline>
</glyph>
<glyph name="guillemotleft" format="1">
  <advance width="517"/>
  <unicode hex="00AB"/>
  <outline>
    <contour>
      <point x="233" y="487" type="curve"/>
      <point x="183" y="452"/>
      <point x="96" y="391"/>
      <point x="45" y="356" type="curve"/>
      <point x="45" y="233"/>
      <point x="45" y="342"/>
      <point x="45" y="218" type="curve"/>
      <point x="96" y="253"/>
      <point x="183" y="322"/>
      <point x="233" y="357" type="curve"/>
      <point x="233" y="480"/>
      <point x="233" y="364"/>
    </contour>
    <contour>
      <point x="233" y="220" type="curve"/>
      <point x="183" y="255"/>
      <point x="96" y="321"/>
      <point x="45" y="356" type="curve"/>
      <point x="45" y="233"/>
      <point x="45" y="342"/>
      <point x="45" y="218" type="curve"/>
      <point x="96" y="183"/>
      <point x="183" y="124"/>
      <point x="233" y="90" type="curve"/>
      <point x="233" y="213"/>
      <point x="233" y="97"/>
    </contour>
    <contour>
      <point x="448" y="487" type="curve"/>
      <point x="398" y="452"/>
      <point x="311" y="391"/>
      <point x="260" y="356" type="curve"/>
      <point x="260" y="233"/>
      <point x="260" y="342"/>
      <point x="260" y="218" type="curve"/>
      <point x="311" y="253"/>
      <point x="398" y="322"/>
      <point x="448" y="357" type="curve"/>
      <point x="448" y="480"/>
      <point x="448" y="364"/>
    </contour>
    <contour>
      <point x="448" y="220" type="curve"/>
      <point x="398" y="255"/>
      <point x="311" y="321"/>
      <point x="260" y="356" type="curve"/>
      <point x="260" y="233"/>
      <point x="260" y="342"/>
      <point x="260" y="218" type="curve"/>
      <point x="311" y="183"/>
      <point x="398" y="124"/>
      <point x="448" y="90" type="curve"/>
      <point x="448" y="213"/>
      <point x="448" y="97"/>
    </contour>
  </outline>
</glyph>
<glyph name="macron" format="1">
  <advance width="276"/>
  <unicode hex="00AF"/>
  <outline>
    <contour>
      <point x="136" y="565" type="move" name="_top"/>
    </contour>
    <contour>
      <point x="236" y="677" type="curve"/>
      <point x="169" y="677"/>
      <point x="101" y="677"/>
      <point x="34" y="677" type="curve"/>
      <point x="34" y="565"/>
      <point x="34" y="677"/>
      <point x="34" y="565" type="curve"/>
      <point x="101" y="565"/>
      <point x="169" y="565"/>
      <point x="236" y="565" type="curve"/>
      <point x="236" y="677"/>
      <point x="236" y="565"/>
    </contour>
  </outline>
</glyph>
<glyph name="plusminus" format="1">
  <advance width="668"/>
  <unicode hex="00B1"/>
  <outline>
    <contour>
      <point x="57" y="47" type="line"/>
      <point x="612" y="47" type="line"/>
      <point x="612" y="170" type="line"/>
      <point x="57" y="170" type="line"/>
    </contour>
    <contour>
      <point x="57" y="253" type="curve"/>
      <point x="612" y="253" type="line"/>
      <point x="612" y="376"/>
      <point x="612" y="253"/>
      <point x="612" y="376" type="curve"/>
      <point x="57" y="376" type="line"/>
      <point x="57" y="253"/>
      <point x="57" y="376"/>
    </contour>
    <contour>
      <point x="405" y="47" type="curve"/>
      <point x="405" y="581" type="line"/>
      <point x="257" y="581"/>
      <point x="415" y="581"/>
      <point x="267" y="581" type="curve"/>
      <point x="267" y="47" type="line"/>
      <point x="415" y="47"/>
      <point x="257" y="47"/>
    </contour>
  </outline>
</glyph>
<glyph name="acute" format="1">
  <advance width="506"/>
  <unicode hex="00B4"/>
  <outline>
    <contour>
      <point x="133" y="591" type="move" name="_top"/>
    </contour>
    <contour>
      <point x="197" y="590" type="line"/>
      <point x="339" y="756" type="line"/>
      <point x="155" y="756" type="line"/>
      <point x="55" y="590" type="line"/>
    </contour>
  </outline>
</glyph>
<glyph name="paragraph" format="1">
  <advance width="809"/>
  <unicode hex="00B6"/>
  <outline>
    <contour>
      <point x="434" y="610" type="curve"/>
      <point x="586" y="610"/>
      <point x="434" y="610"/>
      <point x="586" y="610" type="curve"/>
      <point x="586" y="722"/>
      <point x="586" y="610"/>
      <point x="586" y="722" type="curve"/>
      <point x="535" y="722"/>
      <point x="484" y="722"/>
      <point x="434" y="722" type="curve"/>
      <point x="434" y="610"/>
      <point x="434" y="722"/>
    </contour>
    <contour>
      <point x="434" y="0" type="curve"/>
      <point x="484" y="0"/>
      <point x="535" y="0"/>
      <point x="586" y="0" type="curve"/>
      <point x="586" y="112"/>
      <point x="586" y="0"/>
      <point x="586" y="112" type="curve"/>
      <point x="434" y="112"/>
      <point x="586" y="112"/>
      <point x="434" y="112" type="curve"/>
      <point x="434" y="0"/>
      <point x="434" y="112"/>
    </contour>
    <contour>
      <point x="434" y="112" type="curve"/>
      <point x="281" y="112"/>
      <point x="434" y="112"/>
      <point x="281" y="112" type="curve"/>
      <point x="281" y="0"/>
      <point x="281" y="112"/>
      <point x="281" y="0" type="curve"/>
      <point x="434" y="0"/>
      <point x="383" y="0"/>
      <point x="434" y="0" type="curve"/>
      <point x="434" y="112"/>
      <point x="434" y="0"/>
    </contour>
    <contour>
      <point x="409" y="390" type="curve"/>
      <point x="367" y="369"/>
      <point x="335" y="358"/>
      <point x="287" y="358" type="curve"/>
      <point x="221" y="358"/>
      <point x="184" y="403"/>
      <point x="184" y="473" type="curve"/>
      <point x="184" y="559"/>
      <point x="241" y="610"/>
      <point x="328" y="610" type="curve"/>
      <point x="363" y="610"/>
      <point x="397" y="610"/>
      <point x="431" y="610" type="curve"/>
      <point x="431" y="722"/>
      <point x="431" y="610"/>
      <point x="431" y="722" type="curve"/>
      <point x="390" y="722"/>
      <point x="349" y="722"/>
      <point x="308" y="722" type="curve"/>
      <point x="149" y="722"/>
      <point x="36" y="633"/>
      <point x="36" y="479" type="curve"/>
      <point x="36" y="330"/>
      <point x="146" y="252"/>
      <point x="301" y="249" type="curve"/>
      <point x="358" y="249"/>
      <point x="405" y="270"/>
      <point x="456" y="295" type="curve"/>
      <point x="409" y="390"/>
      <point x="455" y="297"/>
    </contour>
    <contour>
      <point x="509" y="0" type="curve"/>
      <point x="509" y="241"/>
      <point x="509" y="481"/>
      <point x="509" y="722" type="curve"/>
      <point x="361" y="722"/>
      <point x="509" y="722"/>
      <point x="361" y="722" type="curve"/>
      <point x="361" y="481"/>
      <point x="361" y="241"/>
      <point x="361" y="0" type="curve"/>
      <point x="509" y="0"/>
      <point x="361" y="0"/>
    </contour>
    <contour>
      <point x="729" y="0" type="curve"/>
      <point x="729" y="241"/>
      <point x="729" y="481"/>
      <point x="729" y="722" type="curve"/>
      <point x="581" y="722"/>
      <point x="729" y="722"/>
      <point x="581" y="722" type="curve"/>
      <point x="581" y="481"/>
      <point x="581" y="241"/>
      <point x="581" y="0" type="curve"/>
      <point x="729" y="0"/>
      <point x="581" y="0"/>
    </contour>
  </outline>
</glyph>
<glyph name="ordmasculine" format="1">
  <advance width="426"/>
  <unicode hex="00BA"/>
  <outline>
    <contour>
      <point x="132" y="597" type="curve"/>
      <point x="132" y="652"/>
      <point x="153" y="699"/>
      <point x="209" y="699" type="curve"/>
      <point x="266" y="699"/>
      <point x="290" y="654"/>
      <point x="290" y="596" type="curve"/>
      <point x="290" y="537"/>
      <point x="268" y="496"/>
      <point x="216" y="496" type="curve"/>
      <point x="155" y="496"/>
      <point x="132" y="537"/>
      <point x="132" y="597" type="curve"/>
      <point x="103" y="597"/>
      <point x="70" y="597"/>
      <point x="40" y="597" type="curve"/>
      <point x="40" y="487"/>
      <point x="104" y="420"/>
      <point x="212" y="420" type="curve"/>
      <point x="320" y="420"/>
      <point x="387" y="485"/>
      <point x="387" y="596" type="curve"/>
      <point x="387" y="706"/>
      <point x="323" y="774"/>
      <point x="214" y="774" type="curve"/>
      <point x="103" y="774"/>
      <point x="40" y="706"/>
      <point x="40" y="597" type="curve"/>
      <point x="70" y="597"/>
      <point x="103" y="597"/>
    </contour>
  </outline>
</glyph>
<glyph name="questiondown" format="1">
  <advance width="533"/>
  <unicode hex="00BF"/>
  <outline>
    <contour>
      <point x="355" y="352" type="curve"/>
      <point x="355" y="389"/>
      <point x="355" y="475"/>
      <point x="355" y="512" type="curve"/>
      <point x="217" y="512"/>
      <point x="355" y="512"/>
      <point x="217" y="512" type="curve"/>
      <point x="217" y="475"/>
      <point x="217" y="389"/>
      <point x="217" y="352" type="curve"/>
      <point x="355" y="352"/>
      <point x="217" y="352"/>
    </contour>
    <contour>
      <point x="425" y="158" type="line"/>
      <point x="391" y="122"/>
      <point x="352" y="98"/>
      <point x="299" y="98" type="curve"/>
      <point x="228" y="98"/>
      <point x="184" y="143"/>
      <point x="184" y="215" type="curve"/>
      <point x="184" y="300"/>
      <point x="246" y="352"/>
      <point x="340" y="352" type="curve"/>
      <point x="340" y="392"/>
      <point x="341" y="421"/>
      <point x="341" y="461" type="curve"/>
      <point x="165" y="461"/>
      <point x="44" y="371"/>
      <point x="44" y="215" type="curve"/>
      <point x="44" y="65"/>
      <point x="146" y="-21"/>
      <point x="292" y="-21" type="curve"/>
      <point x="380" y="-21"/>
      <point x="448" y="7"/>
      <point x="502" y="67" type="curve"/>
    </contour>
    <contour>
      <point x="205" y="682" type="curve"/>
      <point x="205" y="633"/>
      <point x="239" y="609"/>
      <point x="286" y="609" type="curve"/>
      <point x="333" y="609"/>
      <point x="364" y="636"/>
      <point x="364" y="682" type="curve"/>
      <point x="205" y="682"/>
      <point x="364" y="682"/>
      <point x="205" y="682" type="curve"/>
      <point x="205" y="733"/>
      <point x="239" y="755"/>
      <point x="286" y="755" type="curve"/>
      <point x="334" y="755"/>
      <point x="364" y="730"/>
      <point x="364" y="682" type="curve"/>
      <point x="205" y="682"/>
      <point x="364" y="682"/>
    </contour>
  </outline>
</glyph>
<glyph name="Atilde" format="1">
  <advance width="758"/>
  <unicode hex="00C3"/>
  <outline>
    <contour>
      <point x="126" y="112" type="curve"/>
      <point x="-11" y="112"/>
      <point x="134" y="112"/>
      <point x="-3" y="112" type="curve"/>
      <point x="-3" y="0"/>
      <point x="-3" y="112"/>
      <point x="-3" y="0" type="curve"/>
      <point x="42" y="0"/>
      <point x="81" y="0"/>
      <point x="126" y="0" type="curve"/>
      <point x="126" y="112"/>
      <point x="126" y="0"/>
    </contour>
    <contour>
      <point x="126" y="0" type="curve"/>
      <point x="185" y="0"/>
      <point x="126" y="0"/>
      <point x="304" y="0" type="curve"/>
      <point x="304" y="112"/>
      <point x="304" y="0"/>
      <point x="304" y="112" type="curve"/>
      <point x="126" y="112"/>
      <point x="304" y="112"/>
      <point x="126" y="112" type="curve"/>
      <point x="126" y="0"/>
      <point x="126" y="112"/>
    </contour>
    <contour>
      <point x="616" y="0" type="curve"/>
      <point x="661" y="0"/>
      <point x="699" y="0"/>
      <point x="745" y="0" type="curve"/>
      <point x="745" y="112"/>
      <point x="745" y="0"/>
      <point x="745" y="112" type="curve"/>
      <point x="609" y="112"/>
      <point x="752" y="112"/>
      <point x="616" y="112" type="curve"/>
      <point x="616" y="0"/>
      <point x="616" y="112"/>
    </contour>
    <contour>
      <point x="616" y="112" type="curve"/>
      <point x="438" y="112"/>
      <point x="616" y="112"/>
      <point x="438" y="112" type="curve"/>
      <point x="438" y="0"/>
      <point x="438" y="112"/>
      <point x="438" y="0" type="curve"/>
      <point x="498" y="0"/>
      <point x="557" y="0"/>
      <point x="616" y="0" type="curve"/>
      <point x="616" y="112"/>
      <point x="616" y="0"/>
    </contour>
    <contour>
      <point x="515" y="300" type="curve"/>
      <point x="426" y="300"/>
      <point x="336" y="300"/>
      <point x="247" y="300" type="curve"/>
      <point x="186" y="182"/>
      <point x="247" y="300"/>
      <point x="186" y="182" type="curve"/>
      <point x="311" y="182"/>
      <point x="437" y="182"/>
      <point x="562" y="182" type="curve"/>
      <point x="515" y="300"/>
      <point x="562" y="182"/>
    </contour>
    <contour>
      <point x="703" y="0" type="curve"/>
      <point x="622" y="241"/>
      <point x="534" y="481"/>
      <point x="453" y="722" type="curve"/>
      <point x="319" y="722"/>
      <point x="453" y="722"/>
      <point x="319" y="722" type="curve"/>
      <point x="398" y="482"/>
      <point x="470" y="240"/>
      <point x="549" y="0" type="curve"/>
      <point x="703" y="0"/>
      <point x="549" y="0"/>
    </contour>
    <contour>
      <point x="196" y="0" type="curve"/>
      <point x="285" y="240"/>
      <point x="362" y="482"/>
      <point x="452" y="722" type="curve"/>
      <point x="317" y="722"/>
      <point x="452" y="722"/>
      <point x="317" y="722" type="curve"/>
      <point x="227" y="480"/>
      <point x="125" y="242"/>
      <point x="35" y="0" type="curve"/>
      <point x="196" y="0"/>
      <point x="35" y="0"/>
    </contour>
    <contour>
      <point x="499" y="969" type="curve"/>
      <point x="483" y="933"/>
      <point x="469" y="919"/>
      <point x="450" y="919" type="curve"/>
      <point x="422" y="919"/>
      <point x="408" y="926"/>
      <point x="387" y="943" type="curve" smooth="yes"/>
      <point x="356" y="966"/>
      <point x="336" y="976"/>
      <point x="300" y="976" type="curve"/>
      <point x="225" y="976"/>
      <point x="184" y="913"/>
      <point x="158" y="841" type="curve"/>
      <point x="267" y="782"/>
      <point x="158" y="842"/>
      <point x="267" y="782" type="curve"/>
      <point x="286" y="823"/>
      <point x="304" y="835"/>
      <point x="325" y="835" type="curve"/>
      <point x="349" y="835"/>
      <point x="361" y="827"/>
      <point x="379" y="813" type="curve" smooth="yes"/>
      <point x="414" y="785"/>
      <point x="435" y="775"/>
      <point x="476" y="775" type="curve"/>
      <point x="553" y="775"/>
      <point x="587" y="836"/>
      <point x="615" y="911" type="curve"/>
      <point x="499" y="968"/>
      <point x="615" y="910"/>
    </contour>
  </outline>
</glyph>
<glyph name="Adieresis" format="1">
  <advance width="758"/>
  <unicode hex="00C4"/>
  <outline>
    <contour>
      <point x="126" y="112" type="curve"/>
      <point x="-11" y="112"/>
      <point x="134" y="112"/>
      <point x="-3" y="112" type="curve"/>
      <point x="-3" y="0"/>
      <point x="-3" y="112"/>
      <point x="-3" y="0" type="curve"/>
      <point x="42" y="0"/>
      <point x="81" y="0"/>
      <point x="126" y="0" type="curve"/>
      <point x="126" y="112"/>
      <point x="126" y="0"/>
    </contour>
    <contour>
      <point x="126" y="0" type="curve"/>
      <point x="185" y="0"/>
      <point x="126" y="0"/>
      <point x="304" y="0" type="curve"/>
      <point x="304" y="112"/>
      <point x="304" y="0"/>
      <point x="304" y="112" type="curve"/>
      <point x="126" y="112"/>
      <point x="304" y="112"/>
      <point x="126" y="112" type="curve"/>
      <point x="126" y="0"/>
      <point x="126" y="112"/>
    </contour>
    <contour>
      <point x="616" y="0" type="curve"/>
      <point x="661" y="0"/>
      <point x="699" y="0"/>
      <point x="745" y="0" type="curve"/>
      <point x="745" y="112"/>
      <point x="745" y="0"/>
      <point x="745" y="112" type="curve"/>
      <point x="609" y="112"/>
      <point x="752" y="112"/>
      <point x="616" y="112" type="curve"/>
      <point x="616" y="0"/>
      <point x="616" y="112"/>
    </contour>
    <contour>
      <point x="616" y="112" type="curve"/>
      <point x="438" y="112"/>
      <point x="616" y="112"/>
      <point x="438" y="112" type="curve"/>
      <point x="438" y="0"/>
      <point x="438" y="112"/>
      <point x="438" y="0" type="curve"/>
      <point x="498" y="0"/>
      <point x="557" y="0"/>
      <point x="616" y="0" type="curve"/>
      <point x="616" y="112"/>
      <point x="616" y="0"/>
    </contour>
    <contour>
      <point x="515" y="300" type="curve"/>
      <point x="426" y="300"/>
      <point x="336" y="300"/>
      <point x="247" y="300" type="curve"/>
      <point x="186" y="182"/>
      <point x="247" y="300"/>
      <point x="186" y="182" type="curve"/>
      <point x="311" y="182"/>
      <point x="437" y="182"/>
      <point x="562" y="182" type="curve"/>
      <point x="515" y="300"/>
      <point x="562" y="182"/>
    </contour>
    <contour>
      <point x="703" y="0" type="curve"/>
      <point x="622" y="241"/>
      <point x="534" y="481"/>
      <point x="453" y="722" type="curve"/>
      <point x="319" y="722"/>
      <point x="453" y="722"/>
      <point x="319" y="722" type="curve"/>
      <point x="398" y="482"/>
      <point x="470" y="240"/>
      <point x="549" y="0" type="curve"/>
      <point x="703" y="0"/>
      <point x="549" y="0"/>
    </contour>
    <contour>
      <point x="196" y="0" type="curve"/>
      <point x="285" y="240"/>
      <point x="362" y="482"/>
      <point x="452" y="722" type="curve"/>
      <point x="317" y="722"/>
      <point x="452" y="722"/>
      <point x="317" y="722" type="curve"/>
      <point x="227" y="480"/>
      <point x="125" y="242"/>
      <point x="35" y="0" type="curve"/>
      <point x="196" y="0"/>
      <point x="35" y="0"/>
    </contour>
    <contour>
      <point x="357" y="847" type="curve"/>
      <point x="357" y="896"/>
      <point x="323" y="920"/>
      <point x="276" y="920" type="curve"/>
      <point x="230" y="920"/>
      <point x="198" y="894"/>
      <point x="198" y="847" type="curve"/>
      <point x="357" y="847"/>
      <point x="198" y="847"/>
      <point x="357" y="847" type="curve"/>
      <point x="357" y="797"/>
      <point x="323" y="775"/>
      <point x="276" y="775" type="curve"/>
      <point x="229" y="775"/>
      <point x="198" y="799"/>
      <point x="198" y="847" type="curve"/>
      <point x="357" y="847"/>
      <point x="198" y="847"/>
    </contour>
    <contour>
      <point x="568" y="847" type="curve"/>
      <point x="568" y="896"/>
      <point x="533" y="920"/>
      <point x="487" y="920" type="curve"/>
      <point x="440" y="920"/>
      <point x="409" y="894"/>
      <point x="409" y="847" type="curve"/>
      <point x="568" y="847"/>
      <point x="409" y="847"/>
      <point x="568" y="847" type="curve"/>
      <point x="568" y="797"/>
      <point x="534" y="775"/>
      <point x="487" y="775" type="curve"/>
      <point x="439" y="775"/>
      <point x="409" y="799"/>
      <point x="409" y="847" type="curve"/>
      <point x="568" y="847"/>
      <point x="409" y="847"/>
    </contour>
  </outline>
</glyph>
<glyph name="Ccedilla" format="1">
  <advance width="694"/>
  <unicode hex="00C7"/>
  <outline>
    <contour>
      <point x="523" y="654" type="curve"/>
      <point x="523" y="534"/>
      <point x="523" y="641"/>
      <point x="523" y="521" type="curve"/>
      <point x="638" y="521"/>
      <point x="523" y="521"/>
      <point x="638" y="521" type="curve"/>
      <point x="638" y="641"/>
      <point x="638" y="534"/>
      <point x="638" y="654" type="curve"/>
      <point x="523" y="654"/>
      <point x="638" y="654"/>
    </contour>
    <contour>
      <point x="638" y="654" type="curve"/>
      <point x="569" y="697"/>
      <point x="489" y="727"/>
      <point x="399" y="727" type="curve"/>
      <point x="175" y="727"/>
      <point x="50" y="581"/>
      <point x="50" y="345" type="curve"/>
      <point x="50" y="128"/>
      <point x="169" y="-5"/>
      <point x="380" y="-5" type="curve"/>
      <point x="496" y="-5"/>
      <point x="573" y="27"/>
      <point x="647" y="96" type="curve"/>
      <point x="570" y="183"/>
      <point x="647" y="96"/>
      <point x="570" y="183" type="curve"/>
      <point x="509" y="137"/>
      <point x="461" y="112"/>
      <point x="386" y="112" type="curve"/>
      <point x="254" y="112"/>
      <point x="198" y="209"/>
      <point x="198" y="350" type="curve"/>
      <point x="198" y="503"/>
      <point x="254" y="610"/>
      <point x="393" y="610" type="curve"/>
      <point x="455" y="610"/>
      <point x="510" y="594"/>
      <point x="557" y="565" type="curve"/>
      <point x="638" y="654"/>
      <point x="557" y="565"/>
    </contour>
    <contour>
      <point x="321" y="83" type="curve"/>
      <point x="310" y="62"/>
      <point x="258" y="-37"/>
      <point x="246" y="-58" type="curve"/>
      <point x="347" y="-148"/>
      <point x="246" y="-58"/>
      <point x="347" y="-148" type="curve"/>
      <point x="362" y="-122"/>
      <point x="421" y="-21"/>
      <point x="435" y="5" type="curve"/>
      <point x="321" y="83"/>
      <point x="435" y="5"/>
    </contour>
    <contour>
      <point x="347" y="-148" type="curve"/>
      <point x="352" y="-144"/>
      <point x="356" y="-141"/>
      <point x="362" y="-141" type="curve"/>
      <point x="369" y="-141"/>
      <point x="374" y="-143"/>
      <point x="374" y="-152" type="curve"/>
      <point x="374" y="-165"/>
      <point x="361" y="-168"/>
      <point x="347" y="-168" type="curve"/>
      <point x="326" y="-168"/>
      <point x="309" y="-163"/>
      <point x="287" y="-152" type="curve"/>
      <point x="236" y="-235"/>
      <point x="287" y="-152"/>
      <point x="236" y="-235" type="curve"/>
      <point x="270" y="-254"/>
      <point x="300" y="-263"/>
      <point x="340" y="-263" type="curve"/>
      <point x="419" y="-263"/>
      <point x="477" y="-227"/>
      <point x="477" y="-149" type="curve"/>
      <point x="477" y="-76"/>
      <point x="427" y="-34"/>
      <point x="353" y="-34" type="curve"/>
      <point x="312" y="-34"/>
      <point x="283" y="-40"/>
      <point x="246" y="-58" type="curve"/>
      <point x="347" y="-148"/>
      <point x="246" y="-58"/>
    </contour>
  </outline>
</glyph>
<glyph name="Iacute" format="1">
  <advance width="374"/>
  <unicode hex="00CD"/>
  <outline>
    <contour>
      <point x="187" y="722" type="curve"/>
      <point x="136" y="722"/>
      <point x="92" y="722"/>
      <point x="42" y="722" type="curve"/>
      <point x="42" y="610"/>
      <point x="42" y="722"/>
      <point x="42" y="610" type="curve"/>
      <point x="194" y="610"/>
      <point x="34" y="610"/>
      <point x="187" y="610" type="curve"/>
      <point x="187" y="722"/>
      <point x="187" y="610"/>
    </contour>
    <contour>
      <point x="187" y="610" type="curve"/>
      <point x="339" y="610"/>
      <point x="179" y="610"/>
      <point x="331" y="610" type="curve"/>
      <point x="331" y="722"/>
      <point x="331" y="610"/>
      <point x="331" y="722" type="curve"/>
      <point x="280" y="722"/>
      <point x="237" y="722"/>
      <point x="187" y="722" type="curve"/>
      <point x="187" y="610"/>
      <point x="187" y="722"/>
    </contour>
    <contour>
      <point x="187" y="0" type="curve"/>
      <point x="237" y="0"/>
      <point x="280" y="0"/>
      <point x="331" y="0" type="curve"/>
      <point x="331" y="112"/>
      <point x="331" y="0"/>
      <point x="331" y="112" type="curve"/>
      <point x="179" y="112"/>
      <point x="339" y="112"/>
      <point x="187" y="112" type="curve"/>
      <point x="187" y="0"/>
      <point x="187" y="112"/>
    </contour>
    <contour>
      <point x="187" y="112" type="curve"/>
      <point x="34" y="112"/>
      <point x="194" y="112"/>
      <point x="42" y="112" type="curve"/>
      <point x="42" y="0"/>
      <point x="42" y="112"/>
      <point x="42" y="0" type="curve"/>
      <point x="92" y="0"/>
      <point x="136" y="0"/>
      <point x="187" y="0" type="curve"/>
      <point x="187" y="112"/>
      <point x="187" y="0"/>
    </contour>
    <contour>
      <point x="259" y="0" type="curve"/>
      <point x="259" y="241"/>
      <point x="259" y="481"/>
      <point x="259" y="722" type="curve"/>
      <point x="111" y="722"/>
      <point x="259" y="722"/>
      <point x="111" y="722" type="curve"/>
      <point x="111" y="481"/>
      <point x="111" y="241"/>
      <point x="111" y="0" type="curve"/>
      <point x="259" y="0"/>
      <point x="111" y="0"/>
    </contour>
    <contour>
      <point x="251" y="779" type="line"/>
      <point x="393" y="945" type="line"/>
      <point x="209" y="945" type="line"/>
      <point x="109" y="779" type="line"/>
    </contour>
  </outline>
</glyph>
<glyph name="Ocircumflex" format="1">
  <advance width="760"/>
  <unicode hex="00D4"/>
  <outline>
    <contour>
      <point x="198" y="360" type="curve"/>
      <point x="198" y="501"/>
      <point x="243" y="610"/>
      <point x="376" y="610" type="curve"/>
      <point x="506" y="610"/>
      <point x="562" y="505"/>
      <point x="562" y="363" type="curve"/>
      <point x="562" y="221"/>
      <point x="515" y="113"/>
      <point x="383" y="113" type="curve"/>
      <point x="251" y="113"/>
      <point x="198" y="218"/>
      <point x="198" y="360" type="curve"/>
      <point x="50" y="360"/>
      <point x="198" y="360"/>
      <point x="50" y="360" type="curve"/>
      <point x="50" y="142"/>
      <point x="167" y="-5"/>
      <point x="377" y="-5" type="curve"/>
      <point x="590" y="-5"/>
      <point x="710" y="143"/>
      <point x="710" y="363" type="curve"/>
      <point x="710" y="579"/>
      <point x="594" y="727"/>
      <point x="384" y="727" type="curve"/>
      <point x="171" y="727"/>
      <point x="50" y="579"/>
      <point x="50" y="360" type="curve"/>
      <point x="198" y="360"/>
      <point x="50" y="360"/>
    </contour>
    <contour>
      <point x="305" y="780" type="line"/>
      <point x="447" y="946" type="line"/>
      <point x="263" y="946" type="line"/>
      <point x="164" y="780" type="line"/>
    </contour>
    <contour>
      <point x="602" y="780" type="line"/>
      <point x="501" y="946" type="line"/>
      <point x="317" y="946" type="line"/>
      <point x="459" y="780" type="line"/>
    </contour>
  </outline>
</glyph>
<glyph name="Ucircumflex" format="1">
  <advance width="817"/>
  <unicode hex="00DB"/>
  <outline>
    <contour>
      <point x="633" y="610" type="curve"/>
      <point x="776" y="610"/>
      <point x="633" y="610"/>
      <point x="776" y="610" type="curve"/>
      <point x="776" y="722"/>
      <point x="776" y="610"/>
      <point x="776" y="722" type="curve"/>
      <point x="729" y="722"/>
      <point x="681" y="722"/>
      <point x="633" y="722" type="curve"/>
      <point x="633" y="610"/>
      <point x="633" y="722"/>
    </contour>
    <contour>
      <point x="633" y="722" type="curve"/>
      <point x="586" y="722"/>
      <point x="538" y="722"/>
      <point x="492" y="722" type="curve"/>
      <point x="492" y="610"/>
      <point x="492" y="722"/>
      <point x="492" y="610" type="curve"/>
      <point x="633" y="610"/>
      <point x="492" y="610"/>
      <point x="633" y="610" type="curve"/>
      <point x="633" y="722"/>
      <point x="633" y="610"/>
    </contour>
    <contour>
      <point x="186" y="722" type="curve"/>
      <point x="138" y="722"/>
      <point x="91" y="722"/>
      <point x="44" y="722" type="curve"/>
      <point x="44" y="610"/>
      <point x="44" y="722"/>
      <point x="44" y="610" type="curve"/>
      <point x="186" y="610"/>
      <point x="44" y="610"/>
      <point x="186" y="610" type="curve"/>
      <point x="186" y="722"/>
      <point x="186" y="610"/>
    </contour>
    <contour>
      <point x="186" y="610" type="curve"/>
      <point x="328" y="610"/>
      <point x="186" y="610"/>
      <point x="328" y="610" type="curve"/>
      <point x="328" y="722"/>
      <point x="328" y="610"/>
      <point x="328" y="722" type="curve"/>
      <point x="281" y="722"/>
      <point x="233" y="722"/>
      <point x="186" y="722" type="curve"/>
      <point x="186" y="610"/>
      <point x="186" y="722"/>
    </contour>
    <contour>
      <point x="117" y="674" type="curve"/>
      <point x="117" y="540"/>
      <point x="116" y="409"/>
      <point x="117" y="276" type="curve"/>
      <point x="117" y="87"/>
      <point x="214" y="-5"/>
      <point x="405" y="-5" type="curve"/>
      <point x="601" y="-5"/>
      <point x="701" y="92"/>
      <point x="701" y="288" type="curve"/>
      <point x="701" y="418"/>
      <point x="701" y="545"/>
      <point x="701" y="674" type="curve"/>
      <point x="566" y="674"/>
      <point x="701" y="674"/>
      <point x="566" y="674" type="curve"/>
      <point x="566" y="537"/>
      <point x="566" y="410"/>
      <point x="566" y="273" type="curve"/>
      <point x="566" y="174"/>
      <point x="515" y="119"/>
      <point x="416" y="119" type="curve"/>
      <point x="301" y="119"/>
      <point x="251" y="180"/>
      <point x="251" y="297" type="curve"/>
      <point x="251" y="424"/>
      <point x="251" y="548"/>
      <point x="251" y="674" type="curve"/>
      <point x="117" y="674"/>
      <point x="251" y="674"/>
    </contour>
    <contour>
      <point x="334" y="780" type="line"/>
      <point x="476" y="946" type="line"/>
      <point x="292" y="946" type="line"/>
      <point x="193" y="780" type="line"/>
    </contour>
    <contour>
      <point x="631" y="780" type="line"/>
      <point x="530" y="946" type="line"/>
      <point x="346" y="946" type="line"/>
      <point x="488" y="780" type="line"/>
    </contour>
  </outline>
</glyph>
<glyph name="Yacute" format="1">
  <advance width="630"/>
  <unicode hex="00DD"/>
  <outline>
    <contour>
      <point x="311" y="112" type="curve"/>
      <point x="167" y="112"/>
      <point x="311" y="112"/>
      <point x="167" y="112" type="curve"/>
      <point x="167" y="0"/>
      <point x="167" y="112"/>
      <point x="167" y="0" type="curve"/>
      <point x="215" y="0"/>
      <point x="263" y="0"/>
      <point x="311" y="0" type="curve"/>
      <point x="311" y="112"/>
      <point x="311" y="0"/>
    </contour>
    <contour>
      <point x="311" y="0" type="curve"/>
      <point x="360" y="0"/>
      <point x="408" y="0"/>
      <point x="455" y="0" type="curve"/>
      <point x="455" y="112"/>
      <point x="455" y="0"/>
      <point x="455" y="112" type="curve"/>
      <point x="311" y="112"/>
      <point x="455" y="112"/>
      <point x="311" y="112" type="curve"/>
      <point x="311" y="0"/>
      <point x="311" y="112"/>
    </contour>
    <contour>
      <point x="491" y="722" type="curve"/>
      <point x="446" y="722"/>
      <point x="400" y="722"/>
      <point x="354" y="722" type="curve"/>
      <point x="354" y="610"/>
      <point x="354" y="722"/>
      <point x="354" y="610" type="curve"/>
      <point x="491" y="610"/>
      <point x="354" y="610"/>
      <point x="491" y="610" type="curve"/>
      <point x="491" y="722"/>
      <point x="491" y="610"/>
    </contour>
    <contour>
      <point x="127" y="722" type="curve"/>
      <point x="90" y="722"/>
      <point x="53" y="722"/>
      <point x="16" y="722" type="curve"/>
      <point x="15" y="610"/>
      <point x="16" y="722"/>
      <point x="15" y="610" type="curve"/>
      <point x="127" y="610"/>
      <point x="15" y="610"/>
      <point x="127" y="610" type="curve"/>
      <point x="127" y="722"/>
      <point x="127" y="610"/>
    </contour>
    <contour>
      <point x="142" y="610" type="curve"/>
      <point x="279" y="610"/>
      <point x="142" y="610"/>
      <point x="279" y="610" type="curve"/>
      <point x="279" y="722"/>
      <point x="279" y="610"/>
      <point x="279" y="722" type="curve"/>
      <point x="234" y="722"/>
      <point x="188" y="722"/>
      <point x="142" y="722" type="curve"/>
      <point x="142" y="610"/>
      <point x="142" y="722"/>
    </contour>
    <contour>
      <point x="506" y="610" type="curve"/>
      <point x="623" y="610"/>
      <point x="506" y="610"/>
      <point x="623" y="610" type="curve"/>
      <point x="623" y="722"/>
      <point x="623" y="610"/>
      <point x="623" y="722" type="curve"/>
      <point x="584" y="722"/>
      <point x="545" y="722"/>
      <point x="506" y="722" type="curve"/>
      <point x="506" y="610"/>
      <point x="506" y="722"/>
    </contour>
    <contour>
      <point x="35" y="711" type="curve"/>
      <point x="102" y="587"/>
      <point x="166" y="464"/>
      <point x="232" y="337" type="curve"/>
      <point x="382" y="337"/>
      <point x="216" y="337"/>
      <point x="366" y="337" type="curve"/>
      <point x="303" y="469"/>
      <point x="241" y="592"/>
      <point x="175" y="722" type="curve"/>
      <point x="35" y="722"/>
      <point x="175" y="711"/>
    </contour>
    <contour>
      <point x="459" y="722" type="curve"/>
      <point x="387" y="590"/>
      <point x="322" y="468"/>
      <point x="249" y="337" type="curve"/>
      <point x="399" y="337"/>
      <point x="240" y="337"/>
      <point x="390" y="337" type="curve"/>
      <point x="460" y="464"/>
      <point x="529" y="587"/>
      <point x="600" y="712" type="curve"/>
      <point x="459" y="712"/>
      <point x="600" y="722"/>
    </contour>
    <contour>
      <point x="392" y="0" type="curve"/>
      <point x="392" y="115"/>
      <point x="392" y="224"/>
      <point x="392" y="339" type="curve"/>
      <point x="231" y="339"/>
      <point x="392" y="339"/>
      <point x="231" y="339" type="curve"/>
      <point x="231" y="224"/>
      <point x="231" y="115"/>
      <point x="231" y="0" type="curve"/>
      <point x="392" y="0"/>
      <point x="231" y="0"/>
    </contour>
    <contour>
      <point x="381" y="779" type="line"/>
      <point x="523" y="945" type="line"/>
      <point x="339" y="945" type="line"/>
      <point x="240" y="779" type="line"/>
    </contour>
  </outline>
</glyph>
<glyph name="atilde" format="1">
  <advance width="592"/>
  <unicode hex="00E3"/>
  <outline>
    <contour>
      <point x="71" y="461" type="curve"/>
      <point x="71" y="347"/>
      <point x="71" y="459"/>
      <point x="71" y="345" type="curve"/>
      <point x="186" y="345"/>
      <point x="71" y="345"/>
      <point x="186" y="345" type="curve"/>
      <point x="186" y="459"/>
      <point x="186" y="347"/>
      <point x="186" y="461" type="curve"/>
      <point x="71" y="461"/>
      <point x="186" y="461"/>
    </contour>
    <contour>
      <point x="501" y="0" type="curve"/>
      <point x="501" y="123"/>
      <point x="501" y="245"/>
      <point x="501" y="368" type="curve"/>
      <point x="501" y="494"/>
      <point x="409" y="538"/>
      <point x="282" y="538" type="curve"/>
      <point x="189" y="538"/>
      <point x="122" y="506"/>
      <point x="71" y="461" type="curve"/>
      <point x="126" y="367"/>
      <point x="74" y="460"/>
      <point x="128" y="365" type="curve"/>
      <point x="162" y="392"/>
      <point x="200" y="422"/>
      <point x="261" y="422" type="curve"/>
      <point x="316" y="422"/>
      <point x="354" y="402"/>
      <point x="354" y="347" type="curve"/>
      <point x="354" y="232"/>
      <point x="354" y="115"/>
      <point x="354" y="0" type="curve"/>
      <point x="501" y="0"/>
      <point x="354" y="0"/>
    </contour>
    <contour>
      <point x="430" y="0" type="curve"/>
      <point x="473" y="0"/>
      <point x="518" y="0"/>
      <point x="561" y="0" type="curve"/>
      <point x="561" y="112"/>
      <point x="561" y="0"/>
      <point x="561" y="112" type="curve"/>
      <point x="430" y="112"/>
      <point x="561" y="112"/>
      <point x="430" y="112" type="curve"/>
      <point x="430" y="0"/>
      <point x="430" y="112"/>
    </contour>
    <contour>
      <point x="424" y="348" type="curve"/>
      <point x="355" y="339"/>
      <point x="313" y="336"/>
      <point x="244" y="327" type="curve"/>
      <point x="126" y="311"/>
      <point x="43" y="275"/>
      <point x="43" y="164" type="curve"/>
      <point x="43" y="52"/>
      <point x="111" y="-5"/>
      <point x="225" y="-5" type="curve"/>
      <point x="340" y="-5"/>
      <point x="397" y="75"/>
      <point x="463" y="153" type="curve"/>
      <point x="390" y="214"/>
      <point x="463" y="153"/>
      <point x="390" y="214" type="curve"/>
      <point x="361" y="155"/>
      <point x="322" y="107"/>
      <point x="256" y="107" type="curve"/>
      <point x="210" y="107"/>
      <point x="186" y="127"/>
      <point x="186" y="168" type="curve"/>
      <point x="186" y="203"/>
      <point x="214" y="222"/>
      <point x="245" y="226" type="curve"/>
      <point x="320" y="236"/>
      <point x="356" y="242"/>
      <point x="430" y="252" type="curve"/>
      <point x="424" y="348"/>
      <point x="430" y="252"/>
    </contour>
    <contour>
      <point x="401" y="799" type="curve"/>
      <point x="386" y="763"/>
      <point x="371" y="749"/>
      <point x="352" y="749" type="curve"/>
      <point x="324" y="749"/>
      <point x="310" y="756"/>
      <point x="289" y="773" type="curve" smooth="yes"/>
      <point x="258" y="796"/>
      <point x="238" y="806"/>
      <point x="202" y="806" type="curve"/>
      <point x="127" y="806"/>
      <point x="86" y="743"/>
      <point x="60" y="671" type="curve"/>
      <point x="169" y="612"/>
      <point x="61" y="672"/>
      <point x="169" y="612" type="curve"/>
      <point x="189" y="653"/>
      <point x="206" y="665"/>
      <point x="227" y="665" type="curve"/>
      <point x="251" y="665"/>
      <point x="263" y="657"/>
      <point x="281" y="643" type="curve" smooth="yes"/>
      <point x="316" y="615"/>
      <point x="337" y="605"/>
      <point x="379" y="605" type="curve"/>
      <point x="455" y="605"/>
      <point x="489" y="666"/>
      <point x="517" y="741" type="curve"/>
      <point x="402" y="798"/>
      <point x="517" y="740"/>
    </contour>
  </outline>
</glyph>
<glyph name="adieresis" format="1">
  <advance width="592"/>
  <unicode hex="00E4"/>
  <outline>
    <contour>
      <point x="71" y="461" type="curve"/>
      <point x="71" y="347"/>
      <point x="71" y="459"/>
      <point x="71" y="345" type="curve"/>
      <point x="186" y="345"/>
      <point x="71" y="345"/>
      <point x="186" y="345" type="curve"/>
      <point x="186" y="459"/>
      <point x="186" y="347"/>
      <point x="186" y="461" type="curve"/>
      <point x="71" y="461"/>
      <point x="186" y="461"/>
    </contour>
    <contour>
      <point x="501" y="0" type="curve"/>
      <point x="501" y="123"/>
      <point x="501" y="245"/>
      <point x="501" y="368" type="curve"/>
      <point x="501" y="494"/>
      <point x="409" y="538"/>
      <point x="282" y="538" type="curve"/>
      <point x="189" y="538"/>
      <point x="122" y="506"/>
      <point x="71" y="461" type="curve"/>
      <point x="126" y="367"/>
      <point x="74" y="460"/>
      <point x="128" y="365" type="curve"/>
      <point x="162" y="392"/>
      <point x="200" y="422"/>
      <point x="261" y="422" type="curve"/>
      <point x="316" y="422"/>
      <point x="354" y="402"/>
      <point x="354" y="347" type="curve"/>
      <point x="354" y="232"/>
      <point x="354" y="115"/>
      <point x="354" y="0" type="curve"/>
      <point x="501" y="0"/>
      <point x="354" y="0"/>
    </contour>
    <contour>
      <point x="430" y="0" type="curve"/>
      <point x="473" y="0"/>
      <point x="518" y="0"/>
      <point x="561" y="0" type="curve"/>
      <point x="561" y="112"/>
      <point x="561" y="0"/>
      <point x="561" y="112" type="curve"/>
      <point x="430" y="112"/>
      <point x="561" y="112"/>
      <point x="430" y="112" type="curve"/>
      <point x="430" y="0"/>
      <point x="430" y="112"/>
    </contour>
    <contour>
      <point x="424" y="348" type="curve"/>
      <point x="355" y="339"/>
      <point x="313" y="336"/>
      <point x="244" y="327" type="curve"/>
      <point x="126" y="311"/>
      <point x="43" y="275"/>
      <point x="43" y="164" type="curve"/>
      <point x="43" y="52"/>
      <point x="111" y="-5"/>
      <point x="225" y="-5" type="curve"/>
      <point x="340" y="-5"/>
      <point x="397" y="75"/>
      <point x="463" y="153" type="curve"/>
      <point x="390" y="214"/>
      <point x="463" y="153"/>
      <point x="390" y="214" type="curve"/>
      <point x="361" y="155"/>
      <point x="322" y="107"/>
      <point x="256" y="107" type="curve"/>
      <point x="210" y="107"/>
      <point x="186" y="127"/>
      <point x="186" y="168" type="curve"/>
      <point x="186" y="203"/>
      <point x="214" y="222"/>
      <point x="245" y="226" type="curve"/>
      <point x="320" y="236"/>
      <point x="356" y="242"/>
      <point x="430" y="252" type="curve"/>
      <point x="424" y="348"/>
      <point x="430" y="252"/>
    </contour>
    <contour>
      <point x="259" y="677" type="curve"/>
      <point x="259" y="726"/>
      <point x="225" y="750"/>
      <point x="179" y="750" type="curve"/>
      <point x="132" y="750"/>
      <point x="100" y="724"/>
      <point x="100" y="677" type="curve"/>
      <point x="259" y="677"/>
      <point x="100" y="677"/>
      <point x="259" y="677" type="curve"/>
      <point x="259" y="627"/>
      <point x="225" y="605"/>
      <point x="178" y="605" type="curve"/>
      <point x="131" y="605"/>
      <point x="100" y="629"/>
      <point x="100" y="677" type="curve"/>
      <point x="259" y="677"/>
      <point x="100" y="677"/>
    </contour>
    <contour>
      <point x="470" y="677" type="curve"/>
      <point x="470" y="726"/>
      <point x="436" y="750"/>
      <point x="389" y="750" type="curve"/>
      <point x="342" y="750"/>
      <point x="311" y="724"/>
      <point x="311" y="677" type="curve"/>
      <point x="470" y="677"/>
      <point x="311" y="677"/>
      <point x="470" y="677" type="curve"/>
      <point x="470" y="627"/>
      <point x="436" y="605"/>
      <point x="389" y="605" type="curve"/>
      <point x="341" y="605"/>
      <point x="311" y="629"/>
      <point x="311" y="677" type="curve"/>
      <point x="470" y="677"/>
      <point x="311" y="677"/>
    </contour>
  </outline>
</glyph>
<glyph name="igrave" format="1">
  <advance width="336"/>
  <unicode hex="00EC"/>
  <outline>
    <contour>
      <point x="171" y="112" type="curve"/>
      <point x="27" y="112"/>
      <point x="171" y="112"/>
      <point x="27" y="112" type="curve"/>
      <point x="27" y="0"/>
      <point x="27" y="112"/>
      <point x="27" y="0" type="curve"/>
      <point x="75" y="0"/>
      <point x="123" y="0"/>
      <point x="171" y="0" type="curve"/>
      <point x="171" y="112"/>
      <point x="171" y="0"/>
    </contour>
    <contour>
      <point x="171" y="0" type="curve"/>
      <point x="217" y="0"/>
      <point x="263" y="0"/>
      <point x="310" y="0" type="curve"/>
      <point x="310" y="112"/>
      <point x="310" y="0"/>
      <point x="310" y="112" type="curve"/>
      <point x="171" y="112"/>
      <point x="310" y="112"/>
      <point x="171" y="112" type="curve"/>
      <point x="171" y="0"/>
      <point x="171" y="112"/>
    </contour>
    <contour>
      <point x="171" y="533" type="curve"/>
      <point x="123" y="533"/>
      <point x="75" y="533"/>
      <point x="27" y="533" type="curve"/>
      <point x="27" y="421"/>
      <point x="27" y="533"/>
      <point x="27" y="421" type="curve"/>
      <point x="171" y="421"/>
      <point x="27" y="421"/>
      <point x="171" y="421" type="curve"/>
      <point x="171" y="533"/>
      <point x="171" y="421"/>
    </contour>
    <contour>
      <point x="249" y="0" type="curve"/>
      <point x="249" y="178"/>
      <point x="249" y="355"/>
      <point x="249" y="533" type="curve"/>
      <point x="94" y="533"/>
      <point x="249" y="533"/>
      <point x="94" y="533" type="curve"/>
      <point x="94" y="355"/>
      <point x="94" y="178"/>
      <point x="94" y="0" type="curve"/>
      <point x="249" y="0"/>
      <point x="94" y="0"/>
    </contour>
    <contour>
      <point x="249" y="610" type="line"/>
      <point x="148" y="776" type="line"/>
      <point x="-36" y="776" type="line"/>
      <point x="107" y="610" type="line"/>
    </contour>
  </outline>
</glyph>
<glyph name="iacute" format="1">
  <advance width="334"/>
  <unicode hex="00ED"/>
  <outline>
    <contour>
      <point x="171" y="112" type="curve"/>
      <point x="27" y="112"/>
      <point x="171" y="112"/>
      <point x="27" y="112" type="curve"/>
      <point x="26" y="0"/>
      <point x="27" y="112"/>
      <point x="26" y="0" type="curve"/>
      <point x="75" y="0"/>
      <point x="123" y="0"/>
      <point x="171" y="0" type="curve"/>
      <point x="171" y="112"/>
      <point x="171" y="0"/>
    </contour>
    <contour>
      <point x="171" y="0" type="curve"/>
      <point x="217" y="0"/>
      <point x="263" y="0"/>
      <point x="309" y="0" type="curve"/>
      <point x="309" y="112"/>
      <point x="309" y="0"/>
      <point x="309" y="112" type="curve"/>
      <point x="171" y="112"/>
      <point x="309" y="112"/>
      <point x="171" y="112" type="curve"/>
      <point x="171" y="0"/>
      <point x="171" y="112"/>
    </contour>
    <contour>
      <point x="171" y="533" type="curve"/>
      <point x="123" y="533"/>
      <point x="75" y="533"/>
      <point x="27" y="533" type="curve"/>
      <point x="26" y="421"/>
      <point x="27" y="533"/>
      <point x="26" y="421" type="curve"/>
      <point x="171" y="421"/>
      <point x="26" y="421"/>
      <point x="171" y="421" type="curve"/>
      <point x="171" y="533"/>
      <point x="171" y="421"/>
    </contour>
    <contour>
      <point x="249" y="0" type="curve"/>
      <point x="249" y="178"/>
      <point x="249" y="355"/>
      <point x="249" y="533" type="curve"/>
      <point x="94" y="533"/>
      <point x="249" y="533"/>
      <point x="94" y="533" type="curve"/>
      <point x="94" y="355"/>
      <point x="94" y="178"/>
      <point x="94" y="0" type="curve"/>
      <point x="249" y="0"/>
      <point x="94" y="0"/>
    </contour>
    <contour>
      <point x="238" y="609" type="line"/>
      <point x="380" y="775" type="line"/>
      <point x="196" y="775" type="line"/>
      <point x="97" y="609" type="line"/>
    </contour>
  </outline>
</glyph>
<glyph name="idieresis" format="1">
  <advance width="351"/>
  <unicode hex="00EF"/>
  <outline>
    <contour>
      <point x="178" y="112" type="curve"/>
      <point x="34" y="112"/>
      <point x="178" y="112"/>
      <point x="34" y="112" type="curve"/>
      <point x="33" y="0"/>
      <point x="34" y="112"/>
      <point x="33" y="0" type="curve"/>
      <point x="82" y="0"/>
      <point x="130" y="0"/>
      <point x="178" y="0" type="curve"/>
      <point x="178" y="112"/>
      <point x="178" y="0"/>
    </contour>
    <contour>
      <point x="178" y="0" type="curve"/>
      <point x="224" y="0"/>
      <point x="270" y="0"/>
      <point x="317" y="0" type="curve"/>
      <point x="317" y="112"/>
      <point x="317" y="0"/>
      <point x="317" y="112" type="curve"/>
      <point x="178" y="112"/>
      <point x="317" y="112"/>
      <point x="178" y="112" type="curve"/>
      <point x="178" y="0"/>
      <point x="178" y="112"/>
    </contour>
    <contour>
      <point x="178" y="533" type="curve"/>
      <point x="130" y="533"/>
      <point x="82" y="533"/>
      <point x="34" y="533" type="curve"/>
      <point x="33" y="421"/>
      <point x="34" y="533"/>
      <point x="33" y="421" type="curve"/>
      <point x="178" y="421"/>
      <point x="33" y="421"/>
      <point x="178" y="421" type="curve"/>
      <point x="178" y="533"/>
      <point x="178" y="421"/>
    </contour>
    <contour>
      <point x="256" y="0" type="curve"/>
      <point x="256" y="178"/>
      <point x="256" y="355"/>
      <point x="256" y="533" type="curve"/>
      <point x="101" y="533"/>
      <point x="256" y="533"/>
      <point x="101" y="533" type="curve"/>
      <point x="101" y="355"/>
      <point x="101" y="178"/>
      <point x="101" y="0" type="curve"/>
      <point x="256" y="0"/>
      <point x="101" y="0"/>
    </contour>
    <contour>
      <point x="156" y="677" type="curve"/>
      <point x="156" y="726"/>
      <point x="121" y="750"/>
      <point x="75" y="750" type="curve"/>
      <point x="28" y="750"/>
      <point x="-3" y="724"/>
      <point x="-3" y="677" type="curve"/>
      <point x="156" y="677"/>
      <point x="-3" y="677"/>
      <point x="156" y="677" type="curve"/>
      <point x="156" y="627"/>
      <point x="122" y="605"/>
      <point x="75" y="605" type="curve"/>
      <point x="27" y="605"/>
      <point x="-3" y="629"/>
      <point x="-3" y="677" type="curve"/>
      <point x="156" y="677"/>
      <point x="-3" y="677"/>
    </contour>
    <contour>
      <point x="367" y="677" type="curve"/>
      <point x="367" y="726"/>
      <point x="332" y="750"/>
      <point x="286" y="750" type="curve"/>
      <point x="239" y="750"/>
      <point x="208" y="724"/>
      <point x="208" y="677" type="curve"/>
      <point x="367" y="677"/>
      <point x="208" y="677"/>
      <point x="367" y="677" type="curve"/>
      <point x="367" y="627"/>
      <point x="333" y="605"/>
      <point x="286" y="605" type="curve"/>
      <point x="238" y="605"/>
      <point x="208" y="629"/>
      <point x="208" y="677" type="curve"/>
      <point x="367" y="677"/>
      <point x="208" y="677"/>
    </contour>
  </outline>
</glyph>
<glyph name="divide" format="1">
  <advance width="654"/>
  <unicode hex="00F7"/>
  <outline>
    <contour>
      <point x="49" y="250" type="line"/>
      <point x="603" y="250" type="line"/>
      <point x="603" y="373" type="line"/>
      <point x="49" y="373" type="line"/>
    </contour>
    <contour>
      <point x="401" y="461" type="curve"/>
      <point x="401" y="510"/>
      <point x="367" y="534"/>
      <point x="320" y="534" type="curve"/>
      <point x="273" y="534"/>
      <point x="242" y="508"/>
      <point x="242" y="461" type="curve"/>
      <point x="401" y="461"/>
      <point x="242" y="461"/>
      <point x="401" y="461" type="curve"/>
      <point x="401" y="411"/>
      <point x="368" y="389"/>
      <point x="320" y="389" type="curve"/>
      <point x="273" y="389"/>
      <point x="242" y="413"/>
      <point x="242" y="461" type="curve"/>
      <point x="401" y="461"/>
      <point x="242" y="461"/>
    </contour>
    <contour>
      <point x="400" y="161" type="curve"/>
      <point x="400" y="210"/>
      <point x="367" y="234"/>
      <point x="320" y="234" type="curve"/>
      <point x="273" y="234"/>
      <point x="241" y="208"/>
      <point x="241" y="161" type="curve"/>
      <point x="400" y="161"/>
      <point x="241" y="161"/>
      <point x="400" y="161" type="curve"/>
      <point x="400" y="111"/>
      <point x="367" y="89"/>
      <point x="319" y="89" type="curve"/>
      <point x="273" y="89"/>
      <point x="241" y="114"/>
      <point x="241" y="161" type="curve"/>
      <point x="400" y="161"/>
      <point x="241" y="161"/>
    </contour>
  </outline>
</glyph>
<glyph name="oslash" format="1">
  <advance width="607"/>
  <unicode hex="00F8"/>
  <outline>
    <contour>
      <point x="188" y="-69" type="line"/>
      <point x="509" y="550" type="line"/>
      <point x="415" y="595" type="line"/>
      <point x="97" y="-21" type="line"/>
    </contour>
    <contour>
      <point x="180" y="266" type="curve"/>
      <point x="180" y="351"/>
      <point x="212" y="422"/>
      <point x="297" y="422" type="curve"/>
      <point x="384" y="422"/>
      <point x="420" y="353"/>
      <point x="420" y="265" type="curve"/>
      <point x="420" y="175"/>
      <point x="387" y="111"/>
      <point x="307" y="111" type="curve"/>
      <point x="215" y="111"/>
      <point x="180" y="174"/>
      <point x="180" y="266" type="curve"/>
      <point x="137" y="266"/>
      <point x="82" y="266"/>
      <point x="39" y="266" type="curve"/>
      <point x="39" y="98"/>
      <point x="136" y="-5"/>
      <point x="300" y="-5" type="curve"/>
      <point x="468" y="-5"/>
      <point x="568" y="95"/>
      <point x="568" y="265" type="curve"/>
      <point x="568" y="433"/>
      <point x="471" y="538"/>
      <point x="304" y="538" type="curve"/>
      <point x="136" y="538"/>
      <point x="39" y="433"/>
      <point x="39" y="266" type="curve"/>
      <point x="82" y="266"/>
      <point x="137" y="266"/>
    </contour>
  </outline>
</glyph>
<glyph name="ydieresis" format="1">
  <advance width="663"/>
  <unicode hex="00FF"/>
  <outline>
    <contour>
      <point x="220" y="-187" type="curve"/>
      <point x="109" y="-188"/>
      <point x="220" y="-187"/>
      <point x="109" y="-188" type="curve"/>
      <point x="109" y="-300"/>
      <point x="109" y="-188"/>
      <point x="109" y="-300" type="curve"/>
      <point x="146" y="-300"/>
      <point x="183" y="-299"/>
      <point x="220" y="-299" type="curve"/>
      <point x="220" y="-187"/>
      <point x="220" y="-299"/>
    </contour>
    <contour>
      <point x="145" y="534" type="curve"/>
      <point x="104" y="534"/>
      <point x="62" y="533"/>
      <point x="20" y="533" type="curve"/>
      <point x="19" y="421"/>
      <point x="20" y="533"/>
      <point x="19" y="421" type="curve"/>
      <point x="145" y="422"/>
      <point x="19" y="421"/>
      <point x="145" y="422" type="curve"/>
      <point x="145" y="534"/>
      <point x="145" y="422"/>
    </contour>
    <contour>
      <point x="145" y="422" type="curve"/>
      <point x="292" y="421"/>
      <point x="145" y="422"/>
      <point x="292" y="421" type="curve"/>
      <point x="292" y="533"/>
      <point x="292" y="421"/>
      <point x="292" y="533" type="curve"/>
      <point x="243" y="533"/>
      <point x="195" y="534"/>
      <point x="145" y="534" type="curve"/>
      <point x="145" y="422"/>
      <point x="145" y="534"/>
    </contour>
    <contour>
      <point x="537" y="534" type="curve"/>
      <point x="485" y="534"/>
      <point x="435" y="533"/>
      <point x="384" y="533" type="curve"/>
      <point x="384" y="421"/>
      <point x="384" y="533"/>
      <point x="384" y="421" type="curve"/>
      <point x="537" y="422"/>
      <point x="384" y="421"/>
      <point x="537" y="422" type="curve"/>
      <point x="537" y="534"/>
      <point x="537" y="422"/>
    </contour>
    <contour>
      <point x="537" y="422" type="curve"/>
      <point x="654" y="421"/>
      <point x="537" y="422"/>
      <point x="654" y="421" type="curve"/>
      <point x="654" y="533"/>
      <point x="654" y="421"/>
      <point x="654" y="533" type="curve"/>
      <point x="614" y="533"/>
      <point x="575" y="534"/>
      <point x="537" y="534" type="curve"/>
      <point x="537" y="422"/>
      <point x="537" y="534"/>
    </contour>
    <contour>
      <point x="394" y="-20" type="curve"/>
      <point x="350" y="117"/>
      <point x="243" y="396"/>
      <point x="198" y="533" type="curve"/>
      <point x="48" y="533"/>
      <point x="198" y="533"/>
      <point x="48" y="533" type="curve"/>
      <point x="95" y="397"/>
      <point x="212" y="112"/>
      <point x="260" y="-24" type="curve"/>
      <point x="394" y="-24"/>
      <point x="260" y="-20"/>
    </contour>
    <contour>
      <point x="285" y="-300" type="curve"/>
      <point x="359" y="-96"/>
      <point x="555" y="329"/>
      <point x="630" y="533" type="curve"/>
      <point x="480" y="533"/>
      <point x="630" y="533"/>
      <point x="480" y="533" type="curve"/>
      <point x="405" y="329"/>
      <point x="208" y="-96"/>
      <point x="134" y="-300" type="curve"/>
      <point x="285" y="-300"/>
      <point x="134" y="-300"/>
    </contour>
    <contour>
      <point x="309" y="677" type="curve"/>
      <point x="309" y="726"/>
      <point x="276" y="750"/>
      <point x="229" y="750" type="curve"/>
      <point x="182" y="750"/>
      <point x="151" y="724"/>
      <point x="151" y="677" type="curve"/>
      <point x="309" y="677"/>
      <point x="151" y="677"/>
      <point x="309" y="677" type="curve"/>
      <point x="309" y="627"/>
      <point x="277" y="605"/>
      <point x="229" y="605" type="curve"/>
      <point x="182" y="605"/>
      <point x="151" y="629"/>
      <point x="151" y="677" type="curve"/>
      <point x="309" y="677"/>
      <point x="151" y="677"/>
    </contour>
    <contour>
      <point x="520" y="677" type="curve"/>
      <point x="520" y="726"/>
      <point x="487" y="750"/>
      <point x="440" y="750" type="curve"/>
      <point x="393" y="750"/>
      <point x="361" y="724"/>
      <point x="361" y="677" type="curve"/>
      <point x="520" y="677"/>
      <point x="361" y="677"/>
      <point x="520" y="677" type="curve"/>
      <point x="520" y="627"/>
      <point x="487" y="605"/>
      <point x="440" y="605" type="curve"/>
      <point x="393" y="605"/>
      <point x="361" y="629"/>
      <point x="361" y="677" type="curve"/>
      <point x="520" y="677"/>
      <point x="361" y="677"/>
    </contour>
  </outline>
</glyph>
<glyph name="aogonek" format="1">
  <advance width="592"/>
  <unicode hex="0105"/>
  <outline>
    <contour>
      <point x="71" y="461" type="curve"/>
      <point x="71" y="347"/>
      <point x="71" y="459"/>
      <point x="71" y="345" type="curve"/>
      <point x="186" y="345"/>
      <point x="71" y="345"/>
      <point x="186" y="345" type="curve"/>
      <point x="186" y="459"/>
      <point x="186" y="347"/>
      <point x="186" y="461" type="curve"/>
      <point x="71" y="461"/>
      <point x="186" y="461"/>
    </contour>
    <contour>
      <point x="501" y="0" type="curve"/>
      <point x="501" y="123"/>
      <point x="501" y="245"/>
      <point x="501" y="368" type="curve"/>
      <point x="501" y="494"/>
      <point x="409" y="538"/>
      <point x="282" y="538" type="curve"/>
      <point x="189" y="538"/>
      <point x="122" y="506"/>
      <point x="71" y="461" type="curve"/>
      <point x="126" y="367"/>
      <point x="74" y="460"/>
      <point x="128" y="365" type="curve"/>
      <point x="162" y="392"/>
      <point x="200" y="422"/>
      <point x="261" y="422" type="curve"/>
      <point x="316" y="422"/>
      <point x="354" y="402"/>
      <point x="354" y="347" type="curve"/>
      <point x="354" y="232"/>
      <point x="354" y="115"/>
      <point x="354" y="0" type="curve"/>
      <point x="501" y="0"/>
      <point x="354" y="0"/>
    </contour>
    <contour>
      <point x="430" y="0" type="curve"/>
      <point x="473" y="0"/>
      <point x="518" y="0"/>
      <point x="561" y="0" type="curve"/>
      <point x="561" y="112"/>
      <point x="561" y="0"/>
      <point x="561" y="112" type="curve"/>
      <point x="430" y="112"/>
      <point x="561" y="112"/>
      <point x="430" y="112" type="curve"/>
      <point x="430" y="0"/>
      <point x="430" y="112"/>
    </contour>
    <contour>
      <point x="424" y="348" type="curve"/>
      <point x="355" y="339"/>
      <point x="313" y="336"/>
      <point x="244" y="327" type="curve"/>
      <point x="126" y="311"/>
      <point x="43" y="275"/>
      <point x="43" y="164" type="curve"/>
      <point x="43" y="52"/>
      <point x="111" y="-5"/>
      <point x="225" y="-5" type="curve"/>
      <point x="340" y="-5"/>
      <point x="397" y="75"/>
      <point x="463" y="153" type="curve"/>
      <point x="390" y="214"/>
      <point x="463" y="153"/>
      <point x="390" y="214" type="curve"/>
      <point x="361" y="155"/>
      <point x="322" y="107"/>
      <point x="256" y="107" type="curve"/>
      <point x="210" y="107"/>
      <point x="186" y="127"/>
      <point x="186" y="168" type="curve"/>
      <point x="186" y="203"/>
      <point x="214" y="222"/>
      <point x="245" y="226" type="curve"/>
      <point x="320" y="236"/>
      <point x="356" y="242"/>
      <point x="430" y="252" type="curve"/>
      <point x="424" y="348"/>
      <point x="430" y="252"/>
    </contour>
    <contour>
      <point x="454" y="83" type="curve"/>
      <point x="384" y="50"/>
      <point x="321" y="26"/>
      <point x="321" y="-50" type="curve"/>
      <point x="321" y="-129"/>
      <point x="373" y="-178"/>
      <point x="454" y="-178" type="curve"/>
      <point x="495" y="-178"/>
      <point x="523" y="-167"/>
      <point x="558" y="-145" type="curve"/>
      <point x="491" y="-56"/>
      <point x="558" y="-145"/>
      <point x="491" y="-56" type="curve"/>
      <point x="481" y="-61"/>
      <point x="473" y="-68"/>
      <point x="463" y="-68" type="curve"/>
      <point x="452" y="-68"/>
      <point x="444" y="-60"/>
      <point x="444" y="-49" type="curve"/>
      <point x="444" y="-19"/>
      <point x="480" y="-11"/>
      <point x="508" y="5" type="curve"/>
      <point x="454" y="83"/>
      <point x="508" y="5"/>
    </contour>
  </outline>
</glyph>
<glyph name="emacron" format="1">
  <advance width="563"/>
  <unicode hex="0113"/>
  <outline>
    <contour>
      <point x="115" y="225" type="curve"/>
      <point x="232" y="225"/>
      <point x="349" y="225"/>
      <point x="466" y="225" type="curve"/>
      <point x="528" y="225"/>
      <point x="466" y="225"/>
      <point x="528" y="225" type="curve"/>
      <point x="528" y="270"/>
      <point x="528" y="225"/>
      <point x="528" y="270" type="curve"/>
      <point x="528" y="276"/>
      <point x="528" y="281"/>
      <point x="528" y="287" type="curve"/>
      <point x="528" y="447"/>
      <point x="444" y="538"/>
      <point x="294" y="538" type="curve"/>
      <point x="132" y="538"/>
      <point x="40" y="445"/>
      <point x="40" y="278" type="curve"/>
      <point x="40" y="98"/>
      <point x="139" y="-5"/>
      <point x="313" y="-5" type="curve"/>
      <point x="392" y="-5"/>
      <point x="443" y="20"/>
      <point x="502" y="70" type="curve"/>
      <point x="420" y="153"/>
      <point x="502" y="70"/>
      <point x="420" y="153" type="curve"/>
      <point x="387" y="126"/>
      <point x="354" y="111"/>
      <point x="312" y="111" type="curve"/>
      <point x="218" y="111"/>
      <point x="185" y="178"/>
      <point x="185" y="278" type="curve"/>
      <point x="185" y="363"/>
      <point x="207" y="422"/>
      <point x="287" y="422" type="curve"/>
      <point x="356" y="422"/>
      <point x="388" y="378"/>
      <point x="388" y="303" type="curve"/>
      <point x="388" y="293"/>
      <point x="388" y="284"/>
      <point x="388" y="274" type="curve"/>
      <point x="400" y="285"/>
      <point x="412" y="297"/>
      <point x="425" y="308" type="curve"/>
      <point x="437" y="319"/>
      <point x="454" y="319"/>
      <point x="466" y="330" type="curve"/>
      <point x="349" y="330"/>
      <point x="232" y="330"/>
      <point x="115" y="330" type="curve"/>
      <point x="115" y="218"/>
      <point x="115" y="337"/>
    </contour>
    <contour>
      <point x="395" y="722" type="curve"/>
      <point x="328" y="722"/>
      <point x="261" y="722"/>
      <point x="194" y="722" type="curve"/>
      <point x="194" y="610"/>
      <point x="194" y="722"/>
      <point x="194" y="610" type="curve"/>
      <point x="261" y="610"/>
      <point x="328" y="610"/>
      <point x="395" y="610" type="curve"/>
      <point x="395" y="722"/>
      <point x="395" y="610"/>
    </contour>
  </outline>
</glyph>
<glyph name="Imacron" format="1">
  <advance width="371"/>
  <unicode hex="012A"/>
  <outline>
    <contour>
      <point x="187" y="722" type="curve"/>
      <point x="136" y="722"/>
      <point x="92" y="722"/>
      <point x="42" y="722" type="curve"/>
      <point x="42" y="610"/>
      <point x="42" y="722"/>
      <point x="42" y="610" type="curve"/>
      <point x="194" y="610"/>
      <point x="34" y="610"/>
      <point x="187" y="610" type="curve"/>
      <point x="187" y="722"/>
      <point x="187" y="610"/>
    </contour>
    <contour>
      <point x="187" y="610" type="curve"/>
      <point x="339" y="610"/>
      <point x="179" y="610"/>
      <point x="331" y="610" type="curve"/>
      <point x="331" y="722"/>
      <point x="331" y="610"/>
      <point x="331" y="722" type="curve"/>
      <point x="280" y="722"/>
      <point x="237" y="722"/>
      <point x="187" y="722" type="curve"/>
      <point x="187" y="610"/>
      <point x="187" y="722"/>
    </contour>
    <contour>
      <point x="187" y="0" type="curve"/>
      <point x="237" y="0"/>
      <point x="280" y="0"/>
      <point x="331" y="0" type="curve"/>
      <point x="331" y="112"/>
      <point x="331" y="0"/>
      <point x="331" y="112" type="curve"/>
      <point x="179" y="112"/>
      <point x="339" y="112"/>
      <point x="187" y="112" type="curve"/>
      <point x="187" y="0"/>
      <point x="187" y="112"/>
    </contour>
    <contour>
      <point x="187" y="112" type="curve"/>
      <point x="34" y="112"/>
      <point x="194" y="112"/>
      <point x="42" y="112" type="curve"/>
      <point x="42" y="0"/>
      <point x="42" y="112"/>
      <point x="42" y="0" type="curve"/>
      <point x="92" y="0"/>
      <point x="136" y="0"/>
      <point x="187" y="0" type="curve"/>
      <point x="187" y="112"/>
      <point x="187" y="0"/>
    </contour>
    <contour>
      <point x="259" y="0" type="curve"/>
      <point x="259" y="241"/>
      <point x="259" y="481"/>
      <point x="259" y="722" type="curve"/>
      <point x="111" y="722"/>
      <point x="259" y="722"/>
      <point x="111" y="722" type="curve"/>
      <point x="111" y="481"/>
      <point x="111" y="241"/>
      <point x="111" y="0" type="curve"/>
      <point x="259" y="0"/>
      <point x="111" y="0"/>
    </contour>
    <contour>
      <point x="287" y="892" type="curve"/>
      <point x="220" y="892"/>
      <point x="152" y="892"/>
      <point x="85" y="892" type="curve"/>
      <point x="85" y="780"/>
      <point x="85" y="892"/>
      <point x="85" y="780" type="curve"/>
      <point x="152" y="780"/>
      <point x="220" y="780"/>
      <point x="287" y="780" type="curve"/>
      <point x="287" y="892"/>
      <point x="287" y="780"/>
    </contour>
  </outline>
</glyph>
<glyph name="imacron" format="1">
  <advance width="356"/>
  <unicode hex="012B"/>
  <outline>
    <contour>
      <point x="184" y="112" type="curve"/>
      <point x="40" y="112"/>
      <point x="184" y="112"/>
      <point x="40" y="112" type="curve"/>
      <point x="39" y="0"/>
      <point x="40" y="112"/>
      <point x="39" y="0" type="curve"/>
      <point x="88" y="0"/>
      <point x="136" y="0"/>
      <point x="184" y="0" type="curve"/>
      <point x="184" y="112"/>
      <point x="184" y="0"/>
    </contour>
    <contour>
      <point x="184" y="0" type="curve"/>
      <point x="230" y="0"/>
      <point x="276" y="0"/>
      <point x="322" y="0" type="curve"/>
      <point x="322" y="112"/>
      <point x="322" y="0"/>
      <point x="322" y="112" type="curve"/>
      <point x="184" y="112"/>
      <point x="322" y="112"/>
      <point x="184" y="112" type="curve"/>
      <point x="184" y="0"/>
      <point x="184" y="112"/>
    </contour>
    <contour>
      <point x="184" y="533" type="curve"/>
      <point x="136" y="533"/>
      <point x="88" y="533"/>
      <point x="40" y="533" type="curve"/>
      <point x="39" y="421"/>
      <point x="40" y="533"/>
      <point x="39" y="421" type="curve"/>
      <point x="184" y="421"/>
      <point x="39" y="421"/>
      <point x="184" y="421" type="curve"/>
      <point x="184" y="533"/>
      <point x="184" y="421"/>
    </contour>
    <contour>
      <point x="262" y="0" type="curve"/>
      <point x="262" y="178"/>
      <point x="262" y="355"/>
      <point x="262" y="533" type="curve"/>
      <point x="107" y="533"/>
      <point x="262" y="533"/>
      <point x="107" y="533" type="curve"/>
      <point x="107" y="355"/>
      <point x="107" y="178"/>
      <point x="107" y="0" type="curve"/>
      <point x="262" y="0"/>
      <point x="107" y="0"/>
    </contour>
    <contour>
      <point x="287" y="722" type="curve"/>
      <point x="220" y="722"/>
      <point x="152" y="722"/>
      <point x="85" y="722" type="curve"/>
      <point x="85" y="610"/>
      <point x="85" y="722"/>
      <point x="85" y="610" type="curve"/>
      <point x="152" y="610"/>
      <point x="220" y="610"/>
      <point x="287" y="610" type="curve"/>
      <point x="287" y="722"/>
      <point x="287" y="610"/>
    </contour>
  </outline>
</glyph>
<glyph name="iogonek" format="1">
  <advance width="335"/>
  <unicode hex="012F"/>
  <outline>
    <contour>
      <point x="172" y="112" type="curve"/>
      <point x="20" y="112"/>
      <point x="180" y="112"/>
      <point x="28" y="112" type="curve"/>
      <point x="28" y="0"/>
      <point x="28" y="112"/>
      <point x="28" y="0" type="curve"/>
      <point x="79" y="0"/>
      <point x="122" y="0"/>
      <point x="172" y="0" type="curve"/>
      <point x="172" y="112"/>
      <point x="172" y="0"/>
    </contour>
    <contour>
      <point x="172" y="0" type="curve"/>
      <point x="220" y="0"/>
      <point x="262" y="0"/>
      <point x="311" y="0" type="curve"/>
      <point x="311" y="112"/>
      <point x="311" y="0"/>
      <point x="311" y="112" type="curve"/>
      <point x="167" y="112"/>
      <point x="316" y="112"/>
      <point x="172" y="112" type="curve"/>
      <point x="172" y="0"/>
      <point x="172" y="112"/>
    </contour>
    <contour>
      <point x="172" y="533" type="curve"/>
      <point x="122" y="533"/>
      <point x="79" y="533"/>
      <point x="28" y="533" type="curve"/>
      <point x="28" y="421"/>
      <point x="28" y="533"/>
      <point x="28" y="421" type="curve"/>
      <point x="180" y="421"/>
      <point x="20" y="421"/>
      <point x="172" y="421" type="curve"/>
      <point x="172" y="533"/>
      <point x="172" y="421"/>
    </contour>
    <contour>
      <point x="250" y="0" type="curve"/>
      <point x="250" y="178"/>
      <point x="250" y="355"/>
      <point x="250" y="533" type="curve"/>
      <point x="95" y="533"/>
      <point x="250" y="533"/>
      <point x="95" y="533" type="curve"/>
      <point x="95" y="355"/>
      <point x="95" y="178"/>
      <point x="95" y="0" type="curve"/>
      <point x="250" y="0"/>
      <point x="95" y="0"/>
    </contour>
    <contour>
      <point x="249" y="680" type="curve"/>
      <point x="249" y="729"/>
      <point x="214" y="753"/>
      <point x="168" y="753" type="curve"/>
      <point x="121" y="753"/>
      <point x="90" y="727"/>
      <point x="90" y="680" type="curve"/>
      <point x="249" y="680"/>
      <point x="90" y="680"/>
      <point x="249" y="680" type="curve"/>
      <point x="249" y="630"/>
      <point x="215" y="608"/>
      <point x="168" y="608" type="curve"/>
      <point x="120" y="608"/>
      <point x="90" y="632"/>
      <point x="90" y="680" type="curve"/>
      <point x="249" y="680"/>
      <point x="90" y="680"/>
    </contour>
    <contour>
      <point x="205" y="84" type="curve"/>
      <point x="135" y="50"/>
      <point x="72" y="26"/>
      <point x="72" y="-49" type="curve"/>
      <point x="72" y="-128"/>
      <point x="124" y="-177"/>
      <point x="205" y="-177" type="curve"/>
      <point x="246" y="-177"/>
      <point x="274" y="-166"/>
      <point x="309" y="-144" type="curve"/>
      <point x="242" y="-55"/>
      <point x="309" y="-144"/>
      <point x="242" y="-55" type="curve"/>
      <point x="233" y="-60"/>
      <point x="224" y="-67"/>
      <point x="214" y="-67" type="curve"/>
      <point x="203" y="-67"/>
      <point x="195" y="-59"/>
      <point x="195" y="-48" type="curve"/>
      <point x="195" y="-19"/>
      <point x="231" y="-10"/>
      <point x="259" y="5" type="curve"/>
      <point x="205" y="84"/>
      <point x="259" y="5"/>
    </contour>
  </outline>
</glyph>
<glyph name="Lcommaaccent" format="1">
  <advance width="580"/>
  <unicode hex="013B"/>
  <outline>
    <contour>
      <point x="563" y="56" type="curve"/>
      <point x="563" y="176"/>
      <point x="563" y="56"/>
      <point x="563" y="176" type="curve"/>
      <point x="448" y="176"/>
      <point x="563" y="176"/>
      <point x="448" y="176" type="curve"/>
      <point x="448" y="56"/>
      <point x="448" y="176"/>
      <point x="448" y="56" type="curve"/>
      <point x="563" y="56"/>
      <point x="448" y="56"/>
    </contour>
    <contour>
      <point x="185" y="112" type="curve"/>
      <point x="33" y="112"/>
      <point x="193" y="112"/>
      <point x="41" y="112" type="curve"/>
      <point x="40" y="0"/>
      <point x="41" y="112"/>
      <point x="40" y="0" type="curve"/>
      <point x="91" y="0"/>
      <point x="134" y="0"/>
      <point x="185" y="0" type="curve"/>
      <point x="185" y="112"/>
      <point x="185" y="0"/>
    </contour>
    <contour>
      <point x="185" y="722" type="curve"/>
      <point x="134" y="722"/>
      <point x="91" y="722"/>
      <point x="41" y="722" type="curve"/>
      <point x="40" y="610"/>
      <point x="41" y="722"/>
      <point x="40" y="610" type="curve"/>
      <point x="193" y="610"/>
      <point x="32" y="610"/>
      <point x="185" y="610" type="curve"/>
      <point x="185" y="722"/>
      <point x="185" y="610"/>
    </contour>
    <contour>
      <point x="185" y="610" type="curve"/>
      <point x="337" y="610"/>
      <point x="177" y="610"/>
      <point x="329" y="610" type="curve"/>
      <point x="329" y="722"/>
      <point x="329" y="610"/>
      <point x="329" y="722" type="curve"/>
      <point x="278" y="722"/>
      <point x="235" y="722"/>
      <point x="185" y="722" type="curve"/>
      <point x="185" y="610"/>
      <point x="185" y="722"/>
    </contour>
    <contour>
      <point x="260" y="0" type="curve"/>
      <point x="260" y="241"/>
      <point x="260" y="481"/>
      <point x="260" y="722" type="curve"/>
      <point x="112" y="722"/>
      <point x="260" y="722"/>
      <point x="112" y="722" type="curve"/>
      <point x="112" y="481"/>
      <point x="112" y="241"/>
      <point x="112" y="0" type="curve"/>
      <point x="260" y="0"/>
      <point x="112" y="0"/>
    </contour>
    <contour>
      <point x="185" y="0" type="curve"/>
      <point x="311" y="0"/>
      <point x="437" y="0"/>
      <point x="563" y="0" type="curve"/>
      <point x="563" y="112"/>
      <point x="563" y="0"/>
      <point x="563" y="112" type="curve"/>
      <point x="437" y="112"/>
      <point x="311" y="112"/>
      <point x="185" y="112" type="curve"/>
      <point x="185" y="0"/>
      <point x="185" y="112"/>
    </contour>
    <contour>
      <point x="213" y="-387" type="line"/>
      <point x="316" y="-387"/>
      <point x="387" y="-315"/>
      <point x="387" y="-208" type="curve"/>
      <point x="387" y="-121"/>
      <point x="350" y="-70"/>
      <point x="297" y="-70" type="curve"/>
      <point x="251" y="-70"/>
      <point x="219" y="-95"/>
      <point x="219" y="-143" type="curve"/>
      <point x="219" y="-184"/>
      <point x="245" y="-213"/>
      <point x="289" y="-213" type="curve"/>
      <point x="289" y="-246"/>
      <point x="282" y="-296"/>
      <point x="213" y="-308" type="curve"/>
    </contour>
  </outline>
</glyph>
<glyph name="omacron" format="1">
  <advance width="607"/>
  <unicode hex="014D"/>
  <outline>
    <contour>
      <point x="180" y="266" type="curve"/>
      <point x="180" y="351"/>
      <point x="212" y="422"/>
      <point x="297" y="422" type="curve"/>
      <point x="384" y="422"/>
      <point x="420" y="353"/>
      <point x="420" y="265" type="curve"/>
      <point x="420" y="175"/>
      <point x="387" y="111"/>
      <point x="307" y="111" type="curve"/>
      <point x="215" y="111"/>
      <point x="180" y="174"/>
      <point x="180" y="266" type="curve"/>
      <point x="137" y="266"/>
      <point x="82" y="266"/>
      <point x="39" y="266" type="curve"/>
      <point x="39" y="98"/>
      <point x="136" y="-5"/>
      <point x="300" y="-5" type="curve"/>
      <point x="468" y="-5"/>
      <point x="568" y="95"/>
      <point x="568" y="265" type="curve"/>
      <point x="568" y="433"/>
      <point x="471" y="538"/>
      <point x="304" y="538" type="curve"/>
      <point x="136" y="538"/>
      <point x="39" y="433"/>
      <point x="39" y="266" type="curve"/>
      <point x="82" y="266"/>
      <point x="137" y="266"/>
    </contour>
    <contour>
      <point x="403" y="722" type="curve"/>
      <point x="336" y="722"/>
      <point x="268" y="722"/>
      <point x="201" y="722" type="curve"/>
      <point x="201" y="610"/>
      <point x="201" y="722"/>
      <point x="201" y="610" type="curve"/>
      <point x="268" y="610"/>
      <point x="336" y="610"/>
      <point x="403" y="610" type="curve"/>
      <point x="403" y="722"/>
      <point x="403" y="610"/>
    </contour>
  </outline>
</glyph>
<glyph name="racute" format="1">
  <advance width="436"/>
  <unicode hex="0155"/>
  <outline>
    <contour>
      <point x="196" y="0" type="curve"/>
      <point x="243" y="0"/>
      <point x="285" y="0"/>
      <point x="333" y="0" type="curve"/>
      <point x="333" y="93"/>
      <point x="333" y="19"/>
      <point x="333" y="112" type="curve"/>
      <point x="221" y="112"/>
      <point x="307" y="112"/>
      <point x="196" y="112" type="curve"/>
      <point x="196" y="19"/>
      <point x="196" y="93"/>
    </contour>
    <contour>
      <point x="196" y="112" type="curve"/>
      <point x="78" y="112"/>
      <point x="169" y="112"/>
      <point x="51" y="112" type="curve"/>
      <point x="51" y="19"/>
      <point x="51" y="93"/>
      <point x="51" y="0" type="curve"/>
      <point x="101" y="0"/>
      <point x="145" y="0"/>
      <point x="196" y="0" type="curve"/>
      <point x="196" y="93"/>
      <point x="196" y="19"/>
    </contour>
    <contour>
      <point x="194" y="533" type="curve"/>
      <point x="144" y="533"/>
      <point x="100" y="533"/>
      <point x="50" y="533" type="curve"/>
      <point x="50" y="440"/>
      <point x="50" y="514"/>
      <point x="50" y="421" type="curve"/>
      <point x="168" y="421"/>
      <point x="77" y="421"/>
      <point x="194" y="421" type="curve"/>
      <point x="194" y="514"/>
      <point x="194" y="440"/>
    </contour>
    <contour>
      <point x="269" y="0" type="curve"/>
      <point x="269" y="185"/>
      <point x="269" y="348"/>
      <point x="269" y="533" type="curve"/>
      <point x="147" y="533"/>
      <point x="243" y="533"/>
      <point x="121" y="533" type="curve"/>
      <point x="121" y="348"/>
      <point x="121" y="185"/>
      <point x="121" y="0" type="curve"/>
      <point x="243" y="0"/>
      <point x="147" y="0"/>
    </contour>
    <contour>
      <point x="236" y="277" type="curve"/>
      <point x="276" y="391"/>
      <point x="337" y="416"/>
      <point x="419" y="416" type="curve"/>
      <point x="419" y="515"/>
      <point x="419" y="439"/>
      <point x="419" y="538" type="curve"/>
      <point x="308" y="538"/>
      <point x="235" y="455"/>
      <point x="185" y="338" type="curve"/>
      <point x="226" y="289"/>
      <point x="195" y="326"/>
    </contour>
    <contour>
      <point x="289" y="609" type="line"/>
      <point x="432" y="775" type="line"/>
      <point x="248" y="775" type="line"/>
      <point x="148" y="609" type="line"/>
    </contour>
  </outline>
</glyph>
<glyph name="Sacute" format="1">
  <advance width="607"/>
  <unicode hex="015A"/>
  <outline>
    <contour>
      <point x="396" y="661" type="curve"/>
      <point x="396" y="541"/>
      <point x="396" y="635"/>
      <point x="396" y="515" type="curve"/>
      <point x="510" y="515"/>
      <point x="396" y="515"/>
      <point x="510" y="515" type="curve"/>
      <point x="510" y="635"/>
      <point x="510" y="541"/>
      <point x="510" y="661" type="curve"/>
      <point x="396" y="661"/>
      <point x="510" y="661"/>
    </contour>
    <contour>
      <point x="187" y="53" type="curve"/>
      <point x="187" y="173"/>
      <point x="187" y="89"/>
      <point x="187" y="209" type="curve"/>
      <point x="72" y="209"/>
      <point x="187" y="209"/>
      <point x="72" y="209" type="curve"/>
      <point x="72" y="89"/>
      <point x="72" y="173"/>
      <point x="72" y="53" type="curve"/>
      <point x="187" y="53"/>
      <point x="72" y="53"/>
    </contour>
    <contour>
      <point x="73" y="53" type="curve"/>
      <point x="143" y="10"/>
      <point x="205" y="-5"/>
      <point x="289" y="-5" type="curve"/>
      <point x="439" y="-5"/>
      <point x="560" y="56"/>
      <point x="560" y="194" type="curve"/>
      <point x="560" y="313"/>
      <point x="469" y="367"/>
      <point x="358" y="420" type="curve" smooth="yes"/>
      <point x="287" y="453"/>
      <point x="214" y="490"/>
      <point x="214" y="540" type="curve"/>
      <point x="212" y="585"/>
      <point x="251" y="613"/>
      <point x="302" y="613" type="curve"/>
      <point x="357" y="613"/>
      <point x="401" y="590"/>
      <point x="443" y="570" type="curve"/>
      <point x="511" y="660"/>
      <point x="442" y="571"/>
      <point x="510" y="661" type="curve"/>
      <point x="444" y="701"/>
      <point x="386" y="720"/>
      <point x="306" y="720" type="curve"/>
      <point x="170" y="720"/>
      <point x="66" y="657"/>
      <point x="66" y="533" type="curve"/>
      <point x="66" y="418"/>
      <point x="156" y="364"/>
      <point x="262" y="314" type="curve" smooth="yes"/>
      <point x="336" y="280"/>
      <point x="412" y="243"/>
      <point x="412" y="193" type="curve"/>
      <point x="412" y="149"/>
      <point x="360" y="113"/>
      <point x="296" y="113" type="curve"/>
      <point x="240" y="113"/>
      <point x="201" y="132"/>
      <point x="153" y="160" type="curve"/>
      <point x="73" y="53"/>
      <point x="154" y="159"/>
    </contour>
    <contour>
      <point x="369" y="779" type="line"/>
      <point x="512" y="945" type="line"/>
      <point x="328" y="945" type="line"/>
      <point x="228" y="779" type="line"/>
    </contour>
  </outline>
</glyph>
<glyph name="Tcommaaccent" format="1">
  <advance width="600"/>
  <unicode hex="0162"/>
  <outline>
    <contour>
      <point x="22" y="665" type="curve"/>
      <point x="22" y="545"/>
      <point x="22" y="665"/>
      <point x="22" y="545" type="curve"/>
      <point x="136" y="545"/>
      <point x="22" y="545"/>
      <point x="136" y="545" type="curve"/>
      <point x="136" y="665"/>
      <point x="136" y="545"/>
      <point x="136" y="665" type="curve"/>
      <point x="22" y="665"/>
      <point x="136" y="665"/>
    </contour>
    <contour>
      <point x="463" y="665" type="curve"/>
      <point x="463" y="545"/>
      <point x="463" y="665"/>
      <point x="463" y="545" type="curve"/>
      <point x="578" y="545"/>
      <point x="463" y="545"/>
      <point x="578" y="545" type="curve"/>
      <point x="578" y="665"/>
      <point x="578" y="545"/>
      <point x="578" y="665" type="curve"/>
      <point x="463" y="665"/>
      <point x="578" y="665"/>
    </contour>
    <contour>
      <point x="299" y="0" type="curve"/>
      <point x="347" y="0"/>
      <point x="395" y="0"/>
      <point x="443" y="0" type="curve"/>
      <point x="443" y="112"/>
      <point x="443" y="0"/>
      <point x="443" y="112" type="curve"/>
      <point x="299" y="112"/>
      <point x="443" y="112"/>
      <point x="299" y="112" type="curve"/>
      <point x="299" y="0"/>
      <point x="299" y="112"/>
    </contour>
    <contour>
      <point x="299" y="112" type="curve"/>
      <point x="154" y="112"/>
      <point x="299" y="112"/>
      <point x="154" y="112" type="curve"/>
      <point x="154" y="0"/>
      <point x="154" y="112"/>
      <point x="154" y="0" type="curve"/>
      <point x="203" y="0"/>
      <point x="251" y="0"/>
      <point x="299" y="0" type="curve"/>
      <point x="299" y="112"/>
      <point x="299" y="0"/>
    </contour>
    <contour>
      <point x="374" y="0" type="curve"/>
      <point x="374" y="237"/>
      <point x="374" y="473"/>
      <point x="374" y="710" type="curve"/>
      <point x="226" y="710"/>
      <point x="374" y="710"/>
      <point x="226" y="710" type="curve"/>
      <point x="226" y="473"/>
      <point x="226" y="237"/>
      <point x="226" y="0" type="curve"/>
      <point x="374" y="0"/>
      <point x="226" y="0"/>
    </contour>
    <contour>
      <point x="22" y="603" type="curve"/>
      <point x="207" y="603"/>
      <point x="392" y="603"/>
      <point x="578" y="603" type="curve"/>
      <point x="578" y="727"/>
      <point x="578" y="598"/>
      <point x="578" y="722" type="curve"/>
      <point x="392" y="722"/>
      <point x="207" y="722"/>
      <point x="22" y="722" type="curve"/>
      <point x="22" y="598"/>
      <point x="22" y="727"/>
    </contour>
    <contour>
      <point x="229" y="-396" type="line"/>
      <point x="333" y="-396"/>
      <point x="403" y="-324"/>
      <point x="403" y="-217" type="curve"/>
      <point x="403" y="-130"/>
      <point x="366" y="-79"/>
      <point x="314" y="-79" type="curve"/>
      <point x="267" y="-79"/>
      <point x="235" y="-104"/>
      <point x="235" y="-152" type="curve"/>
      <point x="235" y="-194"/>
      <point x="262" y="-222"/>
      <point x="306" y="-222" type="curve"/>
      <point x="305" y="-255"/>
      <point x="299" y="-306"/>
      <point x="229" y="-317" type="curve"/>
    </contour>
  </outline>
</glyph>
<glyph name="tcommaaccent" format="1">
  <advance width="379"/>
  <unicode hex="0163"/>
  <outline>
    <contour>
      <point x="13" y="420" type="curve"/>
      <point x="350" y="420" type="line"/>
      <point x="350" y="533"/>
      <point x="350" y="420"/>
      <point x="350" y="533" type="curve"/>
      <point x="13" y="533" type="line"/>
      <point x="13" y="420"/>
      <point x="13" y="533"/>
    </contour>
    <contour>
      <point x="316" y="127" type="curve"/>
      <point x="298" y="116"/>
      <point x="285" y="112"/>
      <point x="266" y="112" type="curve"/>
      <point x="231" y="112"/>
      <point x="224" y="138"/>
      <point x="224" y="176" type="curve"/>
      <point x="224" y="684" type="line"/>
      <point x="119" y="618"/>
      <point x="182" y="661"/>
      <point x="77" y="595" type="curve"/>
      <point x="77" y="171" type="line"/>
      <point x="77" y="56"/>
      <point x="137" y="-6"/>
      <point x="246" y="-6" type="curve"/>
      <point x="296" y="-6"/>
      <point x="330" y="9"/>
      <point x="369" y="30" type="curve"/>
      <point x="316" y="127"/>
      <point x="369" y="30"/>
    </contour>
    <contour>
      <point x="161" y="-390" type="line"/>
      <point x="265" y="-390"/>
      <point x="335" y="-319"/>
      <point x="335" y="-211" type="curve"/>
      <point x="335" y="-124"/>
      <point x="298" y="-73"/>
      <point x="245" y="-73" type="curve"/>
      <point x="199" y="-73"/>
      <point x="167" y="-98"/>
      <point x="167" y="-146" type="curve"/>
      <point x="167" y="-188"/>
      <point x="194" y="-217"/>
      <point x="238" y="-217" type="curve"/>
      <point x="237" y="-249"/>
      <point x="230" y="-300"/>
      <point x="161" y="-311" type="curve"/>
    </contour>
  </outline>
</glyph>
<glyph name="uring" format="1">
  <advance width="670"/>
  <unicode hex="016F"/>
  <outline>
    <contour>
      <point x="493" y="533" type="curve"/>
      <point x="444" y="533"/>
      <point x="398" y="533"/>
      <point x="348" y="533" type="curve"/>
      <point x="348" y="441"/>
      <point x="348" y="513"/>
      <point x="348" y="421" type="curve"/>
      <point x="466" y="421"/>
      <point x="376" y="421"/>
      <point x="493" y="421" type="curve"/>
      <point x="493" y="513"/>
      <point x="493" y="441"/>
    </contour>
    <contour>
      <point x="166" y="533" type="curve"/>
      <point x="117" y="533"/>
      <point x="70" y="533"/>
      <point x="21" y="533" type="curve"/>
      <point x="21" y="441"/>
      <point x="21" y="513"/>
      <point x="21" y="421" type="curve"/>
      <point x="139" y="421"/>
      <point x="49" y="421"/>
      <point x="166" y="421" type="curve"/>
      <point x="166" y="513"/>
      <point x="166" y="441"/>
    </contour>
    <contour>
      <point x="493" y="0" type="curve"/>
      <point x="539" y="0"/>
      <point x="582" y="0"/>
      <point x="628" y="0" type="curve"/>
      <point x="628" y="92"/>
      <point x="628" y="20"/>
      <point x="628" y="112" type="curve"/>
      <point x="519" y="112"/>
      <point x="603" y="112"/>
      <point x="493" y="112" type="curve"/>
      <point x="493" y="20"/>
      <point x="493" y="92"/>
    </contour>
    <contour>
      <point x="567" y="0" type="curve"/>
      <point x="567" y="182"/>
      <point x="567" y="351"/>
      <point x="567" y="533" type="curve"/>
      <point x="446" y="533"/>
      <point x="540" y="533"/>
      <point x="419" y="533" type="curve"/>
      <point x="419" y="351"/>
      <point x="419" y="182"/>
      <point x="419" y="0" type="curve"/>
      <point x="540" y="0"/>
      <point x="446" y="0"/>
    </contour>
    <contour>
      <point x="453" y="241" type="curve"/>
      <point x="426" y="177"/>
      <point x="389" y="111"/>
      <point x="321" y="111" type="curve"/>
      <point x="261" y="111"/>
      <point x="240" y="156"/>
      <point x="240" y="220" type="curve"/>
      <point x="240" y="327"/>
      <point x="240" y="426"/>
      <point x="240" y="533" type="curve"/>
      <point x="119" y="533"/>
      <point x="213" y="533"/>
      <point x="92" y="533" type="curve"/>
      <point x="92" y="424"/>
      <point x="92" y="323"/>
      <point x="92" y="215" type="curve"/>
      <point x="92" y="80"/>
      <point x="157" y="-5"/>
      <point x="298" y="-5" type="curve"/>
      <point x="403" y="-5"/>
      <point x="468" y="78"/>
      <point x="510" y="189" type="curve"/>
      <point x="464" y="228"/>
      <point x="499" y="203"/>
    </contour>
    <contour>
      <point x="145" y="756" type="curve"/>
      <point x="145" y="662"/>
      <point x="210" y="607"/>
      <point x="307" y="607" type="curve"/>
      <point x="404" y="607"/>
      <point x="470" y="661"/>
      <point x="470" y="756" type="curve"/>
      <point x="470" y="851"/>
      <point x="403" y="904"/>
      <point x="305" y="904" type="curve"/>
      <point x="208" y="904"/>
      <point x="145" y="850"/>
      <point x="145" y="756" type="curve"/>
      <point x="273" y="756"/>
      <point x="137" y="756"/>
      <point x="265" y="756" type="curve"/>
      <point x="265" y="783"/>
      <point x="274" y="805"/>
      <point x="305" y="805" type="curve"/>
      <point x="335" y="805"/>
      <point x="347" y="785"/>
      <point x="347" y="756" type="curve"/>
      <point x="347" y="728"/>
      <point x="337" y="707"/>
      <point x="307" y="707" type="curve"/>
      <point x="276" y="707"/>
      <point x="265" y="728"/>
      <point x="265" y="756" type="curve"/>
      <point x="137" y="756"/>
      <point x="273" y="756"/>
    </contour>
  </outline>
</glyph>
<glyph name="Ydieresis" format="1">
  <advance width="630"/>
  <unicode hex="0178"/>
  <outline>
    <contour>
      <point x="311" y="112" type="curve"/>
      <point x="167" y="112"/>
      <point x="311" y="112"/>
      <point x="167" y="112" type="curve"/>
      <point x="167" y="0"/>
      <point x="167" y="112"/>
      <point x="167" y="0" type="curve"/>
      <point x="215" y="0"/>
      <point x="263" y="0"/>
      <point x="311" y="0" type="curve"/>
      <point x="311" y="112"/>
      <point x="311" y="0"/>
    </contour>
    <contour>
      <point x="311" y="0" type="curve"/>
      <point x="360" y="0"/>
      <point x="408" y="0"/>
      <point x="455" y="0" type="curve"/>
      <point x="455" y="112"/>
      <point x="455" y="0"/>
      <point x="455" y="112" type="curve"/>
      <point x="311" y="112"/>
      <point x="455" y="112"/>
      <point x="311" y="112" type="curve"/>
      <point x="311" y="0"/>
      <point x="311" y="112"/>
    </contour>
    <contour>
      <point x="491" y="722" type="curve"/>
      <point x="446" y="722"/>
      <point x="400" y="722"/>
      <point x="354" y="722" type="curve"/>
      <point x="354" y="610"/>
      <point x="354" y="722"/>
      <point x="354" y="610" type="curve"/>
      <point x="491" y="610"/>
      <point x="354" y="610"/>
      <point x="491" y="610" type="curve"/>
      <point x="491" y="722"/>
      <point x="491" y="610"/>
    </contour>
    <contour>
      <point x="127" y="722" type="curve"/>
      <point x="90" y="722"/>
      <point x="53" y="722"/>
      <point x="16" y="722" type="curve"/>
      <point x="15" y="610"/>
      <point x="16" y="722"/>
      <point x="15" y="610" type="curve"/>
      <point x="127" y="610"/>
      <point x="15" y="610"/>
      <point x="127" y="610" type="curve"/>
      <point x="127" y="722"/>
      <point x="127" y="610"/>
    </contour>
    <contour>
      <point x="142" y="610" type="curve"/>
      <point x="279" y="610"/>
      <point x="142" y="610"/>
      <point x="279" y="610" type="curve"/>
      <point x="279" y="722"/>
      <point x="279" y="610"/>
      <point x="279" y="722" type="curve"/>
      <point x="234" y="722"/>
      <point x="188" y="722"/>
      <point x="142" y="722" type="curve"/>
      <point x="142" y="610"/>
      <point x="142" y="722"/>
    </contour>
    <contour>
      <point x="506" y="610" type="curve"/>
      <point x="623" y="610"/>
      <point x="506" y="610"/>
      <point x="623" y="610" type="curve"/>
      <point x="623" y="722"/>
      <point x="623" y="610"/>
      <point x="623" y="722" type="curve"/>
      <point x="584" y="722"/>
      <point x="545" y="722"/>
      <point x="506" y="722" type="curve"/>
      <point x="506" y="610"/>
      <point x="506" y="722"/>
    </contour>
    <contour>
      <point x="35" y="711" type="curve"/>
      <point x="102" y="587"/>
      <point x="166" y="464"/>
      <point x="232" y="337" type="curve"/>
      <point x="382" y="337"/>
      <point x="216" y="337"/>
      <point x="366" y="337" type="curve"/>
      <point x="303" y="469"/>
      <point x="241" y="592"/>
      <point x="175" y="722" type="curve"/>
      <point x="35" y="722"/>
      <point x="175" y="711"/>
    </contour>
    <contour>
      <point x="459" y="722" type="curve"/>
      <point x="387" y="590"/>
      <point x="322" y="468"/>
      <point x="249" y="337" type="curve"/>
      <point x="399" y="337"/>
      <point x="240" y="337"/>
      <point x="390" y="337" type="curve"/>
      <point x="460" y="464"/>
      <point x="529" y="587"/>
      <point x="600" y="712" type="curve"/>
      <point x="459" y="712"/>
      <point x="600" y="722"/>
    </contour>
    <contour>
      <point x="392" y="0" type="curve"/>
      <point x="392" y="115"/>
      <point x="392" y="224"/>
      <point x="392" y="339" type="curve"/>
      <point x="231" y="339"/>
      <point x="392" y="339"/>
      <point x="231" y="339" type="curve"/>
      <point x="231" y="224"/>
      <point x="231" y="115"/>
      <point x="231" y="0" type="curve"/>
      <point x="392" y="0"/>
      <point x="231" y="0"/>
    </contour>
    <contour>
      <point x="292" y="847" type="curve"/>
      <point x="292" y="896"/>
      <point x="258" y="920"/>
      <point x="211" y="920" type="curve"/>
      <point x="164" y="920"/>
      <point x="133" y="894"/>
      <point x="133" y="847" type="curve"/>
      <point x="292" y="847"/>
      <point x="133" y="847"/>
      <point x="292" y="847" type="curve"/>
      <point x="292" y="797"/>
      <point x="259" y="775"/>
      <point x="211" y="775" type="curve"/>
      <point x="164" y="775"/>
      <point x="133" y="799"/>
      <point x="133" y="847" type="curve"/>
      <point x="292" y="847"/>
      <point x="133" y="847"/>
    </contour>
    <contour>
      <point x="502" y="847" type="curve"/>
      <point x="502" y="896"/>
      <point x="469" y="920"/>
      <point x="422" y="920" type="curve"/>
      <point x="375" y="920"/>
      <point x="344" y="894"/>
      <point x="344" y="847" type="curve"/>
      <point x="502" y="847"/>
      <point x="344" y="847"/>
      <point x="502" y="847" type="curve"/>
      <point x="502" y="797"/>
      <point x="470" y="775"/>
      <point x="422" y="775" type="curve"/>
      <point x="375" y="775"/>
      <point x="344" y="799"/>
      <point x="344" y="847" type="curve"/>
      <point x="502" y="847"/>
      <point x="344" y="847"/>
    </contour>
  </outline>
</glyph>
<glyph name="scommaaccent" format="1">
  <advance width="511"/>
  <unicode hex="0219"/>
  <outline>
    <contour>
      <point x="52" y="47" type="curve"/>
      <point x="120" y="15"/>
      <point x="179" y="-5"/>
      <point x="251" y="-5" type="curve"/>
      <point x="380" y="-5"/>
      <point x="472" y="45"/>
      <point x="472" y="163" type="curve"/>
      <point x="471" y="268"/>
      <point x="383" y="295"/>
      <point x="274" y="328" type="curve"/>
      <point x="229" y="341"/>
      <point x="189" y="355"/>
      <point x="189" y="388" type="curve"/>
      <point x="189" y="408"/>
      <point x="213" y="422"/>
      <point x="247" y="422" type="curve"/>
      <point x="285" y="422"/>
      <point x="331" y="407"/>
      <point x="356" y="392" type="curve"/>
      <point x="424" y="493"/>
      <point x="356" y="392"/>
      <point x="424" y="493" type="curve"/>
      <point x="384" y="517"/>
      <point x="311" y="538"/>
      <point x="251" y="538" type="curve"/>
      <point x="135" y="538"/>
      <point x="55" y="492"/>
      <point x="55" y="387" type="curve"/>
      <point x="55" y="290"/>
      <point x="125" y="250"/>
      <point x="227" y="220" type="curve"/>
      <point x="279" y="205"/>
      <point x="330" y="193"/>
      <point x="330" y="155" type="curve"/>
      <point x="330" y="129"/>
      <point x="300" y="113"/>
      <point x="263" y="113" type="curve"/>
      <point x="212" y="113"/>
      <point x="174" y="126"/>
      <point x="126" y="148" type="curve"/>
      <point x="52" y="47"/>
      <point x="126" y="148"/>
    </contour>
    <contour>
      <point x="309" y="493" type="curve"/>
      <point x="309" y="364"/>
      <point x="309" y="488"/>
      <point x="309" y="359" type="curve"/>
      <point x="424" y="359"/>
      <point x="309" y="359"/>
      <point x="424" y="359" type="curve"/>
      <point x="424" y="488"/>
      <point x="424" y="364"/>
      <point x="424" y="493" type="curve"/>
      <point x="309" y="493"/>
      <point x="424" y="493"/>
    </contour>
    <contour>
      <point x="166" y="47" type="curve"/>
      <point x="166" y="178"/>
      <point x="166" y="54"/>
      <point x="166" y="186" type="curve"/>
      <point x="51" y="186"/>
      <point x="166" y="186"/>
      <point x="51" y="186" type="curve"/>
      <point x="51" y="54"/>
      <point x="51" y="178"/>
      <point x="51" y="47" type="curve"/>
      <point x="166" y="47"/>
      <point x="51" y="47"/>
    </contour>
    <contour>
      <point x="166" y="-393" type="line"/>
      <point x="270" y="-393"/>
      <point x="340" y="-321"/>
      <point x="340" y="-214" type="curve"/>
      <point x="340" y="-127"/>
      <point x="303" y="-76"/>
      <point x="251" y="-76" type="curve"/>
      <point x="204" y="-76"/>
      <point x="172" y="-101"/>
      <point x="172" y="-149" type="curve"/>
      <point x="172" y="-190"/>
      <point x="199" y="-219"/>
      <point x="243" y="-219" type="curve"/>
      <point x="242" y="-252"/>
      <point x="236" y="-302"/>
      <point x="166" y="-314" type="curve"/>
    </contour>
  </outline>
</glyph>
<glyph name="caron" format="1">
  <advance width="567"/>
  <unicode hex="02C7"/>
  <outline>
    <contour>
      <point x="270" y="577" type="move" name="_top"/>
    </contour>
    <contour>
      <point x="352" y="744" type="line"/>
      <point x="210" y="578" type="line"/>
      <point x="394" y="578" type="line"/>
      <point x="494" y="744" type="line"/>
    </contour>
    <contour>
      <point x="49" y="744" type="line"/>
      <point x="150" y="578" type="line"/>
      <point x="334" y="578" type="line"/>
      <point x="191" y="744" type="line"/>
    </contour>
  </outline>
</glyph>
<glyph name="breve" format="1">
  <advance width="372"/>
  <unicode hex="02D8"/>
  <outline>
    <contour>
      <point x="142" y="529" type="move" name="_top"/>
    </contour>
    <contour>
      <point x="192" y="693" type="curve"/>
      <point x="192" y="660"/>
      <point x="178" y="636"/>
      <point x="143" y="636" type="curve"/>
      <point x="107" y="636"/>
      <point x="92" y="659"/>
      <point x="92" y="694" type="curve"/>
      <point x="-17" y="694"/>
      <point x="66" y="694"/>
      <point x="-43" y="694" type="curve"/>
      <point x="-43" y="589"/>
      <point x="29" y="531"/>
      <point x="139" y="531" type="curve"/>
      <point x="251" y="531"/>
      <point x="326" y="587"/>
      <point x="326" y="693" type="curve"/>
      <point x="218" y="693"/>
      <point x="301" y="693"/>
    </contour>
  </outline>
</glyph>
<glyph name="dvAnusvara" format="1">
  <advance width="0"/>
  <unicode hex="0902"/>
  <outline>
    <contour>
      <point x="-63" y="766" type="move" name="_abvm.e"/>
    </contour>
    <contour>
      <point x="-63" y="933" type="curve"/>
      <point x="-63" y="977"/>
      <point x="-93" y="1004"/>
      <point x="-137" y="1004" type="curve"/>
      <point x="-182" y="1004"/>
      <point x="-212" y="976"/>
      <point x="-212" y="933" type="curve"/>
      <point x="-123" y="933"/>
      <point x="-153" y="933"/>
      <point x="-63" y="933" type="curve"/>
      <point x="-63" y="888"/>
      <point x="-93" y="862"/>
      <point x="-137" y="862" type="curve"/>
      <point x="-182" y="862"/>
      <point x="-212" y="890"/>
      <point x="-212" y="933" type="curve"/>
      <point x="-123" y="933"/>
      <point x="-153" y="933"/>
    </contour>
  </outline>
</glyph>
<glyph name="dvU" format="1">
  <advance width="510"/>
  <unicode hex="0909"/>
  <outline>
    <contour>
      <point x="47" y="148" type="curve"/>
      <point x="98" y="89"/>
      <point x="165" y="57"/>
      <point x="251" y="57" type="curve"/>
      <point x="386" y="53"/>
      <point x="480" y="124"/>
      <point x="480" y="253" type="curve"/>
      <point x="477" y="392"/>
      <point x="361" y="439"/>
      <point x="211" y="439" type="curve"/>
      <point x="211" y="405"/>
      <point x="211" y="379"/>
      <point x="211" y="344" type="curve"/>
      <point x="281" y="344"/>
      <point x="335" y="324"/>
      <point x="336" y="258" type="curve"/>
      <point x="336" y="203"/>
      <point x="305" y="171"/>
      <point x="253" y="173" type="curve"/>
      <point x="208" y="173"/>
      <point x="179" y="190"/>
      <point x="148" y="221" type="curve"/>
      <point x="110" y="194"/>
      <point x="84" y="175"/>
    </contour>
    <contour>
      <point x="249" y="614" type="line"/>
      <point x="292" y="614"/>
      <point x="319" y="577"/>
      <point x="318" y="536" type="curve"/>
      <point x="318" y="484"/>
      <point x="271" y="464"/>
      <point x="211" y="464" type="curve"/>
      <point x="211" y="426"/>
      <point x="211" y="401"/>
      <point x="211" y="363" type="curve"/>
      <point x="356" y="363"/>
      <point x="466" y="418"/>
      <point x="466" y="545" type="curve"/>
      <point x="466" y="656"/>
      <point x="386" y="712"/>
      <point x="267" y="712" type="curve"/>
    </contour>
    <component base="dvTopbar" xScale="0.944601472922" xOffset="-1"/>
  </outline>
</glyph>
<glyph name="dvNGA" format="1">
  <advance width="655"/>
  <unicode hex="0919"/>
  <outline>
    <contour>
      <point x="353" y="-59" type="move" name="blwm.virama"/>
    </contour>
    <contour>
      <point x="425" y="720" type="move" name="abvm.e"/>
    </contour>
    <contour>
      <point x="368" y="-144" type="move" name="blwm.u"/>
    </contour>
    <component base="dvDDA" xOffset="-1"/>
    <component base="dvAnusvara" xOffset="675" yOffset="-575"/>
    <component base="dvTopbar" xOffset="121"/>
  </outline>
</glyph>
<glyph name="dvDA" format="1">
  <advance width="539"/>
  <unicode hex="0926"/>
  <outline>
    <contour>
      <point x="469" y="-49" type="move" name="blwm.virama"/>
    </contour>
    <contour>
      <point x="450" y="719" type="move" name="abvm.e"/>
    </contour>
    <contour>
      <point x="469" y="-30" type="move" name="blwm.u"/>
    </contour>
    <component base="dvDA_base"/>
    <component base="dvTopbar"/>
    <component base="dvStroke_down" yScale="1.04149477874" xOffset="-8" yOffset="18"/>
  </outline>
</glyph>
<glyph name="dvBA" format="1">
  <advance width="579"/>
  <unicode hex="092C"/>
  <outline>
    <contour>
      <point x="388" y="288" type="curve"/>
      <point x="362" y="228"/>
      <point x="331" y="182"/>
      <point x="270" y="182" type="curve"/>
      <point x="204" y="182"/>
      <point x="164" y="237"/>
      <point x="164" y="313" type="curve"/>
      <point x="164" y="384"/>
      <point x="200" y="435"/>
      <point x="269" y="435" type="curve"/>
      <point x="327" y="435"/>
      <point x="370" y="396"/>
      <point x="396" y="346" type="curve"/>
      <point x="453" y="407"/>
      <point x="412" y="354"/>
      <point x="469" y="415" type="curve"/>
      <point x="429" y="495"/>
      <point x="355" y="548"/>
      <point x="253" y="548" type="curve"/>
      <point x="122" y="548"/>
      <point x="26" y="462"/>
      <point x="26" y="314" type="curve"/>
      <point x="26" y="164"/>
      <point x="116" y="65"/>
      <point x="252" y="65" type="curve"/>
      <point x="370" y="65"/>
      <point x="446" y="135"/>
      <point x="488" y="247" type="curve"/>
      <point x="406" y="282"/>
      <point x="470" y="252"/>
    </contour>
    <component base="dvDiagonal" xOffset="-14" yOffset="5"/>
    <component base="dvTopbar" xScale="0.789662488833" xOffset="-3"/>
    <component base="dvStemright" xOffset="282"/>
  </outline>
</glyph>
<glyph name="dvLA" format="1">
  <advance width="790"/>
  <unicode hex="0932"/>
  <outline>
    <contour>
      <point x="651" y="29" type="move" name="blwm.virama"/>
    </contour>
    <contour>
      <point x="611" y="718" type="move" name="abvm.e"/>
    </contour>
    <contour>
      <point x="640" y="-44" type="move" name="blwm.u"/>
    </contour>
    <component base="dvLA_base"/>
    <component base="dvTopbar" xScale="1.43342061679" xOffset="9"/>
    <component base="dvStem_short" xOffset="303"/>
  </outline>
</glyph>
<glyph name="dvLLA" format="1">
  <advance width="806"/>
  <unicode hex="0933"/>
  <outline>
    <contour>
      <point x="659" y="-11" type="move" name="blwm.virama"/>
    </contour>
    <contour>
      <point x="630" y="719" type="move" name="abvm.e"/>
    </contour>
    <contour>
      <point x="659" y="-82" type="move" name="blwm.u"/>
    </contour>
    <component base="dvLL"/>
    <component base="dvStem_short" xOffset="328" yOffset="-17"/>
  </outline>
</glyph>
<glyph name="dvmI" format="1">
  <advance width="273"/>
  <unicode hex="093F"/>
  <outline>
    <contour>
      <point x="218" y="689" type="curve"/>
      <point x="207" y="722"/>
      <point x="201" y="746"/>
      <point x="201" y="780" type="curve"/>
      <point x="201" y="861"/>
      <point x="264" y="884"/>
      <point x="328" y="884" type="curve"/>
      <point x="499" y="884"/>
      <point x="625" y="786"/>
      <point x="707" y="639" type="curve"/>
      <point x="739" y="667"/>
      <point x="771" y="676"/>
      <point x="804" y="705" type="curve"/>
      <point x="690" y="884"/>
      <point x="545" y="1001"/>
      <point x="330" y="1001" type="curve"/>
      <point x="190" y="1001"/>
      <point x="68" y="954"/>
      <point x="68" y="770" type="curve"/>
      <point x="68" y="714"/>
      <point x="84" y="679"/>
      <point x="108" y="633" type="curve"/>
      <point x="147" y="656"/>
      <point x="180" y="665"/>
    </contour>
    <component base="dvmAA"/>
  </outline>
</glyph>
<glyph name="dvmII" format="1">
  <advance width="273"/>
  <unicode hex="0940"/>
  <outline>
    <contour>
      <point x="199" y="656" type="line"/>
      <point x="182" y="782" type="line" smooth="yes"/>
      <point x="161" y="937"/>
      <point x="101" y="1015"/>
      <point x="-15" y="1015" type="curve"/>
      <point x="-142" y="1015"/>
      <point x="-199" y="886"/>
      <point x="-211" y="710" type="curve"/>
      <point x="-90" y="651" type="line"/>
      <point x="-81" y="765"/>
      <point x="-76" y="898"/>
      <point x="-18" y="898" type="curve"/>
      <point x="22" y="898"/>
      <point x="40" y="857"/>
      <point x="50" y="777" type="curve" smooth="yes"/>
      <point x="63" y="681" type="line"/>
    </contour>
    <component base="dvmAA" xOffset="-16"/>
  </outline>
</glyph>
<glyph name="dvmvR" format="1">
  <advance width="0"/>
  <unicode hex="0943"/>
  <outline>
    <contour>
      <point x="-61" y="7" type="move" name="_blwm.u"/>
    </contour>
    <contour>
      <point x="-53" y="-152" type="line"/>
      <point x="-110" y="-152"/>
      <point x="-147" y="-118"/>
      <point x="-147" y="-70" type="curve"/>
      <point x="-147" y="-26"/>
      <point x="-119" y="6"/>
      <point x="-74" y="6" type="curve"/>
      <point x="-74" y="118" type="line"/>
      <point x="-199" y="118"/>
      <point x="-294" y="51"/>
      <point x="-294" y="-64" type="curve"/>
      <point x="-294" y="-189"/>
      <point x="-193" y="-264"/>
      <point x="-53" y="-264" type="curve"/>
    </contour>
  </outline>
</glyph>
<glyph name="dvmEcandra" format="1">
  <advance width="0"/>
  <unicode hex="0945"/>
  <outline>
    <contour>
      <point x="-57" y="740" type="move" name="_abvm.e"/>
    </contour>
    <contour>
      <point x="-69" y="1006" type="curve"/>
      <point x="-69" y="957"/>
      <point x="-88" y="921"/>
      <point x="-134" y="921" type="curve"/>
      <point x="-182" y="921"/>
      <point x="-202" y="956"/>
      <point x="-202" y="1006" type="curve"/>
      <point x="-323" y="1006"/>
      <point x="-229" y="1006"/>
      <point x="-350" y="1006" type="curve"/>
      <point x="-350" y="882"/>
      <point x="-267" y="810"/>
      <point x="-139" y="810" type="curve"/>
      <point x="-9" y="810"/>
      <point x="79" y="880"/>
      <point x="79" y="1006" type="curve"/>
      <point x="-42" y="1006"/>
      <point x="52" y="1006"/>
    </contour>
  </outline>
</glyph>
<glyph name="dvVirama" format="1">
  <advance width="0"/>
  <unicode hex="094D"/>
  <outline>
    <contour>
      <point x="-62" y="0" type="move" name="_blwm.virama"/>
    </contour>
    <contour>
      <point x="67" y="-231" type="line"/>
      <point x="-62" y="-75" type="line"/>
      <point x="-201" y="-75" type="line"/>
      <point x="-83" y="-231" type="line"/>
    </contour>
  </outline>
</glyph>
<glyph name="dvDDxA" format="1">
  <advance width="508"/>
  <unicode hex="095C"/>
  <outline>
    <contour>
      <point x="350" y="-301" type="move" name="blwm.virama"/>
    </contour>
    <contour>
      <point x="426" y="716" type="move" name="abvm.e"/>
    </contour>
    <contour>
      <point x="335" y="-384" type="move" name="blwm.u"/>
    </contour>
    <component base="dvDDA" xOffset="1"/>
    <component base="dvAnusvara" xOffset="408" yOffset="-1093"/>
  </outline>
</glyph>
<glyph name="product" format="1">
  <advance width="845"/>
  <unicode hex="220F"/>
  <outline>
    <contour>
      <point x="637" y="113" type="curve"/>
      <point x="485" y="113"/>
      <point x="637" y="113"/>
      <point x="485" y="113" type="curve"/>
      <point x="485" y="0"/>
      <point x="485" y="113"/>
      <point x="485" y="0" type="curve"/>
      <point x="535" y="0"/>
      <point x="586" y="0"/>
      <point x="637" y="0" type="curve"/>
      <point x="637" y="113"/>
      <point x="637" y="0"/>
    </contour>
    <contour>
      <point x="788" y="800" type="curve"/>
      <point x="756" y="800"/>
      <point x="729" y="800"/>
      <point x="696" y="800" type="curve"/>
      <point x="696" y="688"/>
      <point x="696" y="800"/>
      <point x="696" y="688" type="curve"/>
      <point x="707" y="688"/>
      <point x="777" y="688"/>
      <point x="788" y="688" type="curve"/>
      <point x="788" y="800"/>
      <point x="788" y="688"/>
    </contour>
    <contour>
      <point x="637" y="0" type="curve"/>
      <point x="688" y="0"/>
      <point x="739" y="0"/>
      <point x="789" y="0" type="curve"/>
      <point x="789" y="113"/>
      <point x="789" y="0"/>
      <point x="789" y="113" type="curve"/>
      <point x="637" y="113"/>
      <point x="789" y="113"/>
      <point x="637" y="113" type="curve"/>
      <point x="637" y="0"/>
      <point x="637" y="113"/>
    </contour>
    <contour>
      <point x="710" y="0" type="curve"/>
      <point x="710" y="267"/>
      <point x="710" y="533"/>
      <point x="710" y="800" type="curve"/>
      <point x="563" y="800"/>
      <point x="710" y="800"/>
      <point x="563" y="800" type="curve"/>
      <point x="563" y="533"/>
      <point x="563" y="267"/>
      <point x="563" y="0" type="curve"/>
      <point x="710" y="0"/>
      <point x="563" y="0"/>
    </contour>
    <contour>
      <point x="209" y="113" type="curve"/>
      <point x="56" y="113"/>
      <point x="209" y="113"/>
      <point x="56" y="113" type="curve"/>
      <point x="56" y="0"/>
      <point x="56" y="113"/>
      <point x="56" y="0" type="curve"/>
      <point x="107" y="0"/>
      <point x="158" y="0"/>
      <point x="209" y="0" type="curve"/>
      <point x="209" y="113"/>
      <point x="209" y="0"/>
    </contour>
    <contour>
      <point x="211" y="800" type="curve"/>
      <point x="160" y="800"/>
      <point x="108" y="800"/>
      <point x="58" y="800" type="curve"/>
      <point x="58" y="688"/>
      <point x="58" y="800"/>
      <point x="58" y="688" type="curve"/>
      <point x="210" y="688"/>
      <point x="59" y="688"/>
      <point x="211" y="688" type="curve"/>
      <point x="211" y="800"/>
      <point x="211" y="688"/>
    </contour>
    <contour>
      <point x="209" y="0" type="curve"/>
      <point x="259" y="0"/>
      <point x="209" y="0"/>
      <point x="361" y="0" type="curve"/>
      <point x="361" y="113"/>
      <point x="361" y="0"/>
      <point x="361" y="113" type="curve"/>
      <point x="209" y="113"/>
      <point x="361" y="113"/>
      <point x="209" y="113" type="curve"/>
      <point x="209" y="0"/>
      <point x="209" y="113"/>
    </contour>
    <contour>
      <point x="282" y="0" type="curve"/>
      <point x="282" y="267"/>
      <point x="282" y="533"/>
      <point x="282" y="800" type="curve"/>
      <point x="134" y="800"/>
      <point x="282" y="800"/>
      <point x="134" y="800" type="curve"/>
      <point x="134" y="533"/>
      <point x="134" y="267"/>
      <point x="134" y="0" type="curve"/>
      <point x="282" y="0"/>
      <point x="134" y="0"/>
    </contour>
    <contour>
      <point x="634" y="800" type="curve"/>
      <point x="266" y="800"/>
      <point x="634" y="800"/>
      <point x="266" y="800" type="curve"/>
      <point x="266" y="688"/>
      <point x="266" y="800"/>
      <point x="266" y="688" type="curve"/>
      <point x="389" y="688"/>
      <point x="511" y="688"/>
      <point x="634" y="688" type="curve"/>
      <point x="634" y="800"/>
      <point x="634" y="688"/>
    </contour>
  </outline>
</glyph>
<glyph name="minus" format="1">
  <advance width="697"/>
  <unicode hex="2212"/>
  <outline>
    <contour>
      <point x="72" y="253" type="line"/>
      <point x="626" y="253" type="line"/>
      <point x="626" y="376" type="line"/>
      <point x="72" y="376" type="line"/>
    </contour>
  </outline>
</glyph>
<glyph name="fi" format="1">
  <advance width="684"/>
  <unicode hex="FB01"/>
  <outline>
    <contour>
      <point x="448" y="768" type="curve"/>
      <point x="448" y="645"/>
      <point x="448" y="768"/>
      <point x="448" y="645" type="curve"/>
      <point x="563" y="645"/>
      <point x="448" y="645"/>
      <point x="563" y="645" type="curve"/>
      <point x="563" y="765"/>
      <point x="563" y="645"/>
      <point x="563" y="765" type="curve"/>
      <point x="448" y="765"/>
      <point x="563" y="768"/>
    </contour>
    <contour>
      <point x="185" y="-1" type="curve"/>
      <point x="235" y="-1"/>
      <point x="277" y="0"/>
      <point x="328" y="0" type="curve"/>
      <point x="328" y="113"/>
      <point x="328" y="0"/>
      <point x="328" y="113" type="curve"/>
      <point x="177" y="112"/>
      <point x="336" y="113"/>
      <point x="185" y="112" type="curve"/>
      <point x="185" y="-1"/>
      <point x="185" y="112"/>
    </contour>
    <contour>
      <point x="185" y="112" type="curve"/>
      <point x="34" y="113"/>
      <point x="193" y="112"/>
      <point x="42" y="113" type="curve"/>
      <point x="42" y="0"/>
      <point x="42" y="113"/>
      <point x="42" y="0" type="curve"/>
      <point x="92" y="0"/>
      <point x="135" y="-1"/>
      <point x="185" y="-1" type="curve"/>
      <point x="185" y="112"/>
      <point x="185" y="-1"/>
    </contour>
    <contour>
      <point x="25" y="421" type="curve"/>
      <point x="394" y="421" type="line"/>
      <point x="394" y="533"/>
      <point x="394" y="421"/>
      <point x="394" y="533" type="curve"/>
      <point x="25" y="533" type="line"/>
      <point x="25" y="421"/>
      <point x="25" y="533"/>
    </contour>
    <contour>
      <point x="259" y="0" type="curve"/>
      <point x="259" y="223"/>
      <point x="259" y="381"/>
      <point x="259" y="603" type="curve"/>
      <point x="258" y="667"/>
      <point x="311" y="696"/>
      <point x="381" y="696" type="curve"/>
      <point x="427" y="696"/>
      <point x="469" y="685"/>
      <point x="502" y="675" type="curve"/>
      <point x="523" y="709"/>
      <point x="541" y="731"/>
      <point x="563" y="765" type="curve"/>
      <point x="500" y="792"/>
      <point x="435" y="804"/>
      <point x="356" y="804" type="curve"/>
      <point x="214" y="804"/>
      <point x="110" y="736"/>
      <point x="111" y="603" type="curve"/>
      <point x="111" y="0" type="line"/>
      <point x="259" y="0"/>
      <point x="111" y="0"/>
    </contour>
    <contour>
      <point x="508" y="112" type="curve"/>
      <point x="363" y="112"/>
      <point x="508" y="112"/>
      <point x="363" y="112" type="curve"/>
      <point x="363" y="0"/>
      <point x="363" y="112"/>
      <point x="363" y="0" type="curve"/>
      <point x="411" y="0"/>
      <point x="459" y="0"/>
      <point x="508" y="0" type="curve"/>
      <point x="508" y="112"/>
      <point x="508" y="0"/>
    </contour>
    <contour>
      <point x="508" y="0" type="curve"/>
      <point x="554" y="0"/>
      <point x="599" y="0"/>
      <point x="646" y="0" type="curve"/>
      <point x="646" y="112"/>
      <point x="646" y="0"/>
      <point x="646" y="112" type="curve"/>
      <point x="508" y="112"/>
      <point x="646" y="112"/>
      <point x="508" y="112" type="curve"/>
      <point x="508" y="0"/>
      <point x="508" y="112"/>
    </contour>
    <contour>
      <point x="508" y="533" type="curve"/>
      <point x="459" y="533"/>
      <point x="411" y="533"/>
      <point x="363" y="533" type="curve"/>
      <point x="363" y="421"/>
      <point x="363" y="533"/>
      <point x="363" y="421" type="curve"/>
      <point x="508" y="421"/>
      <point x="363" y="421"/>
      <point x="508" y="421" type="curve"/>
      <point x="508" y="533"/>
      <point x="508" y="421"/>
    </contour>
    <contour>
      <point x="585" y="0" type="curve"/>
      <point x="585" y="178"/>
      <point x="585" y="355"/>
      <point x="585" y="533" type="curve"/>
      <point x="430" y="533"/>
      <point x="585" y="533"/>
      <point x="430" y="533" type="curve"/>
      <point x="430" y="355"/>
      <point x="430" y="178"/>
      <point x="430" y="0" type="curve"/>
      <point x="585" y="0"/>
      <point x="430" y="0"/>
    </contour>
  </outline>
</glyph>
<glyph name="Euro" format="1">
  <advance width="767"/>
  <outline>
    <contour>
      <point x="56" y="200" type="curve"/>
      <point x="191" y="200"/>
      <point x="325" y="200"/>
      <point x="460" y="200" type="curve"/>
      <point x="460" y="318"/>
      <point x="460" y="200"/>
      <point x="460" y="318" type="curve"/>
      <point x="325" y="318"/>
      <point x="191" y="318"/>
      <point x="56" y="318" type="curve"/>
      <point x="56" y="200"/>
      <point x="56" y="318"/>
    </contour>
    <contour>
      <point x="56" y="374" type="curve"/>
      <point x="191" y="374"/>
      <point x="325" y="374"/>
      <point x="460" y="374" type="curve"/>
      <point x="460" y="493"/>
      <point x="460" y="374"/>
      <point x="460" y="493" type="curve"/>
      <point x="325" y="493"/>
      <point x="191" y="493"/>
      <point x="56" y="493" type="curve"/>
      <point x="56" y="374"/>
      <point x="56" y="493"/>
    </contour>
    <contour>
      <point x="585" y="654" type="curve"/>
      <point x="585" y="534"/>
      <point x="585" y="641"/>
      <point x="585" y="521" type="curve"/>
      <point x="700" y="521"/>
      <point x="585" y="521"/>
      <point x="700" y="521" type="curve"/>
      <point x="700" y="641"/>
      <point x="700" y="534"/>
      <point x="700" y="654" type="curve"/>
      <point x="585" y="654"/>
      <point x="700" y="654"/>
    </contour>
    <contour>
      <point x="700" y="654" type="curve"/>
      <point x="629" y="697"/>
      <point x="551" y="727"/>
      <point x="461" y="727" type="curve"/>
      <point x="236" y="727"/>
      <point x="112" y="581"/>
      <point x="112" y="345" type="curve"/>
      <point x="112" y="128"/>
      <point x="230" y="-5"/>
      <point x="441" y="-5" type="curve"/>
      <point x="558" y="-5"/>
      <point x="634" y="27"/>
      <point x="708" y="96" type="curve"/>
      <point x="632" y="183"/>
      <point x="708" y="96"/>
      <point x="632" y="183" type="curve"/>
      <point x="571" y="137"/>
      <point x="522" y="112"/>
      <point x="448" y="112" type="curve"/>
      <point x="316" y="112"/>
      <point x="260" y="209"/>
      <point x="260" y="350" type="curve"/>
      <point x="260" y="503"/>
      <point x="316" y="610"/>
      <point x="455" y="610" type="curve"/>
      <point x="517" y="610"/>
      <point x="572" y="594"/>
      <point x="619" y="565" type="curve"/>
      <point x="700" y="654"/>
      <point x="619" y="565"/>
    </contour>
  </outline>
</glyph>
<glyph name="approxequal" format="1">
  <advance width="677"/>
  <outline>
    <contour>
      <point x="498" y="380" type="curve"/>
      <point x="485" y="342"/>
      <point x="471" y="309"/>
      <point x="445" y="309" type="curve"/>
      <point x="418" y="309"/>
      <point x="403" y="316"/>
      <point x="383" y="332" type="curve"/>
      <point x="335" y="373"/>
      <point x="301" y="394"/>
      <point x="237" y="394" type="curve"/>
      <point x="139" y="394"/>
      <point x="90" y="341"/>
      <point x="63" y="244" type="curve"/>
      <point x="107" y="228"/>
      <point x="132" y="218"/>
      <point x="177" y="202" type="curve"/>
      <point x="188" y="243"/>
      <point x="204" y="276"/>
      <point x="233" y="276" type="curve"/>
      <point x="259" y="276"/>
      <point x="272" y="269"/>
      <point x="292" y="254" type="curve"/>
      <point x="342" y="212"/>
      <point x="376" y="192"/>
      <point x="442" y="191" type="curve"/>
      <point x="539" y="191"/>
      <point x="581" y="246"/>
      <point x="614" y="339" type="curve"/>
      <point x="569" y="355"/>
      <point x="543" y="364"/>
    </contour>
    <contour>
      <point x="498" y="599" type="curve"/>
      <point x="485" y="561"/>
      <point x="471" y="528"/>
      <point x="445" y="528" type="curve"/>
      <point x="418" y="528"/>
      <point x="403" y="535"/>
      <point x="383" y="551" type="curve"/>
      <point x="335" y="592"/>
      <point x="301" y="613"/>
      <point x="237" y="613" type="curve"/>
      <point x="139" y="613"/>
      <point x="90" y="560"/>
      <point x="63" y="463" type="curve"/>
      <point x="107" y="446"/>
      <point x="132" y="437"/>
      <point x="177" y="421" type="curve"/>
      <point x="188" y="462"/>
      <point x="204" y="495"/>
      <point x="233" y="495" type="curve"/>
      <point x="259" y="495"/>
      <point x="272" y="488"/>
      <point x="292" y="473" type="curve"/>
      <point x="342" y="431"/>
      <point x="376" y="411"/>
      <point x="442" y="410" type="curve"/>
      <point x="539" y="410"/>
      <point x="581" y="465"/>
      <point x="614" y="558" type="curve"/>
      <point x="569" y="574"/>
      <point x="543" y="583"/>
    </contour>
  </outline>
</glyph>
<glyph name="bullet" format="1">
  <advance width="461"/>
  <outline>
    <contour>
      <point x="389" y="439" type="curve"/>
      <point x="389" y="537"/>
      <point x="321" y="585"/>
      <point x="228" y="585" type="curve"/>
      <point x="134" y="585"/>
      <point x="72" y="533"/>
      <point x="72" y="439" type="curve"/>
      <point x="389" y="439"/>
      <point x="72" y="439"/>
      <point x="389" y="439" type="curve"/>
      <point x="389" y="339"/>
      <point x="322" y="295"/>
      <point x="228" y="295" type="curve"/>
      <point x="132" y="295"/>
      <point x="72" y="343"/>
      <point x="72" y="439" type="curve"/>
      <point x="389" y="439"/>
      <point x="72" y="439"/>
    </contour>
  </outline>
</glyph>
<glyph name="bulletoperator" format="1">
  <advance width="408"/>
  <outline>
    <contour>
      <point x="363" y="439" type="curve"/>
      <point x="363" y="537"/>
      <point x="295" y="585"/>
      <point x="202" y="585" type="curve"/>
      <point x="108" y="585"/>
      <point x="45" y="533"/>
      <point x="45" y="439" type="curve"/>
      <point x="363" y="439"/>
      <point x="45" y="439"/>
      <point x="363" y="439" type="curve"/>
      <point x="363" y="339"/>
      <point x="296" y="295"/>
      <point x="201" y="295" type="curve"/>
      <point x="106" y="295"/>
      <point x="45" y="343"/>
      <point x="45" y="439" type="curve"/>
      <point x="363" y="439"/>
      <point x="45" y="439"/>
    </contour>
  </outline>
</glyph>
<glyph name="dagger" format="1">
  <advance width="619"/>
  <outline>
    <contour>
      <point x="32" y="409" type="curve"/>
      <point x="586" y="409" type="line"/>
      <point x="586" y="532"/>
      <point x="586" y="409"/>
      <point x="586" y="532" type="curve"/>
      <point x="32" y="532" type="line"/>
      <point x="32" y="409"/>
      <point x="32" y="532"/>
    </contour>
    <contour>
      <point x="379" y="-300" type="curve"/>
      <point x="379" y="763" type="line"/>
      <point x="232" y="763"/>
      <point x="389" y="763"/>
      <point x="242" y="763" type="curve"/>
      <point x="242" y="-300" type="line"/>
      <point x="389" y="-300"/>
      <point x="232" y="-300"/>
    </contour>
  </outline>
</glyph>
<glyph name="dvAbbreviationsign" format="1">
  <advance width="441"/>
  <outline>
    <contour>
      <point x="148" y="256" type="curve"/>
      <point x="148" y="311"/>
      <point x="167" y="353"/>
      <point x="219" y="353" type="curve"/>
      <point x="272" y="354"/>
      <point x="292" y="311"/>
      <point x="292" y="254" type="curve"/>
      <point x="292" y="197"/>
      <point x="277" y="152"/>
      <point x="226" y="152" type="curve"/>
      <point x="170" y="152"/>
      <point x="148" y="196"/>
      <point x="148" y="256" type="curve"/>
      <point x="100" y="256"/>
      <point x="67" y="256"/>
      <point x="20" y="256" type="curve"/>
      <point x="20" y="130"/>
      <point x="94" y="48"/>
      <point x="220" y="48" type="curve"/>
      <point x="350" y="48"/>
      <point x="426" y="131"/>
      <point x="426" y="259" type="curve"/>
      <point x="426" y="381"/>
      <point x="351" y="457"/>
      <point x="225" y="457" type="curve"/>
      <point x="97" y="457"/>
      <point x="20" y="379"/>
      <point x="20" y="256" type="curve"/>
      <point x="67" y="256"/>
      <point x="100" y="256"/>
    </contour>
  </outline>
</glyph>
<glyph name="dvDA_short" format="1">
  <advance width="499"/>
  <outline>
    <contour>
      <point x="304" y="635" type="line"/>
      <point x="304" y="597"/>
      <point x="304" y="565"/>
      <point x="304" y="528" type="curve"/>
      <point x="451" y="415" type="line"/>
      <point x="451" y="492"/>
      <point x="451" y="557"/>
      <point x="451" y="635" type="curve"/>
    </contour>
    <contour>
      <point x="352" y="308" type="line"/>
      <point x="345" y="257"/>
      <point x="319" y="224"/>
      <point x="271" y="224" type="curve"/>
      <point x="221" y="224"/>
      <point x="198" y="266"/>
      <point x="198" y="319" type="curve" smooth="yes"/>
      <point x="198" y="379"/>
      <point x="234" y="415"/>
      <point x="290" y="415" type="curve"/>
      <point x="451" y="415" type="line"/>
      <point x="304" y="528" type="line"/>
      <point x="299" y="528"/>
      <point x="295" y="528"/>
      <point x="290" y="528" type="curve"/>
      <point x="152" y="528"/>
      <point x="51" y="454"/>
      <point x="51" y="321" type="curve"/>
      <point x="51" y="194"/>
      <point x="138" y="112"/>
      <point x="268" y="112" type="curve"/>
      <point x="384" y="112"/>
      <point x="473" y="185"/>
      <point x="473" y="289" type="curve"/>
    </contour>
  </outline>
</glyph>
<glyph name="dvDDA_base" format="1">
  <advance width="500"/>
  <outline>
    <contour>
      <point x="41" y="103" type="line"/>
      <point x="93" y="35"/>
      <point x="170" y="5"/>
      <point x="270" y="5" type="curve"/>
      <point x="396" y="5"/>
      <point x="485" y="81"/>
      <point x="485" y="204" type="curve"/>
      <point x="483" y="302"/>
      <point x="414" y="362"/>
      <point x="315" y="362" type="curve"/>
      <point x="279" y="362"/>
      <point x="252" y="354"/>
      <point x="219" y="339" type="curve"/>
      <point x="212" y="292"/>
      <point x="207" y="257"/>
      <point x="200" y="211" type="curve"/>
      <point x="227" y="226"/>
      <point x="249" y="239"/>
      <point x="281" y="240" type="curve"/>
      <point x="314" y="240"/>
      <point x="338" y="220"/>
      <point x="338" y="187" type="curve"/>
      <point x="338" y="145"/>
      <point x="308" y="121"/>
      <point x="266" y="121" type="curve"/>
      <point x="214" y="121"/>
      <point x="177" y="139"/>
      <point x="141" y="175" type="curve"/>
    </contour>
    <contour>
      <point x="278" y="544" type="curve"/>
      <point x="268" y="544"/>
      <point x="262" y="544"/>
      <point x="252" y="544" type="curve"/>
      <point x="138" y="544"/>
      <point x="46" y="496"/>
      <point x="46" y="391" type="curve"/>
      <point x="46" y="297"/>
      <point x="110" y="244"/>
      <point x="200" y="211" type="curve"/>
      <point x="207" y="257"/>
      <point x="212" y="292"/>
      <point x="219" y="339" type="curve"/>
      <point x="197" y="351"/>
      <point x="185" y="368"/>
      <point x="185" y="394" type="curve"/>
      <point x="185" y="426"/>
      <point x="219" y="432"/>
      <point x="256" y="432" type="curve"/>
      <point x="318" y="432"/>
      <point x="364" y="432"/>
      <point x="426" y="432" type="curve"/>
      <point x="373" y="472"/>
      <point x="331" y="504"/>
    </contour>
    <contour>
      <point x="426" y="432" type="curve"/>
      <point x="426" y="509"/>
      <point x="426" y="574"/>
      <point x="426" y="651" type="curve"/>
      <point x="346" y="651"/>
      <point x="358" y="651"/>
      <point x="278" y="651" type="curve"/>
      <point x="278" y="613"/>
      <point x="278" y="581"/>
      <point x="278" y="544" type="curve"/>
      <point x="358" y="484"/>
      <point x="346" y="492"/>
    </contour>
  </outline>
</glyph>
<glyph name="dvDDH_RA" format="1">
  <advance width="583"/>
  <outline>
    <contour>
      <point x="393" y="-179" type="move" name="blwm.virama"/>
    </contour>
    <contour>
      <point x="445" y="719" type="move" name="abvm.e"/>
    </contour>
    <contour>
      <point x="439" y="-244" type="move" name="blwm.u"/>
    </contour>
    <component base="dvDDHA"/>
    <component base="dvDoublevirama" xOffset="7" yOffset="-29"/>
  </outline>
</glyph>
<glyph name="dvDD_short" format="1">
  <advance width="500"/>
  <outline>
    <contour>
      <point x="198" y="255" type="curve"/>
      <point x="222" y="271"/>
      <point x="256" y="294"/>
      <point x="300" y="293" type="curve"/>
      <point x="330" y="293"/>
      <point x="350" y="282"/>
      <point x="350" y="256" type="curve"/>
      <point x="350" y="228"/>
      <point x="320" y="214"/>
      <point x="288" y="214" type="curve"/>
      <point x="232" y="214"/>
      <point x="172" y="232"/>
      <point x="128" y="260" type="curve"/>
      <point x="59" y="167" type="line"/>
      <point x="131" y="118"/>
      <point x="192" y="101"/>
      <point x="282" y="101" type="curve"/>
      <point x="402" y="101"/>
      <point x="498" y="153"/>
      <point x="498" y="265" type="curve"/>
      <point x="496" y="361"/>
      <point x="414" y="404"/>
      <point x="313" y="403" type="curve"/>
      <point x="276" y="402"/>
      <point x="247" y="397"/>
      <point x="215" y="378" type="curve"/>
      <point x="202" y="278"/>
      <point x="211" y="355"/>
    </contour>
    <contour>
      <point x="335" y="548" type="line"/>
      <point x="249" y="548" type="line"/>
      <point x="138" y="548"/>
      <point x="45" y="509"/>
      <point x="45" y="404" type="curve"/>
      <point x="45" y="318"/>
      <point x="115" y="276"/>
      <point x="198" y="255" type="curve"/>
      <point x="211" y="355"/>
      <point x="202" y="278"/>
      <point x="215" y="378" type="curve"/>
      <point x="198" y="382"/>
      <point x="185" y="389"/>
      <point x="185" y="405" type="curve"/>
      <point x="185" y="433"/>
      <point x="224" y="435"/>
      <point x="258" y="435" type="curve"/>
      <point x="334" y="435" type="line"/>
    </contour>
  </outline>
</glyph>
<glyph name="dvDHA_base" format="1">
  <advance width="500"/>
  <outline>
    <contour>
      <point x="442" y="330" type="curve"/>
      <point x="414" y="253"/>
      <point x="373" y="196"/>
      <point x="297" y="196" type="curve"/>
      <point x="244" y="196"/>
      <point x="201" y="220"/>
      <point x="201" y="272" type="curve"/>
      <point x="201" y="340"/>
      <point x="267" y="359"/>
      <point x="343" y="359" type="curve"/>
      <point x="343" y="438"/>
      <point x="343" y="376"/>
      <point x="343" y="455" type="curve"/>
      <point x="187" y="455"/>
      <point x="54" y="403"/>
      <point x="54" y="266" type="curve"/>
      <point x="54" y="145"/>
      <point x="156" y="84"/>
      <point x="283" y="84" type="curve"/>
      <point x="411" y="84"/>
      <point x="492" y="166"/>
      <point x="533" y="287" type="curve"/>
      <point x="460" y="321"/>
      <point x="514" y="296"/>
    </contour>
    <contour>
      <point x="392" y="583" type="line"/>
      <point x="392" y="672"/>
      <point x="330" y="727"/>
      <point x="234" y="727" type="curve"/>
      <point x="125" y="727"/>
      <point x="47" y="659"/>
      <point x="47" y="554" type="curve"/>
      <point x="47" y="420"/>
      <point x="187" y="382"/>
      <point x="343" y="382" type="curve"/>
      <point x="343" y="459"/>
      <point x="343" y="397"/>
      <point x="343" y="475" type="curve"/>
      <point x="259" y="475"/>
      <point x="188" y="491"/>
      <point x="188" y="558" type="curve"/>
      <point x="188" y="587"/>
      <point x="200" y="615"/>
      <point x="231" y="615" type="curve"/>
      <point x="258" y="615"/>
      <point x="272" y="594"/>
      <point x="272" y="566" type="curve"/>
    </contour>
  </outline>
</glyph>
<glyph name="dvDH_close" format="1">
  <advance width="500"/>
  <outline>
    <contour>
      <point x="404" y="289" type="curve"/>
      <point x="377" y="218"/>
      <point x="351" y="150"/>
      <point x="271" y="150" type="curve"/>
      <point x="225" y="150"/>
      <point x="195" y="179"/>
      <point x="195" y="224" type="curve"/>
      <point x="195" y="270"/>
      <point x="225" y="301"/>
      <point x="274" y="301" type="curve"/>
      <point x="274" y="336"/>
      <point x="274" y="362"/>
      <point x="274" y="397" type="curve"/>
      <point x="147" y="397"/>
      <point x="48" y="332"/>
      <point x="48" y="214" type="curve"/>
      <point x="48" y="101"/>
      <point x="140" y="38"/>
      <point x="260" y="38" type="curve"/>
      <point x="385" y="38"/>
      <point x="457" y="129"/>
      <point x="494" y="246" type="curve"/>
      <point x="462" y="262"/>
      <point x="436" y="273"/>
    </contour>
    <contour>
      <point x="437" y="491" type="line"/>
      <point x="410" y="600"/>
      <point x="325" y="661"/>
      <point x="211" y="661" type="curve"/>
      <point x="111" y="661"/>
      <point x="41" y="597"/>
      <point x="41" y="498" type="curve"/>
      <point x="41" y="381"/>
      <point x="146" y="324"/>
      <point x="274" y="324" type="curve"/>
      <point x="274" y="358"/>
      <point x="274" y="384"/>
      <point x="274" y="417" type="curve"/>
      <point x="223" y="417"/>
      <point x="182" y="441"/>
      <point x="182" y="490" type="curve"/>
      <point x="182" y="527"/>
      <point x="210" y="550"/>
      <point x="248" y="550" type="curve"/>
      <point x="296" y="550"/>
      <point x="330" y="524"/>
      <point x="351" y="480" type="curve"/>
    </contour>
  </outline>
</glyph>
<glyph name="dvD_BA" format="1">
  <advance width="558"/>
  <outline>
    <contour>
      <point x="467" y="-230" type="move" name="blwm.virama"/>
    </contour>
    <contour>
      <point x="447" y="718" type="move" name="abvm.e"/>
    </contour>
    <contour>
      <point x="467" y="-235" type="move" name="blwm.u"/>
    </contour>
    <component base="dvDiagonal" xOffset="-5" yOffset="-276"/>
    <component base="dvTopbar" xScale="1.02188357152" xOffset="1"/>
    <component base="dvStroke_down" yScale="2.02086204873" xOffset="-3" yOffset="-141"/>
    <component base="dvVA_open" xOffset="-437" yOffset="80"/>
    <component base="dvDA_short" yOffset="1"/>
  </outline>
</glyph>
<glyph name="dvD_B_RA" format="1">
  <advance width="558"/>
  <outline>
    <contour>
      <point x="470" y="-254" type="move" name="blwm.virama"/>
    </contour>
    <contour>
      <point x="445" y="718" type="move" name="abvm.e"/>
    </contour>
    <contour>
      <point x="470" y="-317" type="move" name="blwm.u"/>
    </contour>
    <component base="dvD_BA"/>
    <component base="dvRaker" xOffset="-43" yOffset="-345"/>
  </outline>
</glyph>
<glyph name="dvD_DA" format="1">
  <advance width="522"/>
  <outline>
    <contour>
      <point x="482" y="-133" type="move" name="blwm.virama"/>
    </contour>
    <contour>
      <point x="401" y="719" type="move" name="abvm.e"/>
    </contour>
    <contour>
      <point x="482" y="-130" type="move" name="blwm.u"/>
    </contour>
    <component base="dvTopbar" xScale="0.961387317923"/>
    <component base="dvStroke_down" yScale="0.838088185255" xOffset="9" yOffset="-62"/>
    <component base="dvD_DA_base"/>
  </outline>
</glyph>
